%TF.GenerationSoftware,KiCad,Pcbnew,(6.0.8)*%
%TF.CreationDate,2022-11-03T15:19:08-07:00*%
%TF.ProjectId,TipBlaster_V2,54697042-6c61-4737-9465-725f56322e6b,rev?*%
%TF.SameCoordinates,Original*%
%TF.FileFunction,Drillmap*%
%TF.FilePolarity,Positive*%
%FSLAX45Y45*%
G04 Gerber Fmt 4.5, Leading zero omitted, Abs format (unit mm)*
G04 Created by KiCad (PCBNEW (6.0.8)) date 2022-11-03 15:19:08*
%MOMM*%
%LPD*%
G01*
G04 APERTURE LIST*
%ADD10C,0.100000*%
%ADD11C,0.200000*%
%ADD12C,0.040000*%
%ADD13C,0.070000*%
%ADD14C,0.080000*%
%ADD15C,0.090000*%
%ADD16C,0.110000*%
%ADD17C,0.140000*%
%ADD18C,0.350000*%
G04 APERTURE END LIST*
D10*
X8737600Y-5715000D02*
X14732000Y-5715000D01*
X14732000Y-5715000D02*
X14732000Y-10439400D01*
X14732000Y-10439400D02*
X8737600Y-10439400D01*
X8737600Y-10439400D02*
X8737600Y-5715000D01*
D11*
D12*
X9032937Y-6061218D02*
X9072937Y-6101218D01*
X9072937Y-6061218D02*
X9032937Y-6101218D01*
X9632000Y-9657400D02*
X9672000Y-9697400D01*
X9672000Y-9657400D02*
X9632000Y-9697400D01*
X9808867Y-6963347D02*
X9848867Y-7003347D01*
X9848867Y-6963347D02*
X9808867Y-7003347D01*
X9989258Y-10062573D02*
X10029258Y-10102573D01*
X10029258Y-10062573D02*
X9989258Y-10102573D01*
X10216200Y-8387400D02*
X10256200Y-8427400D01*
X10256200Y-8387400D02*
X10216200Y-8427400D01*
X10216200Y-8920800D02*
X10256200Y-8960800D01*
X10256200Y-8920800D02*
X10216200Y-8960800D01*
X10317800Y-7676200D02*
X10357800Y-7716200D01*
X10357800Y-7676200D02*
X10317800Y-7716200D01*
X10470200Y-5847400D02*
X10510200Y-5887400D01*
X10510200Y-5847400D02*
X10470200Y-5887400D01*
X10825800Y-6965000D02*
X10865800Y-7005000D01*
X10865800Y-6965000D02*
X10825800Y-7005000D01*
X11130600Y-8133400D02*
X11170600Y-8173400D01*
X11170600Y-8133400D02*
X11130600Y-8173400D01*
X11181400Y-10063800D02*
X11221400Y-10103800D01*
X11221400Y-10063800D02*
X11181400Y-10103800D01*
X11613200Y-9403400D02*
X11653200Y-9443400D01*
X11653200Y-9403400D02*
X11613200Y-9443400D01*
X11994200Y-7650800D02*
X12034200Y-7690800D01*
X12034200Y-7650800D02*
X11994200Y-7690800D01*
X12222800Y-6457000D02*
X12262800Y-6497000D01*
X12262800Y-6457000D02*
X12222800Y-6497000D01*
X12248200Y-10063800D02*
X12288200Y-10103800D01*
X12288200Y-10063800D02*
X12248200Y-10103800D01*
X12578400Y-9301800D02*
X12618400Y-9341800D01*
X12618400Y-9301800D02*
X12578400Y-9341800D01*
X12603800Y-8006400D02*
X12643800Y-8046400D01*
X12643800Y-8006400D02*
X12603800Y-8046400D01*
X13238800Y-5999800D02*
X13278800Y-6039800D01*
X13278800Y-5999800D02*
X13238800Y-6039800D01*
X13391200Y-6634800D02*
X13431200Y-6674800D01*
X13431200Y-6634800D02*
X13391200Y-6674800D01*
X13416600Y-10063800D02*
X13456600Y-10103800D01*
X13456600Y-10063800D02*
X13416600Y-10103800D01*
X13619800Y-7981000D02*
X13659800Y-8021000D01*
X13659800Y-7981000D02*
X13619800Y-8021000D01*
X13645200Y-7346000D02*
X13685200Y-7386000D01*
X13685200Y-7346000D02*
X13645200Y-7386000D01*
X13823000Y-8692200D02*
X13863000Y-8732200D01*
X13863000Y-8692200D02*
X13823000Y-8732200D01*
X14229400Y-6787200D02*
X14269400Y-6827200D01*
X14269400Y-6787200D02*
X14229400Y-6827200D01*
X14331000Y-10063800D02*
X14371000Y-10103800D01*
X14371000Y-10063800D02*
X14331000Y-10103800D01*
X14559600Y-8539800D02*
X14599600Y-8579800D01*
X14599600Y-8539800D02*
X14559600Y-8579800D01*
D13*
X12938200Y-7442200D02*
G75*
G03*
X12938200Y-7442200I-35000J0D01*
G01*
X13065200Y-7315200D02*
G75*
G03*
X13065200Y-7315200I-35000J0D01*
G01*
X13065200Y-7569200D02*
G75*
G03*
X13065200Y-7569200I-35000J0D01*
G01*
D14*
X9715500Y-6068700D02*
X9715500Y-6148700D01*
X9675500Y-6108700D02*
X9755500Y-6108700D01*
X9715500Y-6551300D02*
X9715500Y-6631300D01*
X9675500Y-6591300D02*
X9755500Y-6591300D01*
X10896600Y-7961000D02*
X10896600Y-8041000D01*
X10856600Y-8001000D02*
X10936600Y-8001000D01*
X10896600Y-9485000D02*
X10896600Y-9565000D01*
X10856600Y-9525000D02*
X10936600Y-9525000D01*
X11239500Y-6068700D02*
X11239500Y-6148700D01*
X11199500Y-6108700D02*
X11279500Y-6108700D01*
X11239500Y-6551300D02*
X11239500Y-6631300D01*
X11199500Y-6591300D02*
X11279500Y-6591300D01*
X11404600Y-7961000D02*
X11404600Y-8041000D01*
X11364600Y-8001000D02*
X11444600Y-8001000D01*
X11404600Y-9485000D02*
X11404600Y-9565000D01*
X11364600Y-9525000D02*
X11444600Y-9525000D01*
X11873000Y-5942700D02*
X11873000Y-6022700D01*
X11833000Y-5982700D02*
X11913000Y-5982700D01*
X11873000Y-6704700D02*
X11873000Y-6784700D01*
X11833000Y-6744700D02*
X11913000Y-6744700D01*
X11887200Y-7961000D02*
X11887200Y-8041000D01*
X11847200Y-8001000D02*
X11927200Y-8001000D01*
X11887200Y-9485000D02*
X11887200Y-9565000D01*
X11847200Y-9525000D02*
X11927200Y-9525000D01*
X12127000Y-5942700D02*
X12127000Y-6022700D01*
X12087000Y-5982700D02*
X12167000Y-5982700D01*
X12127000Y-6704700D02*
X12127000Y-6784700D01*
X12087000Y-6744700D02*
X12167000Y-6744700D01*
X12344400Y-7961000D02*
X12344400Y-8041000D01*
X12304400Y-8001000D02*
X12384400Y-8001000D01*
X12344400Y-9485000D02*
X12344400Y-9565000D01*
X12304400Y-9525000D02*
X12384400Y-9525000D01*
X12381000Y-5942700D02*
X12381000Y-6022700D01*
X12341000Y-5982700D02*
X12421000Y-5982700D01*
X12381000Y-6704700D02*
X12381000Y-6784700D01*
X12341000Y-6744700D02*
X12421000Y-6744700D01*
X12877800Y-7961000D02*
X12877800Y-8041000D01*
X12837800Y-8001000D02*
X12917800Y-8001000D01*
X12877800Y-9485000D02*
X12877800Y-9565000D01*
X12837800Y-9525000D02*
X12917800Y-9525000D01*
X13385800Y-7961000D02*
X13385800Y-8041000D01*
X13345800Y-8001000D02*
X13425800Y-8001000D01*
X13385800Y-9485000D02*
X13385800Y-9565000D01*
X13345800Y-9525000D02*
X13425800Y-9525000D01*
D15*
X13874320Y-9455220D02*
X13874320Y-9391580D01*
X13810680Y-9391580D01*
X13810680Y-9455220D01*
X13874320Y-9455220D01*
X14128320Y-9455220D02*
X14128320Y-9391580D01*
X14064680Y-9391580D01*
X14064680Y-9455220D01*
X14128320Y-9455220D01*
D10*
X9728200Y-7568400D02*
X9778200Y-7518400D01*
X9728200Y-7468400D01*
X9678200Y-7518400D01*
X9728200Y-7568400D01*
X9728200Y-7822400D02*
X9778200Y-7772400D01*
X9728200Y-7722400D01*
X9678200Y-7772400D01*
X9728200Y-7822400D01*
X9728200Y-8076400D02*
X9778200Y-8026400D01*
X9728200Y-7976400D01*
X9678200Y-8026400D01*
X9728200Y-8076400D01*
X9728200Y-8330400D02*
X9778200Y-8280400D01*
X9728200Y-8230400D01*
X9678200Y-8280400D01*
X9728200Y-8330400D01*
X9728200Y-8584400D02*
X9778200Y-8534400D01*
X9728200Y-8484400D01*
X9678200Y-8534400D01*
X9728200Y-8584400D01*
X9728200Y-8838400D02*
X9778200Y-8788400D01*
X9728200Y-8738400D01*
X9678200Y-8788400D01*
X9728200Y-8838400D01*
X9728200Y-9092400D02*
X9778200Y-9042400D01*
X9728200Y-8992400D01*
X9678200Y-9042400D01*
X9728200Y-9092400D01*
X9728200Y-9346400D02*
X9778200Y-9296400D01*
X9728200Y-9246400D01*
X9678200Y-9296400D01*
X9728200Y-9346400D01*
D16*
X14092800Y-7285600D02*
X14202800Y-7395600D01*
X14202800Y-7285600D02*
X14092800Y-7395600D01*
X14202800Y-7340600D02*
G75*
G03*
X14202800Y-7340600I-55000J0D01*
G01*
X14092800Y-7539600D02*
X14202800Y-7649600D01*
X14202800Y-7539600D02*
X14092800Y-7649600D01*
X14202800Y-7594600D02*
G75*
G03*
X14202800Y-7594600I-55000J0D01*
G01*
X14092800Y-7793600D02*
X14202800Y-7903600D01*
X14202800Y-7793600D02*
X14092800Y-7903600D01*
X14202800Y-7848600D02*
G75*
G03*
X14202800Y-7848600I-55000J0D01*
G01*
D17*
X10369400Y-7296000D02*
X10509400Y-7436000D01*
X10509400Y-7296000D02*
X10369400Y-7436000D01*
X10439400Y-7296000D02*
X10439400Y-7436000D01*
X10369400Y-7366000D02*
X10509400Y-7366000D01*
X11639400Y-7296000D02*
X11779400Y-7436000D01*
X11779400Y-7296000D02*
X11639400Y-7436000D01*
X11709400Y-7296000D02*
X11709400Y-7436000D01*
X11639400Y-7366000D02*
X11779400Y-7366000D01*
D18*
X8969000Y-9858000D02*
X9319000Y-10208000D01*
X9319000Y-9858000D02*
X8969000Y-10208000D01*
X9267745Y-10156745D02*
X9267745Y-9909255D01*
X9020255Y-9909255D01*
X9020255Y-10156745D01*
X9267745Y-10156745D01*
X14125200Y-5971800D02*
X14475200Y-6321800D01*
X14475200Y-5971800D02*
X14125200Y-6321800D01*
X14423945Y-6270545D02*
X14423945Y-6023055D01*
X14176455Y-6023055D01*
X14176455Y-6270545D01*
X14423945Y-6270545D01*
D11*
X8990219Y-10754876D02*
X8990219Y-10554876D01*
X9037838Y-10554876D01*
X9066410Y-10564400D01*
X9085457Y-10583448D01*
X9094981Y-10602495D01*
X9104505Y-10640590D01*
X9104505Y-10669162D01*
X9094981Y-10707257D01*
X9085457Y-10726305D01*
X9066410Y-10745352D01*
X9037838Y-10754876D01*
X8990219Y-10754876D01*
X9190219Y-10754876D02*
X9190219Y-10621543D01*
X9190219Y-10659638D02*
X9199743Y-10640590D01*
X9209267Y-10631067D01*
X9228314Y-10621543D01*
X9247362Y-10621543D01*
X9314029Y-10754876D02*
X9314029Y-10621543D01*
X9314029Y-10554876D02*
X9304505Y-10564400D01*
X9314029Y-10573924D01*
X9323552Y-10564400D01*
X9314029Y-10554876D01*
X9314029Y-10573924D01*
X9437838Y-10754876D02*
X9418790Y-10745352D01*
X9409267Y-10726305D01*
X9409267Y-10554876D01*
X9542600Y-10754876D02*
X9523552Y-10745352D01*
X9514029Y-10726305D01*
X9514029Y-10554876D01*
X9771171Y-10754876D02*
X9771171Y-10554876D01*
X9837838Y-10697733D01*
X9904505Y-10554876D01*
X9904505Y-10754876D01*
X10085457Y-10754876D02*
X10085457Y-10650114D01*
X10075933Y-10631067D01*
X10056886Y-10621543D01*
X10018790Y-10621543D01*
X9999743Y-10631067D01*
X10085457Y-10745352D02*
X10066410Y-10754876D01*
X10018790Y-10754876D01*
X9999743Y-10745352D01*
X9990219Y-10726305D01*
X9990219Y-10707257D01*
X9999743Y-10688210D01*
X10018790Y-10678686D01*
X10066410Y-10678686D01*
X10085457Y-10669162D01*
X10180695Y-10621543D02*
X10180695Y-10821543D01*
X10180695Y-10631067D02*
X10199743Y-10621543D01*
X10237838Y-10621543D01*
X10256886Y-10631067D01*
X10266410Y-10640590D01*
X10275933Y-10659638D01*
X10275933Y-10716781D01*
X10266410Y-10735829D01*
X10256886Y-10745352D01*
X10237838Y-10754876D01*
X10199743Y-10754876D01*
X10180695Y-10745352D01*
X10361648Y-10735829D02*
X10371171Y-10745352D01*
X10361648Y-10754876D01*
X10352124Y-10745352D01*
X10361648Y-10735829D01*
X10361648Y-10754876D01*
X10361648Y-10631067D02*
X10371171Y-10640590D01*
X10361648Y-10650114D01*
X10352124Y-10640590D01*
X10361648Y-10631067D01*
X10361648Y-10650114D01*
D12*
X8692600Y-11064400D02*
X8732600Y-11104400D01*
X8732600Y-11064400D02*
X8692600Y-11104400D01*
D11*
X9028314Y-10974876D02*
X9047362Y-10974876D01*
X9066410Y-10984400D01*
X9075933Y-10993924D01*
X9085457Y-11012971D01*
X9094981Y-11051067D01*
X9094981Y-11098686D01*
X9085457Y-11136781D01*
X9075933Y-11155829D01*
X9066410Y-11165352D01*
X9047362Y-11174876D01*
X9028314Y-11174876D01*
X9009267Y-11165352D01*
X8999743Y-11155829D01*
X8990219Y-11136781D01*
X8980695Y-11098686D01*
X8980695Y-11051067D01*
X8990219Y-11012971D01*
X8999743Y-10993924D01*
X9009267Y-10984400D01*
X9028314Y-10974876D01*
X9180695Y-11155829D02*
X9190219Y-11165352D01*
X9180695Y-11174876D01*
X9171171Y-11165352D01*
X9180695Y-11155829D01*
X9180695Y-11174876D01*
X9361648Y-11041543D02*
X9361648Y-11174876D01*
X9314029Y-10965352D02*
X9266410Y-11108210D01*
X9390219Y-11108210D01*
X9504505Y-10974876D02*
X9523552Y-10974876D01*
X9542600Y-10984400D01*
X9552124Y-10993924D01*
X9561648Y-11012971D01*
X9571171Y-11051067D01*
X9571171Y-11098686D01*
X9561648Y-11136781D01*
X9552124Y-11155829D01*
X9542600Y-11165352D01*
X9523552Y-11174876D01*
X9504505Y-11174876D01*
X9485457Y-11165352D01*
X9475933Y-11155829D01*
X9466410Y-11136781D01*
X9456886Y-11098686D01*
X9456886Y-11051067D01*
X9466410Y-11012971D01*
X9475933Y-10993924D01*
X9485457Y-10984400D01*
X9504505Y-10974876D01*
X9694981Y-10974876D02*
X9714029Y-10974876D01*
X9733076Y-10984400D01*
X9742600Y-10993924D01*
X9752124Y-11012971D01*
X9761648Y-11051067D01*
X9761648Y-11098686D01*
X9752124Y-11136781D01*
X9742600Y-11155829D01*
X9733076Y-11165352D01*
X9714029Y-11174876D01*
X9694981Y-11174876D01*
X9675933Y-11165352D01*
X9666410Y-11155829D01*
X9656886Y-11136781D01*
X9647362Y-11098686D01*
X9647362Y-11051067D01*
X9656886Y-11012971D01*
X9666410Y-10993924D01*
X9675933Y-10984400D01*
X9694981Y-10974876D01*
X9847362Y-11174876D02*
X9847362Y-11041543D01*
X9847362Y-11060590D02*
X9856886Y-11051067D01*
X9875933Y-11041543D01*
X9904505Y-11041543D01*
X9923552Y-11051067D01*
X9933076Y-11070114D01*
X9933076Y-11174876D01*
X9933076Y-11070114D02*
X9942600Y-11051067D01*
X9961648Y-11041543D01*
X9990219Y-11041543D01*
X10009267Y-11051067D01*
X10018790Y-11070114D01*
X10018790Y-11174876D01*
X10114029Y-11174876D02*
X10114029Y-11041543D01*
X10114029Y-11060590D02*
X10123552Y-11051067D01*
X10142600Y-11041543D01*
X10171171Y-11041543D01*
X10190219Y-11051067D01*
X10199743Y-11070114D01*
X10199743Y-11174876D01*
X10199743Y-11070114D02*
X10209267Y-11051067D01*
X10228314Y-11041543D01*
X10256886Y-11041543D01*
X10275933Y-11051067D01*
X10285457Y-11070114D01*
X10285457Y-11174876D01*
X10675933Y-10965352D02*
X10504505Y-11222495D01*
X10933076Y-10974876D02*
X10952124Y-10974876D01*
X10971171Y-10984400D01*
X10980695Y-10993924D01*
X10990219Y-11012971D01*
X10999743Y-11051067D01*
X10999743Y-11098686D01*
X10990219Y-11136781D01*
X10980695Y-11155829D01*
X10971171Y-11165352D01*
X10952124Y-11174876D01*
X10933076Y-11174876D01*
X10914029Y-11165352D01*
X10904505Y-11155829D01*
X10894981Y-11136781D01*
X10885457Y-11098686D01*
X10885457Y-11051067D01*
X10894981Y-11012971D01*
X10904505Y-10993924D01*
X10914029Y-10984400D01*
X10933076Y-10974876D01*
X11085457Y-11155829D02*
X11094981Y-11165352D01*
X11085457Y-11174876D01*
X11075933Y-11165352D01*
X11085457Y-11155829D01*
X11085457Y-11174876D01*
X11218790Y-10974876D02*
X11237838Y-10974876D01*
X11256886Y-10984400D01*
X11266409Y-10993924D01*
X11275933Y-11012971D01*
X11285457Y-11051067D01*
X11285457Y-11098686D01*
X11275933Y-11136781D01*
X11266409Y-11155829D01*
X11256886Y-11165352D01*
X11237838Y-11174876D01*
X11218790Y-11174876D01*
X11199743Y-11165352D01*
X11190219Y-11155829D01*
X11180695Y-11136781D01*
X11171171Y-11098686D01*
X11171171Y-11051067D01*
X11180695Y-11012971D01*
X11190219Y-10993924D01*
X11199743Y-10984400D01*
X11218790Y-10974876D01*
X11475933Y-11174876D02*
X11361648Y-11174876D01*
X11418790Y-11174876D02*
X11418790Y-10974876D01*
X11399743Y-11003448D01*
X11380695Y-11022495D01*
X11361648Y-11032019D01*
X11656886Y-10974876D02*
X11561648Y-10974876D01*
X11552124Y-11070114D01*
X11561648Y-11060590D01*
X11580695Y-11051067D01*
X11628314Y-11051067D01*
X11647362Y-11060590D01*
X11656886Y-11070114D01*
X11666409Y-11089162D01*
X11666409Y-11136781D01*
X11656886Y-11155829D01*
X11647362Y-11165352D01*
X11628314Y-11174876D01*
X11580695Y-11174876D01*
X11561648Y-11165352D01*
X11552124Y-11155829D01*
X11733076Y-10974876D02*
X11866409Y-10974876D01*
X11780695Y-11174876D01*
X11933076Y-10974876D02*
X11933076Y-11012971D01*
X12009267Y-10974876D02*
X12009267Y-11012971D01*
X12304505Y-11251067D02*
X12294981Y-11241543D01*
X12275933Y-11212971D01*
X12266409Y-11193924D01*
X12256886Y-11165352D01*
X12247362Y-11117733D01*
X12247362Y-11079638D01*
X12256886Y-11032019D01*
X12266409Y-11003448D01*
X12275933Y-10984400D01*
X12294981Y-10955829D01*
X12304505Y-10946305D01*
X12371171Y-10993924D02*
X12380695Y-10984400D01*
X12399743Y-10974876D01*
X12447362Y-10974876D01*
X12466409Y-10984400D01*
X12475933Y-10993924D01*
X12485457Y-11012971D01*
X12485457Y-11032019D01*
X12475933Y-11060590D01*
X12361648Y-11174876D01*
X12485457Y-11174876D01*
X12656886Y-10974876D02*
X12618790Y-10974876D01*
X12599743Y-10984400D01*
X12590219Y-10993924D01*
X12571171Y-11022495D01*
X12561648Y-11060590D01*
X12561648Y-11136781D01*
X12571171Y-11155829D01*
X12580695Y-11165352D01*
X12599743Y-11174876D01*
X12637838Y-11174876D01*
X12656886Y-11165352D01*
X12666409Y-11155829D01*
X12675933Y-11136781D01*
X12675933Y-11089162D01*
X12666409Y-11070114D01*
X12656886Y-11060590D01*
X12637838Y-11051067D01*
X12599743Y-11051067D01*
X12580695Y-11060590D01*
X12571171Y-11070114D01*
X12561648Y-11089162D01*
X12914028Y-11174876D02*
X12914028Y-10974876D01*
X12999743Y-11174876D02*
X12999743Y-11070114D01*
X12990219Y-11051067D01*
X12971171Y-11041543D01*
X12942600Y-11041543D01*
X12923552Y-11051067D01*
X12914028Y-11060590D01*
X13123552Y-11174876D02*
X13104505Y-11165352D01*
X13094981Y-11155829D01*
X13085457Y-11136781D01*
X13085457Y-11079638D01*
X13094981Y-11060590D01*
X13104505Y-11051067D01*
X13123552Y-11041543D01*
X13152124Y-11041543D01*
X13171171Y-11051067D01*
X13180695Y-11060590D01*
X13190219Y-11079638D01*
X13190219Y-11136781D01*
X13180695Y-11155829D01*
X13171171Y-11165352D01*
X13152124Y-11174876D01*
X13123552Y-11174876D01*
X13304505Y-11174876D02*
X13285457Y-11165352D01*
X13275933Y-11146305D01*
X13275933Y-10974876D01*
X13456886Y-11165352D02*
X13437838Y-11174876D01*
X13399743Y-11174876D01*
X13380695Y-11165352D01*
X13371171Y-11146305D01*
X13371171Y-11070114D01*
X13380695Y-11051067D01*
X13399743Y-11041543D01*
X13437838Y-11041543D01*
X13456886Y-11051067D01*
X13466409Y-11070114D01*
X13466409Y-11089162D01*
X13371171Y-11108210D01*
X13542600Y-11165352D02*
X13561648Y-11174876D01*
X13599743Y-11174876D01*
X13618790Y-11165352D01*
X13628314Y-11146305D01*
X13628314Y-11136781D01*
X13618790Y-11117733D01*
X13599743Y-11108210D01*
X13571171Y-11108210D01*
X13552124Y-11098686D01*
X13542600Y-11079638D01*
X13542600Y-11070114D01*
X13552124Y-11051067D01*
X13571171Y-11041543D01*
X13599743Y-11041543D01*
X13618790Y-11051067D01*
X13694981Y-11251067D02*
X13704505Y-11241543D01*
X13723552Y-11212971D01*
X13733076Y-11193924D01*
X13742600Y-11165352D01*
X13752124Y-11117733D01*
X13752124Y-11079638D01*
X13742600Y-11032019D01*
X13733076Y-11003448D01*
X13723552Y-10984400D01*
X13704505Y-10955829D01*
X13694981Y-10946305D01*
D13*
X8732600Y-11348400D02*
G75*
G03*
X8732600Y-11348400I-35000J0D01*
G01*
D11*
X9028314Y-11238876D02*
X9047362Y-11238876D01*
X9066410Y-11248400D01*
X9075933Y-11257924D01*
X9085457Y-11276971D01*
X9094981Y-11315067D01*
X9094981Y-11362686D01*
X9085457Y-11400781D01*
X9075933Y-11419828D01*
X9066410Y-11429352D01*
X9047362Y-11438876D01*
X9028314Y-11438876D01*
X9009267Y-11429352D01*
X8999743Y-11419828D01*
X8990219Y-11400781D01*
X8980695Y-11362686D01*
X8980695Y-11315067D01*
X8990219Y-11276971D01*
X8999743Y-11257924D01*
X9009267Y-11248400D01*
X9028314Y-11238876D01*
X9180695Y-11419828D02*
X9190219Y-11429352D01*
X9180695Y-11438876D01*
X9171171Y-11429352D01*
X9180695Y-11419828D01*
X9180695Y-11438876D01*
X9256886Y-11238876D02*
X9390219Y-11238876D01*
X9304505Y-11438876D01*
X9504505Y-11238876D02*
X9523552Y-11238876D01*
X9542600Y-11248400D01*
X9552124Y-11257924D01*
X9561648Y-11276971D01*
X9571171Y-11315067D01*
X9571171Y-11362686D01*
X9561648Y-11400781D01*
X9552124Y-11419828D01*
X9542600Y-11429352D01*
X9523552Y-11438876D01*
X9504505Y-11438876D01*
X9485457Y-11429352D01*
X9475933Y-11419828D01*
X9466410Y-11400781D01*
X9456886Y-11362686D01*
X9456886Y-11315067D01*
X9466410Y-11276971D01*
X9475933Y-11257924D01*
X9485457Y-11248400D01*
X9504505Y-11238876D01*
X9694981Y-11238876D02*
X9714029Y-11238876D01*
X9733076Y-11248400D01*
X9742600Y-11257924D01*
X9752124Y-11276971D01*
X9761648Y-11315067D01*
X9761648Y-11362686D01*
X9752124Y-11400781D01*
X9742600Y-11419828D01*
X9733076Y-11429352D01*
X9714029Y-11438876D01*
X9694981Y-11438876D01*
X9675933Y-11429352D01*
X9666410Y-11419828D01*
X9656886Y-11400781D01*
X9647362Y-11362686D01*
X9647362Y-11315067D01*
X9656886Y-11276971D01*
X9666410Y-11257924D01*
X9675933Y-11248400D01*
X9694981Y-11238876D01*
X9847362Y-11438876D02*
X9847362Y-11305543D01*
X9847362Y-11324590D02*
X9856886Y-11315067D01*
X9875933Y-11305543D01*
X9904505Y-11305543D01*
X9923552Y-11315067D01*
X9933076Y-11334114D01*
X9933076Y-11438876D01*
X9933076Y-11334114D02*
X9942600Y-11315067D01*
X9961648Y-11305543D01*
X9990219Y-11305543D01*
X10009267Y-11315067D01*
X10018790Y-11334114D01*
X10018790Y-11438876D01*
X10114029Y-11438876D02*
X10114029Y-11305543D01*
X10114029Y-11324590D02*
X10123552Y-11315067D01*
X10142600Y-11305543D01*
X10171171Y-11305543D01*
X10190219Y-11315067D01*
X10199743Y-11334114D01*
X10199743Y-11438876D01*
X10199743Y-11334114D02*
X10209267Y-11315067D01*
X10228314Y-11305543D01*
X10256886Y-11305543D01*
X10275933Y-11315067D01*
X10285457Y-11334114D01*
X10285457Y-11438876D01*
X10675933Y-11229352D02*
X10504505Y-11486495D01*
X10933076Y-11238876D02*
X10952124Y-11238876D01*
X10971171Y-11248400D01*
X10980695Y-11257924D01*
X10990219Y-11276971D01*
X10999743Y-11315067D01*
X10999743Y-11362686D01*
X10990219Y-11400781D01*
X10980695Y-11419828D01*
X10971171Y-11429352D01*
X10952124Y-11438876D01*
X10933076Y-11438876D01*
X10914029Y-11429352D01*
X10904505Y-11419828D01*
X10894981Y-11400781D01*
X10885457Y-11362686D01*
X10885457Y-11315067D01*
X10894981Y-11276971D01*
X10904505Y-11257924D01*
X10914029Y-11248400D01*
X10933076Y-11238876D01*
X11085457Y-11419828D02*
X11094981Y-11429352D01*
X11085457Y-11438876D01*
X11075933Y-11429352D01*
X11085457Y-11419828D01*
X11085457Y-11438876D01*
X11218790Y-11238876D02*
X11237838Y-11238876D01*
X11256886Y-11248400D01*
X11266409Y-11257924D01*
X11275933Y-11276971D01*
X11285457Y-11315067D01*
X11285457Y-11362686D01*
X11275933Y-11400781D01*
X11266409Y-11419828D01*
X11256886Y-11429352D01*
X11237838Y-11438876D01*
X11218790Y-11438876D01*
X11199743Y-11429352D01*
X11190219Y-11419828D01*
X11180695Y-11400781D01*
X11171171Y-11362686D01*
X11171171Y-11315067D01*
X11180695Y-11276971D01*
X11190219Y-11257924D01*
X11199743Y-11248400D01*
X11218790Y-11238876D01*
X11361648Y-11257924D02*
X11371171Y-11248400D01*
X11390219Y-11238876D01*
X11437838Y-11238876D01*
X11456886Y-11248400D01*
X11466409Y-11257924D01*
X11475933Y-11276971D01*
X11475933Y-11296019D01*
X11466409Y-11324590D01*
X11352124Y-11438876D01*
X11475933Y-11438876D01*
X11542600Y-11238876D02*
X11675933Y-11238876D01*
X11590219Y-11438876D01*
X11837838Y-11238876D02*
X11799743Y-11238876D01*
X11780695Y-11248400D01*
X11771171Y-11257924D01*
X11752124Y-11286495D01*
X11742600Y-11324590D01*
X11742600Y-11400781D01*
X11752124Y-11419828D01*
X11761648Y-11429352D01*
X11780695Y-11438876D01*
X11818790Y-11438876D01*
X11837838Y-11429352D01*
X11847362Y-11419828D01*
X11856886Y-11400781D01*
X11856886Y-11353162D01*
X11847362Y-11334114D01*
X11837838Y-11324590D01*
X11818790Y-11315067D01*
X11780695Y-11315067D01*
X11761648Y-11324590D01*
X11752124Y-11334114D01*
X11742600Y-11353162D01*
X11933076Y-11238876D02*
X11933076Y-11276971D01*
X12009267Y-11238876D02*
X12009267Y-11276971D01*
X12304505Y-11515067D02*
X12294981Y-11505543D01*
X12275933Y-11476971D01*
X12266409Y-11457924D01*
X12256886Y-11429352D01*
X12247362Y-11381733D01*
X12247362Y-11343638D01*
X12256886Y-11296019D01*
X12266409Y-11267448D01*
X12275933Y-11248400D01*
X12294981Y-11219828D01*
X12304505Y-11210305D01*
X12361648Y-11238876D02*
X12485457Y-11238876D01*
X12418790Y-11315067D01*
X12447362Y-11315067D01*
X12466409Y-11324590D01*
X12475933Y-11334114D01*
X12485457Y-11353162D01*
X12485457Y-11400781D01*
X12475933Y-11419828D01*
X12466409Y-11429352D01*
X12447362Y-11438876D01*
X12390219Y-11438876D01*
X12371171Y-11429352D01*
X12361648Y-11419828D01*
X12723552Y-11438876D02*
X12723552Y-11238876D01*
X12809267Y-11438876D02*
X12809267Y-11334114D01*
X12799743Y-11315067D01*
X12780695Y-11305543D01*
X12752124Y-11305543D01*
X12733076Y-11315067D01*
X12723552Y-11324590D01*
X12933076Y-11438876D02*
X12914028Y-11429352D01*
X12904505Y-11419828D01*
X12894981Y-11400781D01*
X12894981Y-11343638D01*
X12904505Y-11324590D01*
X12914028Y-11315067D01*
X12933076Y-11305543D01*
X12961648Y-11305543D01*
X12980695Y-11315067D01*
X12990219Y-11324590D01*
X12999743Y-11343638D01*
X12999743Y-11400781D01*
X12990219Y-11419828D01*
X12980695Y-11429352D01*
X12961648Y-11438876D01*
X12933076Y-11438876D01*
X13114028Y-11438876D02*
X13094981Y-11429352D01*
X13085457Y-11410305D01*
X13085457Y-11238876D01*
X13266409Y-11429352D02*
X13247362Y-11438876D01*
X13209267Y-11438876D01*
X13190219Y-11429352D01*
X13180695Y-11410305D01*
X13180695Y-11334114D01*
X13190219Y-11315067D01*
X13209267Y-11305543D01*
X13247362Y-11305543D01*
X13266409Y-11315067D01*
X13275933Y-11334114D01*
X13275933Y-11353162D01*
X13180695Y-11372209D01*
X13352124Y-11429352D02*
X13371171Y-11438876D01*
X13409267Y-11438876D01*
X13428314Y-11429352D01*
X13437838Y-11410305D01*
X13437838Y-11400781D01*
X13428314Y-11381733D01*
X13409267Y-11372209D01*
X13380695Y-11372209D01*
X13361648Y-11362686D01*
X13352124Y-11343638D01*
X13352124Y-11334114D01*
X13361648Y-11315067D01*
X13380695Y-11305543D01*
X13409267Y-11305543D01*
X13428314Y-11315067D01*
X13504505Y-11515067D02*
X13514028Y-11505543D01*
X13533076Y-11476971D01*
X13542600Y-11457924D01*
X13552124Y-11429352D01*
X13561648Y-11381733D01*
X13561648Y-11343638D01*
X13552124Y-11296019D01*
X13542600Y-11267448D01*
X13533076Y-11248400D01*
X13514028Y-11219828D01*
X13504505Y-11210305D01*
D14*
X8692600Y-11572400D02*
X8692600Y-11652400D01*
X8652600Y-11612400D02*
X8732600Y-11612400D01*
D11*
X9028314Y-11502876D02*
X9047362Y-11502876D01*
X9066410Y-11512400D01*
X9075933Y-11521924D01*
X9085457Y-11540971D01*
X9094981Y-11579067D01*
X9094981Y-11626686D01*
X9085457Y-11664781D01*
X9075933Y-11683828D01*
X9066410Y-11693352D01*
X9047362Y-11702876D01*
X9028314Y-11702876D01*
X9009267Y-11693352D01*
X8999743Y-11683828D01*
X8990219Y-11664781D01*
X8980695Y-11626686D01*
X8980695Y-11579067D01*
X8990219Y-11540971D01*
X8999743Y-11521924D01*
X9009267Y-11512400D01*
X9028314Y-11502876D01*
X9180695Y-11683828D02*
X9190219Y-11693352D01*
X9180695Y-11702876D01*
X9171171Y-11693352D01*
X9180695Y-11683828D01*
X9180695Y-11702876D01*
X9304505Y-11588590D02*
X9285457Y-11579067D01*
X9275933Y-11569543D01*
X9266410Y-11550495D01*
X9266410Y-11540971D01*
X9275933Y-11521924D01*
X9285457Y-11512400D01*
X9304505Y-11502876D01*
X9342600Y-11502876D01*
X9361648Y-11512400D01*
X9371171Y-11521924D01*
X9380695Y-11540971D01*
X9380695Y-11550495D01*
X9371171Y-11569543D01*
X9361648Y-11579067D01*
X9342600Y-11588590D01*
X9304505Y-11588590D01*
X9285457Y-11598114D01*
X9275933Y-11607638D01*
X9266410Y-11626686D01*
X9266410Y-11664781D01*
X9275933Y-11683828D01*
X9285457Y-11693352D01*
X9304505Y-11702876D01*
X9342600Y-11702876D01*
X9361648Y-11693352D01*
X9371171Y-11683828D01*
X9380695Y-11664781D01*
X9380695Y-11626686D01*
X9371171Y-11607638D01*
X9361648Y-11598114D01*
X9342600Y-11588590D01*
X9504505Y-11502876D02*
X9523552Y-11502876D01*
X9542600Y-11512400D01*
X9552124Y-11521924D01*
X9561648Y-11540971D01*
X9571171Y-11579067D01*
X9571171Y-11626686D01*
X9561648Y-11664781D01*
X9552124Y-11683828D01*
X9542600Y-11693352D01*
X9523552Y-11702876D01*
X9504505Y-11702876D01*
X9485457Y-11693352D01*
X9475933Y-11683828D01*
X9466410Y-11664781D01*
X9456886Y-11626686D01*
X9456886Y-11579067D01*
X9466410Y-11540971D01*
X9475933Y-11521924D01*
X9485457Y-11512400D01*
X9504505Y-11502876D01*
X9694981Y-11502876D02*
X9714029Y-11502876D01*
X9733076Y-11512400D01*
X9742600Y-11521924D01*
X9752124Y-11540971D01*
X9761648Y-11579067D01*
X9761648Y-11626686D01*
X9752124Y-11664781D01*
X9742600Y-11683828D01*
X9733076Y-11693352D01*
X9714029Y-11702876D01*
X9694981Y-11702876D01*
X9675933Y-11693352D01*
X9666410Y-11683828D01*
X9656886Y-11664781D01*
X9647362Y-11626686D01*
X9647362Y-11579067D01*
X9656886Y-11540971D01*
X9666410Y-11521924D01*
X9675933Y-11512400D01*
X9694981Y-11502876D01*
X9847362Y-11702876D02*
X9847362Y-11569543D01*
X9847362Y-11588590D02*
X9856886Y-11579067D01*
X9875933Y-11569543D01*
X9904505Y-11569543D01*
X9923552Y-11579067D01*
X9933076Y-11598114D01*
X9933076Y-11702876D01*
X9933076Y-11598114D02*
X9942600Y-11579067D01*
X9961648Y-11569543D01*
X9990219Y-11569543D01*
X10009267Y-11579067D01*
X10018790Y-11598114D01*
X10018790Y-11702876D01*
X10114029Y-11702876D02*
X10114029Y-11569543D01*
X10114029Y-11588590D02*
X10123552Y-11579067D01*
X10142600Y-11569543D01*
X10171171Y-11569543D01*
X10190219Y-11579067D01*
X10199743Y-11598114D01*
X10199743Y-11702876D01*
X10199743Y-11598114D02*
X10209267Y-11579067D01*
X10228314Y-11569543D01*
X10256886Y-11569543D01*
X10275933Y-11579067D01*
X10285457Y-11598114D01*
X10285457Y-11702876D01*
X10675933Y-11493352D02*
X10504505Y-11750495D01*
X10933076Y-11502876D02*
X10952124Y-11502876D01*
X10971171Y-11512400D01*
X10980695Y-11521924D01*
X10990219Y-11540971D01*
X10999743Y-11579067D01*
X10999743Y-11626686D01*
X10990219Y-11664781D01*
X10980695Y-11683828D01*
X10971171Y-11693352D01*
X10952124Y-11702876D01*
X10933076Y-11702876D01*
X10914029Y-11693352D01*
X10904505Y-11683828D01*
X10894981Y-11664781D01*
X10885457Y-11626686D01*
X10885457Y-11579067D01*
X10894981Y-11540971D01*
X10904505Y-11521924D01*
X10914029Y-11512400D01*
X10933076Y-11502876D01*
X11085457Y-11683828D02*
X11094981Y-11693352D01*
X11085457Y-11702876D01*
X11075933Y-11693352D01*
X11085457Y-11683828D01*
X11085457Y-11702876D01*
X11218790Y-11502876D02*
X11237838Y-11502876D01*
X11256886Y-11512400D01*
X11266409Y-11521924D01*
X11275933Y-11540971D01*
X11285457Y-11579067D01*
X11285457Y-11626686D01*
X11275933Y-11664781D01*
X11266409Y-11683828D01*
X11256886Y-11693352D01*
X11237838Y-11702876D01*
X11218790Y-11702876D01*
X11199743Y-11693352D01*
X11190219Y-11683828D01*
X11180695Y-11664781D01*
X11171171Y-11626686D01*
X11171171Y-11579067D01*
X11180695Y-11540971D01*
X11190219Y-11521924D01*
X11199743Y-11512400D01*
X11218790Y-11502876D01*
X11352124Y-11502876D02*
X11475933Y-11502876D01*
X11409267Y-11579067D01*
X11437838Y-11579067D01*
X11456886Y-11588590D01*
X11466409Y-11598114D01*
X11475933Y-11617162D01*
X11475933Y-11664781D01*
X11466409Y-11683828D01*
X11456886Y-11693352D01*
X11437838Y-11702876D01*
X11380695Y-11702876D01*
X11361648Y-11693352D01*
X11352124Y-11683828D01*
X11666409Y-11702876D02*
X11552124Y-11702876D01*
X11609267Y-11702876D02*
X11609267Y-11502876D01*
X11590219Y-11531448D01*
X11571171Y-11550495D01*
X11552124Y-11560019D01*
X11847362Y-11502876D02*
X11752124Y-11502876D01*
X11742600Y-11598114D01*
X11752124Y-11588590D01*
X11771171Y-11579067D01*
X11818790Y-11579067D01*
X11837838Y-11588590D01*
X11847362Y-11598114D01*
X11856886Y-11617162D01*
X11856886Y-11664781D01*
X11847362Y-11683828D01*
X11837838Y-11693352D01*
X11818790Y-11702876D01*
X11771171Y-11702876D01*
X11752124Y-11693352D01*
X11742600Y-11683828D01*
X11933076Y-11502876D02*
X11933076Y-11540971D01*
X12009267Y-11502876D02*
X12009267Y-11540971D01*
X12304505Y-11779067D02*
X12294981Y-11769543D01*
X12275933Y-11740971D01*
X12266409Y-11721924D01*
X12256886Y-11693352D01*
X12247362Y-11645733D01*
X12247362Y-11607638D01*
X12256886Y-11560019D01*
X12266409Y-11531448D01*
X12275933Y-11512400D01*
X12294981Y-11483828D01*
X12304505Y-11474305D01*
X12371171Y-11521924D02*
X12380695Y-11512400D01*
X12399743Y-11502876D01*
X12447362Y-11502876D01*
X12466409Y-11512400D01*
X12475933Y-11521924D01*
X12485457Y-11540971D01*
X12485457Y-11560019D01*
X12475933Y-11588590D01*
X12361648Y-11702876D01*
X12485457Y-11702876D01*
X12561648Y-11521924D02*
X12571171Y-11512400D01*
X12590219Y-11502876D01*
X12637838Y-11502876D01*
X12656886Y-11512400D01*
X12666409Y-11521924D01*
X12675933Y-11540971D01*
X12675933Y-11560019D01*
X12666409Y-11588590D01*
X12552124Y-11702876D01*
X12675933Y-11702876D01*
X12914028Y-11702876D02*
X12914028Y-11502876D01*
X12999743Y-11702876D02*
X12999743Y-11598114D01*
X12990219Y-11579067D01*
X12971171Y-11569543D01*
X12942600Y-11569543D01*
X12923552Y-11579067D01*
X12914028Y-11588590D01*
X13123552Y-11702876D02*
X13104505Y-11693352D01*
X13094981Y-11683828D01*
X13085457Y-11664781D01*
X13085457Y-11607638D01*
X13094981Y-11588590D01*
X13104505Y-11579067D01*
X13123552Y-11569543D01*
X13152124Y-11569543D01*
X13171171Y-11579067D01*
X13180695Y-11588590D01*
X13190219Y-11607638D01*
X13190219Y-11664781D01*
X13180695Y-11683828D01*
X13171171Y-11693352D01*
X13152124Y-11702876D01*
X13123552Y-11702876D01*
X13304505Y-11702876D02*
X13285457Y-11693352D01*
X13275933Y-11674305D01*
X13275933Y-11502876D01*
X13456886Y-11693352D02*
X13437838Y-11702876D01*
X13399743Y-11702876D01*
X13380695Y-11693352D01*
X13371171Y-11674305D01*
X13371171Y-11598114D01*
X13380695Y-11579067D01*
X13399743Y-11569543D01*
X13437838Y-11569543D01*
X13456886Y-11579067D01*
X13466409Y-11598114D01*
X13466409Y-11617162D01*
X13371171Y-11636209D01*
X13542600Y-11693352D02*
X13561648Y-11702876D01*
X13599743Y-11702876D01*
X13618790Y-11693352D01*
X13628314Y-11674305D01*
X13628314Y-11664781D01*
X13618790Y-11645733D01*
X13599743Y-11636209D01*
X13571171Y-11636209D01*
X13552124Y-11626686D01*
X13542600Y-11607638D01*
X13542600Y-11598114D01*
X13552124Y-11579067D01*
X13571171Y-11569543D01*
X13599743Y-11569543D01*
X13618790Y-11579067D01*
X13694981Y-11779067D02*
X13704505Y-11769543D01*
X13723552Y-11740971D01*
X13733076Y-11721924D01*
X13742600Y-11693352D01*
X13752124Y-11645733D01*
X13752124Y-11607638D01*
X13742600Y-11560019D01*
X13733076Y-11531448D01*
X13723552Y-11512400D01*
X13704505Y-11483828D01*
X13694981Y-11474305D01*
D15*
X8719420Y-11908220D02*
X8719420Y-11844580D01*
X8655780Y-11844580D01*
X8655780Y-11908220D01*
X8719420Y-11908220D01*
D11*
X9028314Y-11766876D02*
X9047362Y-11766876D01*
X9066410Y-11776400D01*
X9075933Y-11785924D01*
X9085457Y-11804971D01*
X9094981Y-11843067D01*
X9094981Y-11890686D01*
X9085457Y-11928781D01*
X9075933Y-11947828D01*
X9066410Y-11957352D01*
X9047362Y-11966876D01*
X9028314Y-11966876D01*
X9009267Y-11957352D01*
X8999743Y-11947828D01*
X8990219Y-11928781D01*
X8980695Y-11890686D01*
X8980695Y-11843067D01*
X8990219Y-11804971D01*
X8999743Y-11785924D01*
X9009267Y-11776400D01*
X9028314Y-11766876D01*
X9180695Y-11947828D02*
X9190219Y-11957352D01*
X9180695Y-11966876D01*
X9171171Y-11957352D01*
X9180695Y-11947828D01*
X9180695Y-11966876D01*
X9285457Y-11966876D02*
X9323552Y-11966876D01*
X9342600Y-11957352D01*
X9352124Y-11947828D01*
X9371171Y-11919257D01*
X9380695Y-11881162D01*
X9380695Y-11804971D01*
X9371171Y-11785924D01*
X9361648Y-11776400D01*
X9342600Y-11766876D01*
X9304505Y-11766876D01*
X9285457Y-11776400D01*
X9275933Y-11785924D01*
X9266410Y-11804971D01*
X9266410Y-11852590D01*
X9275933Y-11871638D01*
X9285457Y-11881162D01*
X9304505Y-11890686D01*
X9342600Y-11890686D01*
X9361648Y-11881162D01*
X9371171Y-11871638D01*
X9380695Y-11852590D01*
X9504505Y-11766876D02*
X9523552Y-11766876D01*
X9542600Y-11776400D01*
X9552124Y-11785924D01*
X9561648Y-11804971D01*
X9571171Y-11843067D01*
X9571171Y-11890686D01*
X9561648Y-11928781D01*
X9552124Y-11947828D01*
X9542600Y-11957352D01*
X9523552Y-11966876D01*
X9504505Y-11966876D01*
X9485457Y-11957352D01*
X9475933Y-11947828D01*
X9466410Y-11928781D01*
X9456886Y-11890686D01*
X9456886Y-11843067D01*
X9466410Y-11804971D01*
X9475933Y-11785924D01*
X9485457Y-11776400D01*
X9504505Y-11766876D01*
X9694981Y-11766876D02*
X9714029Y-11766876D01*
X9733076Y-11776400D01*
X9742600Y-11785924D01*
X9752124Y-11804971D01*
X9761648Y-11843067D01*
X9761648Y-11890686D01*
X9752124Y-11928781D01*
X9742600Y-11947828D01*
X9733076Y-11957352D01*
X9714029Y-11966876D01*
X9694981Y-11966876D01*
X9675933Y-11957352D01*
X9666410Y-11947828D01*
X9656886Y-11928781D01*
X9647362Y-11890686D01*
X9647362Y-11843067D01*
X9656886Y-11804971D01*
X9666410Y-11785924D01*
X9675933Y-11776400D01*
X9694981Y-11766876D01*
X9847362Y-11966876D02*
X9847362Y-11833543D01*
X9847362Y-11852590D02*
X9856886Y-11843067D01*
X9875933Y-11833543D01*
X9904505Y-11833543D01*
X9923552Y-11843067D01*
X9933076Y-11862114D01*
X9933076Y-11966876D01*
X9933076Y-11862114D02*
X9942600Y-11843067D01*
X9961648Y-11833543D01*
X9990219Y-11833543D01*
X10009267Y-11843067D01*
X10018790Y-11862114D01*
X10018790Y-11966876D01*
X10114029Y-11966876D02*
X10114029Y-11833543D01*
X10114029Y-11852590D02*
X10123552Y-11843067D01*
X10142600Y-11833543D01*
X10171171Y-11833543D01*
X10190219Y-11843067D01*
X10199743Y-11862114D01*
X10199743Y-11966876D01*
X10199743Y-11862114D02*
X10209267Y-11843067D01*
X10228314Y-11833543D01*
X10256886Y-11833543D01*
X10275933Y-11843067D01*
X10285457Y-11862114D01*
X10285457Y-11966876D01*
X10675933Y-11757352D02*
X10504505Y-12014495D01*
X10933076Y-11766876D02*
X10952124Y-11766876D01*
X10971171Y-11776400D01*
X10980695Y-11785924D01*
X10990219Y-11804971D01*
X10999743Y-11843067D01*
X10999743Y-11890686D01*
X10990219Y-11928781D01*
X10980695Y-11947828D01*
X10971171Y-11957352D01*
X10952124Y-11966876D01*
X10933076Y-11966876D01*
X10914029Y-11957352D01*
X10904505Y-11947828D01*
X10894981Y-11928781D01*
X10885457Y-11890686D01*
X10885457Y-11843067D01*
X10894981Y-11804971D01*
X10904505Y-11785924D01*
X10914029Y-11776400D01*
X10933076Y-11766876D01*
X11085457Y-11947828D02*
X11094981Y-11957352D01*
X11085457Y-11966876D01*
X11075933Y-11957352D01*
X11085457Y-11947828D01*
X11085457Y-11966876D01*
X11218790Y-11766876D02*
X11237838Y-11766876D01*
X11256886Y-11776400D01*
X11266409Y-11785924D01*
X11275933Y-11804971D01*
X11285457Y-11843067D01*
X11285457Y-11890686D01*
X11275933Y-11928781D01*
X11266409Y-11947828D01*
X11256886Y-11957352D01*
X11237838Y-11966876D01*
X11218790Y-11966876D01*
X11199743Y-11957352D01*
X11190219Y-11947828D01*
X11180695Y-11928781D01*
X11171171Y-11890686D01*
X11171171Y-11843067D01*
X11180695Y-11804971D01*
X11190219Y-11785924D01*
X11199743Y-11776400D01*
X11218790Y-11766876D01*
X11352124Y-11766876D02*
X11475933Y-11766876D01*
X11409267Y-11843067D01*
X11437838Y-11843067D01*
X11456886Y-11852590D01*
X11466409Y-11862114D01*
X11475933Y-11881162D01*
X11475933Y-11928781D01*
X11466409Y-11947828D01*
X11456886Y-11957352D01*
X11437838Y-11966876D01*
X11380695Y-11966876D01*
X11361648Y-11957352D01*
X11352124Y-11947828D01*
X11656886Y-11766876D02*
X11561648Y-11766876D01*
X11552124Y-11862114D01*
X11561648Y-11852590D01*
X11580695Y-11843067D01*
X11628314Y-11843067D01*
X11647362Y-11852590D01*
X11656886Y-11862114D01*
X11666409Y-11881162D01*
X11666409Y-11928781D01*
X11656886Y-11947828D01*
X11647362Y-11957352D01*
X11628314Y-11966876D01*
X11580695Y-11966876D01*
X11561648Y-11957352D01*
X11552124Y-11947828D01*
X11837838Y-11833543D02*
X11837838Y-11966876D01*
X11790219Y-11757352D02*
X11742600Y-11900209D01*
X11866409Y-11900209D01*
X11933076Y-11766876D02*
X11933076Y-11804971D01*
X12009267Y-11766876D02*
X12009267Y-11804971D01*
X12304505Y-12043067D02*
X12294981Y-12033543D01*
X12275933Y-12004971D01*
X12266409Y-11985924D01*
X12256886Y-11957352D01*
X12247362Y-11909733D01*
X12247362Y-11871638D01*
X12256886Y-11824019D01*
X12266409Y-11795448D01*
X12275933Y-11776400D01*
X12294981Y-11747828D01*
X12304505Y-11738305D01*
X12371171Y-11785924D02*
X12380695Y-11776400D01*
X12399743Y-11766876D01*
X12447362Y-11766876D01*
X12466409Y-11776400D01*
X12475933Y-11785924D01*
X12485457Y-11804971D01*
X12485457Y-11824019D01*
X12475933Y-11852590D01*
X12361648Y-11966876D01*
X12485457Y-11966876D01*
X12723552Y-11966876D02*
X12723552Y-11766876D01*
X12809267Y-11966876D02*
X12809267Y-11862114D01*
X12799743Y-11843067D01*
X12780695Y-11833543D01*
X12752124Y-11833543D01*
X12733076Y-11843067D01*
X12723552Y-11852590D01*
X12933076Y-11966876D02*
X12914028Y-11957352D01*
X12904505Y-11947828D01*
X12894981Y-11928781D01*
X12894981Y-11871638D01*
X12904505Y-11852590D01*
X12914028Y-11843067D01*
X12933076Y-11833543D01*
X12961648Y-11833543D01*
X12980695Y-11843067D01*
X12990219Y-11852590D01*
X12999743Y-11871638D01*
X12999743Y-11928781D01*
X12990219Y-11947828D01*
X12980695Y-11957352D01*
X12961648Y-11966876D01*
X12933076Y-11966876D01*
X13114028Y-11966876D02*
X13094981Y-11957352D01*
X13085457Y-11938305D01*
X13085457Y-11766876D01*
X13266409Y-11957352D02*
X13247362Y-11966876D01*
X13209267Y-11966876D01*
X13190219Y-11957352D01*
X13180695Y-11938305D01*
X13180695Y-11862114D01*
X13190219Y-11843067D01*
X13209267Y-11833543D01*
X13247362Y-11833543D01*
X13266409Y-11843067D01*
X13275933Y-11862114D01*
X13275933Y-11881162D01*
X13180695Y-11900209D01*
X13352124Y-11957352D02*
X13371171Y-11966876D01*
X13409267Y-11966876D01*
X13428314Y-11957352D01*
X13437838Y-11938305D01*
X13437838Y-11928781D01*
X13428314Y-11909733D01*
X13409267Y-11900209D01*
X13380695Y-11900209D01*
X13361648Y-11890686D01*
X13352124Y-11871638D01*
X13352124Y-11862114D01*
X13361648Y-11843067D01*
X13380695Y-11833543D01*
X13409267Y-11833543D01*
X13428314Y-11843067D01*
X13504505Y-12043067D02*
X13514028Y-12033543D01*
X13533076Y-12004971D01*
X13542600Y-11985924D01*
X13552124Y-11957352D01*
X13561648Y-11909733D01*
X13561648Y-11871638D01*
X13552124Y-11824019D01*
X13542600Y-11795448D01*
X13533076Y-11776400D01*
X13514028Y-11747828D01*
X13504505Y-11738305D01*
D10*
X8682600Y-12190400D02*
X8732600Y-12140400D01*
X8682600Y-12090400D01*
X8632600Y-12140400D01*
X8682600Y-12190400D01*
D11*
X9094981Y-12230876D02*
X8980695Y-12230876D01*
X9037838Y-12230876D02*
X9037838Y-12030876D01*
X9018790Y-12059448D01*
X8999743Y-12078495D01*
X8980695Y-12088019D01*
X9180695Y-12211828D02*
X9190219Y-12221352D01*
X9180695Y-12230876D01*
X9171171Y-12221352D01*
X9180695Y-12211828D01*
X9180695Y-12230876D01*
X9314029Y-12030876D02*
X9333076Y-12030876D01*
X9352124Y-12040400D01*
X9361648Y-12049924D01*
X9371171Y-12068971D01*
X9380695Y-12107067D01*
X9380695Y-12154686D01*
X9371171Y-12192781D01*
X9361648Y-12211828D01*
X9352124Y-12221352D01*
X9333076Y-12230876D01*
X9314029Y-12230876D01*
X9294981Y-12221352D01*
X9285457Y-12211828D01*
X9275933Y-12192781D01*
X9266410Y-12154686D01*
X9266410Y-12107067D01*
X9275933Y-12068971D01*
X9285457Y-12049924D01*
X9294981Y-12040400D01*
X9314029Y-12030876D01*
X9504505Y-12030876D02*
X9523552Y-12030876D01*
X9542600Y-12040400D01*
X9552124Y-12049924D01*
X9561648Y-12068971D01*
X9571171Y-12107067D01*
X9571171Y-12154686D01*
X9561648Y-12192781D01*
X9552124Y-12211828D01*
X9542600Y-12221352D01*
X9523552Y-12230876D01*
X9504505Y-12230876D01*
X9485457Y-12221352D01*
X9475933Y-12211828D01*
X9466410Y-12192781D01*
X9456886Y-12154686D01*
X9456886Y-12107067D01*
X9466410Y-12068971D01*
X9475933Y-12049924D01*
X9485457Y-12040400D01*
X9504505Y-12030876D01*
X9694981Y-12030876D02*
X9714029Y-12030876D01*
X9733076Y-12040400D01*
X9742600Y-12049924D01*
X9752124Y-12068971D01*
X9761648Y-12107067D01*
X9761648Y-12154686D01*
X9752124Y-12192781D01*
X9742600Y-12211828D01*
X9733076Y-12221352D01*
X9714029Y-12230876D01*
X9694981Y-12230876D01*
X9675933Y-12221352D01*
X9666410Y-12211828D01*
X9656886Y-12192781D01*
X9647362Y-12154686D01*
X9647362Y-12107067D01*
X9656886Y-12068971D01*
X9666410Y-12049924D01*
X9675933Y-12040400D01*
X9694981Y-12030876D01*
X9847362Y-12230876D02*
X9847362Y-12097543D01*
X9847362Y-12116590D02*
X9856886Y-12107067D01*
X9875933Y-12097543D01*
X9904505Y-12097543D01*
X9923552Y-12107067D01*
X9933076Y-12126114D01*
X9933076Y-12230876D01*
X9933076Y-12126114D02*
X9942600Y-12107067D01*
X9961648Y-12097543D01*
X9990219Y-12097543D01*
X10009267Y-12107067D01*
X10018790Y-12126114D01*
X10018790Y-12230876D01*
X10114029Y-12230876D02*
X10114029Y-12097543D01*
X10114029Y-12116590D02*
X10123552Y-12107067D01*
X10142600Y-12097543D01*
X10171171Y-12097543D01*
X10190219Y-12107067D01*
X10199743Y-12126114D01*
X10199743Y-12230876D01*
X10199743Y-12126114D02*
X10209267Y-12107067D01*
X10228314Y-12097543D01*
X10256886Y-12097543D01*
X10275933Y-12107067D01*
X10285457Y-12126114D01*
X10285457Y-12230876D01*
X10675933Y-12021352D02*
X10504505Y-12278495D01*
X10933076Y-12030876D02*
X10952124Y-12030876D01*
X10971171Y-12040400D01*
X10980695Y-12049924D01*
X10990219Y-12068971D01*
X10999743Y-12107067D01*
X10999743Y-12154686D01*
X10990219Y-12192781D01*
X10980695Y-12211828D01*
X10971171Y-12221352D01*
X10952124Y-12230876D01*
X10933076Y-12230876D01*
X10914029Y-12221352D01*
X10904505Y-12211828D01*
X10894981Y-12192781D01*
X10885457Y-12154686D01*
X10885457Y-12107067D01*
X10894981Y-12068971D01*
X10904505Y-12049924D01*
X10914029Y-12040400D01*
X10933076Y-12030876D01*
X11085457Y-12211828D02*
X11094981Y-12221352D01*
X11085457Y-12230876D01*
X11075933Y-12221352D01*
X11085457Y-12211828D01*
X11085457Y-12230876D01*
X11218790Y-12030876D02*
X11237838Y-12030876D01*
X11256886Y-12040400D01*
X11266409Y-12049924D01*
X11275933Y-12068971D01*
X11285457Y-12107067D01*
X11285457Y-12154686D01*
X11275933Y-12192781D01*
X11266409Y-12211828D01*
X11256886Y-12221352D01*
X11237838Y-12230876D01*
X11218790Y-12230876D01*
X11199743Y-12221352D01*
X11190219Y-12211828D01*
X11180695Y-12192781D01*
X11171171Y-12154686D01*
X11171171Y-12107067D01*
X11180695Y-12068971D01*
X11190219Y-12049924D01*
X11199743Y-12040400D01*
X11218790Y-12030876D01*
X11352124Y-12030876D02*
X11475933Y-12030876D01*
X11409267Y-12107067D01*
X11437838Y-12107067D01*
X11456886Y-12116590D01*
X11466409Y-12126114D01*
X11475933Y-12145162D01*
X11475933Y-12192781D01*
X11466409Y-12211828D01*
X11456886Y-12221352D01*
X11437838Y-12230876D01*
X11380695Y-12230876D01*
X11361648Y-12221352D01*
X11352124Y-12211828D01*
X11571171Y-12230876D02*
X11609267Y-12230876D01*
X11628314Y-12221352D01*
X11637838Y-12211828D01*
X11656886Y-12183257D01*
X11666409Y-12145162D01*
X11666409Y-12068971D01*
X11656886Y-12049924D01*
X11647362Y-12040400D01*
X11628314Y-12030876D01*
X11590219Y-12030876D01*
X11571171Y-12040400D01*
X11561648Y-12049924D01*
X11552124Y-12068971D01*
X11552124Y-12116590D01*
X11561648Y-12135638D01*
X11571171Y-12145162D01*
X11590219Y-12154686D01*
X11628314Y-12154686D01*
X11647362Y-12145162D01*
X11656886Y-12135638D01*
X11666409Y-12116590D01*
X11837838Y-12097543D02*
X11837838Y-12230876D01*
X11790219Y-12021352D02*
X11742600Y-12164209D01*
X11866409Y-12164209D01*
X11933076Y-12030876D02*
X11933076Y-12068971D01*
X12009267Y-12030876D02*
X12009267Y-12068971D01*
X12304505Y-12307067D02*
X12294981Y-12297543D01*
X12275933Y-12268971D01*
X12266409Y-12249924D01*
X12256886Y-12221352D01*
X12247362Y-12173733D01*
X12247362Y-12135638D01*
X12256886Y-12088019D01*
X12266409Y-12059448D01*
X12275933Y-12040400D01*
X12294981Y-12011828D01*
X12304505Y-12002305D01*
X12409267Y-12116590D02*
X12390219Y-12107067D01*
X12380695Y-12097543D01*
X12371171Y-12078495D01*
X12371171Y-12068971D01*
X12380695Y-12049924D01*
X12390219Y-12040400D01*
X12409267Y-12030876D01*
X12447362Y-12030876D01*
X12466409Y-12040400D01*
X12475933Y-12049924D01*
X12485457Y-12068971D01*
X12485457Y-12078495D01*
X12475933Y-12097543D01*
X12466409Y-12107067D01*
X12447362Y-12116590D01*
X12409267Y-12116590D01*
X12390219Y-12126114D01*
X12380695Y-12135638D01*
X12371171Y-12154686D01*
X12371171Y-12192781D01*
X12380695Y-12211828D01*
X12390219Y-12221352D01*
X12409267Y-12230876D01*
X12447362Y-12230876D01*
X12466409Y-12221352D01*
X12475933Y-12211828D01*
X12485457Y-12192781D01*
X12485457Y-12154686D01*
X12475933Y-12135638D01*
X12466409Y-12126114D01*
X12447362Y-12116590D01*
X12723552Y-12230876D02*
X12723552Y-12030876D01*
X12809267Y-12230876D02*
X12809267Y-12126114D01*
X12799743Y-12107067D01*
X12780695Y-12097543D01*
X12752124Y-12097543D01*
X12733076Y-12107067D01*
X12723552Y-12116590D01*
X12933076Y-12230876D02*
X12914028Y-12221352D01*
X12904505Y-12211828D01*
X12894981Y-12192781D01*
X12894981Y-12135638D01*
X12904505Y-12116590D01*
X12914028Y-12107067D01*
X12933076Y-12097543D01*
X12961648Y-12097543D01*
X12980695Y-12107067D01*
X12990219Y-12116590D01*
X12999743Y-12135638D01*
X12999743Y-12192781D01*
X12990219Y-12211828D01*
X12980695Y-12221352D01*
X12961648Y-12230876D01*
X12933076Y-12230876D01*
X13114028Y-12230876D02*
X13094981Y-12221352D01*
X13085457Y-12202305D01*
X13085457Y-12030876D01*
X13266409Y-12221352D02*
X13247362Y-12230876D01*
X13209267Y-12230876D01*
X13190219Y-12221352D01*
X13180695Y-12202305D01*
X13180695Y-12126114D01*
X13190219Y-12107067D01*
X13209267Y-12097543D01*
X13247362Y-12097543D01*
X13266409Y-12107067D01*
X13275933Y-12126114D01*
X13275933Y-12145162D01*
X13180695Y-12164209D01*
X13352124Y-12221352D02*
X13371171Y-12230876D01*
X13409267Y-12230876D01*
X13428314Y-12221352D01*
X13437838Y-12202305D01*
X13437838Y-12192781D01*
X13428314Y-12173733D01*
X13409267Y-12164209D01*
X13380695Y-12164209D01*
X13361648Y-12154686D01*
X13352124Y-12135638D01*
X13352124Y-12126114D01*
X13361648Y-12107067D01*
X13380695Y-12097543D01*
X13409267Y-12097543D01*
X13428314Y-12107067D01*
X13504505Y-12307067D02*
X13514028Y-12297543D01*
X13533076Y-12268971D01*
X13542600Y-12249924D01*
X13552124Y-12221352D01*
X13561648Y-12173733D01*
X13561648Y-12135638D01*
X13552124Y-12088019D01*
X13542600Y-12059448D01*
X13533076Y-12040400D01*
X13514028Y-12011828D01*
X13504505Y-12002305D01*
D16*
X8622600Y-12349400D02*
X8732600Y-12459400D01*
X8732600Y-12349400D02*
X8622600Y-12459400D01*
X8732600Y-12404400D02*
G75*
G03*
X8732600Y-12404400I-55000J0D01*
G01*
D11*
X9094981Y-12494876D02*
X8980695Y-12494876D01*
X9037838Y-12494876D02*
X9037838Y-12294876D01*
X9018790Y-12323448D01*
X8999743Y-12342495D01*
X8980695Y-12352019D01*
X9180695Y-12475828D02*
X9190219Y-12485352D01*
X9180695Y-12494876D01*
X9171171Y-12485352D01*
X9180695Y-12475828D01*
X9180695Y-12494876D01*
X9380695Y-12494876D02*
X9266410Y-12494876D01*
X9323552Y-12494876D02*
X9323552Y-12294876D01*
X9304505Y-12323448D01*
X9285457Y-12342495D01*
X9266410Y-12352019D01*
X9504505Y-12294876D02*
X9523552Y-12294876D01*
X9542600Y-12304400D01*
X9552124Y-12313924D01*
X9561648Y-12332971D01*
X9571171Y-12371067D01*
X9571171Y-12418686D01*
X9561648Y-12456781D01*
X9552124Y-12475828D01*
X9542600Y-12485352D01*
X9523552Y-12494876D01*
X9504505Y-12494876D01*
X9485457Y-12485352D01*
X9475933Y-12475828D01*
X9466410Y-12456781D01*
X9456886Y-12418686D01*
X9456886Y-12371067D01*
X9466410Y-12332971D01*
X9475933Y-12313924D01*
X9485457Y-12304400D01*
X9504505Y-12294876D01*
X9694981Y-12294876D02*
X9714029Y-12294876D01*
X9733076Y-12304400D01*
X9742600Y-12313924D01*
X9752124Y-12332971D01*
X9761648Y-12371067D01*
X9761648Y-12418686D01*
X9752124Y-12456781D01*
X9742600Y-12475828D01*
X9733076Y-12485352D01*
X9714029Y-12494876D01*
X9694981Y-12494876D01*
X9675933Y-12485352D01*
X9666410Y-12475828D01*
X9656886Y-12456781D01*
X9647362Y-12418686D01*
X9647362Y-12371067D01*
X9656886Y-12332971D01*
X9666410Y-12313924D01*
X9675933Y-12304400D01*
X9694981Y-12294876D01*
X9847362Y-12494876D02*
X9847362Y-12361543D01*
X9847362Y-12380590D02*
X9856886Y-12371067D01*
X9875933Y-12361543D01*
X9904505Y-12361543D01*
X9923552Y-12371067D01*
X9933076Y-12390114D01*
X9933076Y-12494876D01*
X9933076Y-12390114D02*
X9942600Y-12371067D01*
X9961648Y-12361543D01*
X9990219Y-12361543D01*
X10009267Y-12371067D01*
X10018790Y-12390114D01*
X10018790Y-12494876D01*
X10114029Y-12494876D02*
X10114029Y-12361543D01*
X10114029Y-12380590D02*
X10123552Y-12371067D01*
X10142600Y-12361543D01*
X10171171Y-12361543D01*
X10190219Y-12371067D01*
X10199743Y-12390114D01*
X10199743Y-12494876D01*
X10199743Y-12390114D02*
X10209267Y-12371067D01*
X10228314Y-12361543D01*
X10256886Y-12361543D01*
X10275933Y-12371067D01*
X10285457Y-12390114D01*
X10285457Y-12494876D01*
X10675933Y-12285352D02*
X10504505Y-12542495D01*
X10933076Y-12294876D02*
X10952124Y-12294876D01*
X10971171Y-12304400D01*
X10980695Y-12313924D01*
X10990219Y-12332971D01*
X10999743Y-12371067D01*
X10999743Y-12418686D01*
X10990219Y-12456781D01*
X10980695Y-12475828D01*
X10971171Y-12485352D01*
X10952124Y-12494876D01*
X10933076Y-12494876D01*
X10914029Y-12485352D01*
X10904505Y-12475828D01*
X10894981Y-12456781D01*
X10885457Y-12418686D01*
X10885457Y-12371067D01*
X10894981Y-12332971D01*
X10904505Y-12313924D01*
X10914029Y-12304400D01*
X10933076Y-12294876D01*
X11085457Y-12475828D02*
X11094981Y-12485352D01*
X11085457Y-12494876D01*
X11075933Y-12485352D01*
X11085457Y-12475828D01*
X11085457Y-12494876D01*
X11218790Y-12294876D02*
X11237838Y-12294876D01*
X11256886Y-12304400D01*
X11266409Y-12313924D01*
X11275933Y-12332971D01*
X11285457Y-12371067D01*
X11285457Y-12418686D01*
X11275933Y-12456781D01*
X11266409Y-12475828D01*
X11256886Y-12485352D01*
X11237838Y-12494876D01*
X11218790Y-12494876D01*
X11199743Y-12485352D01*
X11190219Y-12475828D01*
X11180695Y-12456781D01*
X11171171Y-12418686D01*
X11171171Y-12371067D01*
X11180695Y-12332971D01*
X11190219Y-12313924D01*
X11199743Y-12304400D01*
X11218790Y-12294876D01*
X11456886Y-12361543D02*
X11456886Y-12494876D01*
X11409267Y-12285352D02*
X11361648Y-12428209D01*
X11485457Y-12428209D01*
X11542600Y-12294876D02*
X11666409Y-12294876D01*
X11599743Y-12371067D01*
X11628314Y-12371067D01*
X11647362Y-12380590D01*
X11656886Y-12390114D01*
X11666409Y-12409162D01*
X11666409Y-12456781D01*
X11656886Y-12475828D01*
X11647362Y-12485352D01*
X11628314Y-12494876D01*
X11571171Y-12494876D01*
X11552124Y-12485352D01*
X11542600Y-12475828D01*
X11733076Y-12294876D02*
X11856886Y-12294876D01*
X11790219Y-12371067D01*
X11818790Y-12371067D01*
X11837838Y-12380590D01*
X11847362Y-12390114D01*
X11856886Y-12409162D01*
X11856886Y-12456781D01*
X11847362Y-12475828D01*
X11837838Y-12485352D01*
X11818790Y-12494876D01*
X11761648Y-12494876D01*
X11742600Y-12485352D01*
X11733076Y-12475828D01*
X11933076Y-12294876D02*
X11933076Y-12332971D01*
X12009267Y-12294876D02*
X12009267Y-12332971D01*
X12304505Y-12571067D02*
X12294981Y-12561543D01*
X12275933Y-12532971D01*
X12266409Y-12513924D01*
X12256886Y-12485352D01*
X12247362Y-12437733D01*
X12247362Y-12399638D01*
X12256886Y-12352019D01*
X12266409Y-12323448D01*
X12275933Y-12304400D01*
X12294981Y-12275828D01*
X12304505Y-12266305D01*
X12361648Y-12294876D02*
X12485457Y-12294876D01*
X12418790Y-12371067D01*
X12447362Y-12371067D01*
X12466409Y-12380590D01*
X12475933Y-12390114D01*
X12485457Y-12409162D01*
X12485457Y-12456781D01*
X12475933Y-12475828D01*
X12466409Y-12485352D01*
X12447362Y-12494876D01*
X12390219Y-12494876D01*
X12371171Y-12485352D01*
X12361648Y-12475828D01*
X12723552Y-12494876D02*
X12723552Y-12294876D01*
X12809267Y-12494876D02*
X12809267Y-12390114D01*
X12799743Y-12371067D01*
X12780695Y-12361543D01*
X12752124Y-12361543D01*
X12733076Y-12371067D01*
X12723552Y-12380590D01*
X12933076Y-12494876D02*
X12914028Y-12485352D01*
X12904505Y-12475828D01*
X12894981Y-12456781D01*
X12894981Y-12399638D01*
X12904505Y-12380590D01*
X12914028Y-12371067D01*
X12933076Y-12361543D01*
X12961648Y-12361543D01*
X12980695Y-12371067D01*
X12990219Y-12380590D01*
X12999743Y-12399638D01*
X12999743Y-12456781D01*
X12990219Y-12475828D01*
X12980695Y-12485352D01*
X12961648Y-12494876D01*
X12933076Y-12494876D01*
X13114028Y-12494876D02*
X13094981Y-12485352D01*
X13085457Y-12466305D01*
X13085457Y-12294876D01*
X13266409Y-12485352D02*
X13247362Y-12494876D01*
X13209267Y-12494876D01*
X13190219Y-12485352D01*
X13180695Y-12466305D01*
X13180695Y-12390114D01*
X13190219Y-12371067D01*
X13209267Y-12361543D01*
X13247362Y-12361543D01*
X13266409Y-12371067D01*
X13275933Y-12390114D01*
X13275933Y-12409162D01*
X13180695Y-12428209D01*
X13352124Y-12485352D02*
X13371171Y-12494876D01*
X13409267Y-12494876D01*
X13428314Y-12485352D01*
X13437838Y-12466305D01*
X13437838Y-12456781D01*
X13428314Y-12437733D01*
X13409267Y-12428209D01*
X13380695Y-12428209D01*
X13361648Y-12418686D01*
X13352124Y-12399638D01*
X13352124Y-12390114D01*
X13361648Y-12371067D01*
X13380695Y-12361543D01*
X13409267Y-12361543D01*
X13428314Y-12371067D01*
X13504505Y-12571067D02*
X13514028Y-12561543D01*
X13533076Y-12532971D01*
X13542600Y-12513924D01*
X13552124Y-12485352D01*
X13561648Y-12437733D01*
X13561648Y-12399638D01*
X13552124Y-12352019D01*
X13542600Y-12323448D01*
X13533076Y-12304400D01*
X13514028Y-12275828D01*
X13504505Y-12266305D01*
D17*
X8592600Y-12598400D02*
X8732600Y-12738400D01*
X8732600Y-12598400D02*
X8592600Y-12738400D01*
X8662600Y-12598400D02*
X8662600Y-12738400D01*
X8592600Y-12668400D02*
X8732600Y-12668400D01*
D11*
X9094981Y-12758876D02*
X8980695Y-12758876D01*
X9037838Y-12758876D02*
X9037838Y-12558876D01*
X9018790Y-12587448D01*
X8999743Y-12606495D01*
X8980695Y-12616019D01*
X9180695Y-12739828D02*
X9190219Y-12749352D01*
X9180695Y-12758876D01*
X9171171Y-12749352D01*
X9180695Y-12739828D01*
X9180695Y-12758876D01*
X9361648Y-12625543D02*
X9361648Y-12758876D01*
X9314029Y-12549352D02*
X9266410Y-12692209D01*
X9390219Y-12692209D01*
X9504505Y-12558876D02*
X9523552Y-12558876D01*
X9542600Y-12568400D01*
X9552124Y-12577924D01*
X9561648Y-12596971D01*
X9571171Y-12635067D01*
X9571171Y-12682686D01*
X9561648Y-12720781D01*
X9552124Y-12739828D01*
X9542600Y-12749352D01*
X9523552Y-12758876D01*
X9504505Y-12758876D01*
X9485457Y-12749352D01*
X9475933Y-12739828D01*
X9466410Y-12720781D01*
X9456886Y-12682686D01*
X9456886Y-12635067D01*
X9466410Y-12596971D01*
X9475933Y-12577924D01*
X9485457Y-12568400D01*
X9504505Y-12558876D01*
X9694981Y-12558876D02*
X9714029Y-12558876D01*
X9733076Y-12568400D01*
X9742600Y-12577924D01*
X9752124Y-12596971D01*
X9761648Y-12635067D01*
X9761648Y-12682686D01*
X9752124Y-12720781D01*
X9742600Y-12739828D01*
X9733076Y-12749352D01*
X9714029Y-12758876D01*
X9694981Y-12758876D01*
X9675933Y-12749352D01*
X9666410Y-12739828D01*
X9656886Y-12720781D01*
X9647362Y-12682686D01*
X9647362Y-12635067D01*
X9656886Y-12596971D01*
X9666410Y-12577924D01*
X9675933Y-12568400D01*
X9694981Y-12558876D01*
X9847362Y-12758876D02*
X9847362Y-12625543D01*
X9847362Y-12644590D02*
X9856886Y-12635067D01*
X9875933Y-12625543D01*
X9904505Y-12625543D01*
X9923552Y-12635067D01*
X9933076Y-12654114D01*
X9933076Y-12758876D01*
X9933076Y-12654114D02*
X9942600Y-12635067D01*
X9961648Y-12625543D01*
X9990219Y-12625543D01*
X10009267Y-12635067D01*
X10018790Y-12654114D01*
X10018790Y-12758876D01*
X10114029Y-12758876D02*
X10114029Y-12625543D01*
X10114029Y-12644590D02*
X10123552Y-12635067D01*
X10142600Y-12625543D01*
X10171171Y-12625543D01*
X10190219Y-12635067D01*
X10199743Y-12654114D01*
X10199743Y-12758876D01*
X10199743Y-12654114D02*
X10209267Y-12635067D01*
X10228314Y-12625543D01*
X10256886Y-12625543D01*
X10275933Y-12635067D01*
X10285457Y-12654114D01*
X10285457Y-12758876D01*
X10675933Y-12549352D02*
X10504505Y-12806495D01*
X10933076Y-12558876D02*
X10952124Y-12558876D01*
X10971171Y-12568400D01*
X10980695Y-12577924D01*
X10990219Y-12596971D01*
X10999743Y-12635067D01*
X10999743Y-12682686D01*
X10990219Y-12720781D01*
X10980695Y-12739828D01*
X10971171Y-12749352D01*
X10952124Y-12758876D01*
X10933076Y-12758876D01*
X10914029Y-12749352D01*
X10904505Y-12739828D01*
X10894981Y-12720781D01*
X10885457Y-12682686D01*
X10885457Y-12635067D01*
X10894981Y-12596971D01*
X10904505Y-12577924D01*
X10914029Y-12568400D01*
X10933076Y-12558876D01*
X11085457Y-12739828D02*
X11094981Y-12749352D01*
X11085457Y-12758876D01*
X11075933Y-12749352D01*
X11085457Y-12739828D01*
X11085457Y-12758876D01*
X11218790Y-12558876D02*
X11237838Y-12558876D01*
X11256886Y-12568400D01*
X11266409Y-12577924D01*
X11275933Y-12596971D01*
X11285457Y-12635067D01*
X11285457Y-12682686D01*
X11275933Y-12720781D01*
X11266409Y-12739828D01*
X11256886Y-12749352D01*
X11237838Y-12758876D01*
X11218790Y-12758876D01*
X11199743Y-12749352D01*
X11190219Y-12739828D01*
X11180695Y-12720781D01*
X11171171Y-12682686D01*
X11171171Y-12635067D01*
X11180695Y-12596971D01*
X11190219Y-12577924D01*
X11199743Y-12568400D01*
X11218790Y-12558876D01*
X11466409Y-12558876D02*
X11371171Y-12558876D01*
X11361648Y-12654114D01*
X11371171Y-12644590D01*
X11390219Y-12635067D01*
X11437838Y-12635067D01*
X11456886Y-12644590D01*
X11466409Y-12654114D01*
X11475933Y-12673162D01*
X11475933Y-12720781D01*
X11466409Y-12739828D01*
X11456886Y-12749352D01*
X11437838Y-12758876D01*
X11390219Y-12758876D01*
X11371171Y-12749352D01*
X11361648Y-12739828D01*
X11656886Y-12558876D02*
X11561648Y-12558876D01*
X11552124Y-12654114D01*
X11561648Y-12644590D01*
X11580695Y-12635067D01*
X11628314Y-12635067D01*
X11647362Y-12644590D01*
X11656886Y-12654114D01*
X11666409Y-12673162D01*
X11666409Y-12720781D01*
X11656886Y-12739828D01*
X11647362Y-12749352D01*
X11628314Y-12758876D01*
X11580695Y-12758876D01*
X11561648Y-12749352D01*
X11552124Y-12739828D01*
X11856886Y-12758876D02*
X11742600Y-12758876D01*
X11799743Y-12758876D02*
X11799743Y-12558876D01*
X11780695Y-12587448D01*
X11761648Y-12606495D01*
X11742600Y-12616019D01*
X11933076Y-12558876D02*
X11933076Y-12596971D01*
X12009267Y-12558876D02*
X12009267Y-12596971D01*
X12304505Y-12835067D02*
X12294981Y-12825543D01*
X12275933Y-12796971D01*
X12266409Y-12777924D01*
X12256886Y-12749352D01*
X12247362Y-12701733D01*
X12247362Y-12663638D01*
X12256886Y-12616019D01*
X12266409Y-12587448D01*
X12275933Y-12568400D01*
X12294981Y-12539828D01*
X12304505Y-12530305D01*
X12371171Y-12577924D02*
X12380695Y-12568400D01*
X12399743Y-12558876D01*
X12447362Y-12558876D01*
X12466409Y-12568400D01*
X12475933Y-12577924D01*
X12485457Y-12596971D01*
X12485457Y-12616019D01*
X12475933Y-12644590D01*
X12361648Y-12758876D01*
X12485457Y-12758876D01*
X12723552Y-12758876D02*
X12723552Y-12558876D01*
X12809267Y-12758876D02*
X12809267Y-12654114D01*
X12799743Y-12635067D01*
X12780695Y-12625543D01*
X12752124Y-12625543D01*
X12733076Y-12635067D01*
X12723552Y-12644590D01*
X12933076Y-12758876D02*
X12914028Y-12749352D01*
X12904505Y-12739828D01*
X12894981Y-12720781D01*
X12894981Y-12663638D01*
X12904505Y-12644590D01*
X12914028Y-12635067D01*
X12933076Y-12625543D01*
X12961648Y-12625543D01*
X12980695Y-12635067D01*
X12990219Y-12644590D01*
X12999743Y-12663638D01*
X12999743Y-12720781D01*
X12990219Y-12739828D01*
X12980695Y-12749352D01*
X12961648Y-12758876D01*
X12933076Y-12758876D01*
X13114028Y-12758876D02*
X13094981Y-12749352D01*
X13085457Y-12730305D01*
X13085457Y-12558876D01*
X13266409Y-12749352D02*
X13247362Y-12758876D01*
X13209267Y-12758876D01*
X13190219Y-12749352D01*
X13180695Y-12730305D01*
X13180695Y-12654114D01*
X13190219Y-12635067D01*
X13209267Y-12625543D01*
X13247362Y-12625543D01*
X13266409Y-12635067D01*
X13275933Y-12654114D01*
X13275933Y-12673162D01*
X13180695Y-12692209D01*
X13352124Y-12749352D02*
X13371171Y-12758876D01*
X13409267Y-12758876D01*
X13428314Y-12749352D01*
X13437838Y-12730305D01*
X13437838Y-12720781D01*
X13428314Y-12701733D01*
X13409267Y-12692209D01*
X13380695Y-12692209D01*
X13361648Y-12682686D01*
X13352124Y-12663638D01*
X13352124Y-12654114D01*
X13361648Y-12635067D01*
X13380695Y-12625543D01*
X13409267Y-12625543D01*
X13428314Y-12635067D01*
X13504505Y-12835067D02*
X13514028Y-12825543D01*
X13533076Y-12796971D01*
X13542600Y-12777924D01*
X13552124Y-12749352D01*
X13561648Y-12701733D01*
X13561648Y-12663638D01*
X13552124Y-12616019D01*
X13542600Y-12587448D01*
X13533076Y-12568400D01*
X13514028Y-12539828D01*
X13504505Y-12530305D01*
X8532600Y-12832400D02*
X8732600Y-13032400D01*
X8732600Y-12832400D02*
X8532600Y-13032400D01*
X8703311Y-13003111D02*
X8703311Y-12861689D01*
X8561889Y-12861689D01*
X8561889Y-13003111D01*
X8703311Y-13003111D01*
X8971171Y-12822876D02*
X9094981Y-12822876D01*
X9028314Y-12899067D01*
X9056886Y-12899067D01*
X9075933Y-12908590D01*
X9085457Y-12918114D01*
X9094981Y-12937162D01*
X9094981Y-12984781D01*
X9085457Y-13003828D01*
X9075933Y-13013352D01*
X9056886Y-13022876D01*
X8999743Y-13022876D01*
X8980695Y-13013352D01*
X8971171Y-13003828D01*
X9180695Y-13003828D02*
X9190219Y-13013352D01*
X9180695Y-13022876D01*
X9171171Y-13013352D01*
X9180695Y-13003828D01*
X9180695Y-13022876D01*
X9371171Y-12822876D02*
X9275933Y-12822876D01*
X9266410Y-12918114D01*
X9275933Y-12908590D01*
X9294981Y-12899067D01*
X9342600Y-12899067D01*
X9361648Y-12908590D01*
X9371171Y-12918114D01*
X9380695Y-12937162D01*
X9380695Y-12984781D01*
X9371171Y-13003828D01*
X9361648Y-13013352D01*
X9342600Y-13022876D01*
X9294981Y-13022876D01*
X9275933Y-13013352D01*
X9266410Y-13003828D01*
X9504505Y-12822876D02*
X9523552Y-12822876D01*
X9542600Y-12832400D01*
X9552124Y-12841924D01*
X9561648Y-12860971D01*
X9571171Y-12899067D01*
X9571171Y-12946686D01*
X9561648Y-12984781D01*
X9552124Y-13003828D01*
X9542600Y-13013352D01*
X9523552Y-13022876D01*
X9504505Y-13022876D01*
X9485457Y-13013352D01*
X9475933Y-13003828D01*
X9466410Y-12984781D01*
X9456886Y-12946686D01*
X9456886Y-12899067D01*
X9466410Y-12860971D01*
X9475933Y-12841924D01*
X9485457Y-12832400D01*
X9504505Y-12822876D01*
X9694981Y-12822876D02*
X9714029Y-12822876D01*
X9733076Y-12832400D01*
X9742600Y-12841924D01*
X9752124Y-12860971D01*
X9761648Y-12899067D01*
X9761648Y-12946686D01*
X9752124Y-12984781D01*
X9742600Y-13003828D01*
X9733076Y-13013352D01*
X9714029Y-13022876D01*
X9694981Y-13022876D01*
X9675933Y-13013352D01*
X9666410Y-13003828D01*
X9656886Y-12984781D01*
X9647362Y-12946686D01*
X9647362Y-12899067D01*
X9656886Y-12860971D01*
X9666410Y-12841924D01*
X9675933Y-12832400D01*
X9694981Y-12822876D01*
X9847362Y-13022876D02*
X9847362Y-12889543D01*
X9847362Y-12908590D02*
X9856886Y-12899067D01*
X9875933Y-12889543D01*
X9904505Y-12889543D01*
X9923552Y-12899067D01*
X9933076Y-12918114D01*
X9933076Y-13022876D01*
X9933076Y-12918114D02*
X9942600Y-12899067D01*
X9961648Y-12889543D01*
X9990219Y-12889543D01*
X10009267Y-12899067D01*
X10018790Y-12918114D01*
X10018790Y-13022876D01*
X10114029Y-13022876D02*
X10114029Y-12889543D01*
X10114029Y-12908590D02*
X10123552Y-12899067D01*
X10142600Y-12889543D01*
X10171171Y-12889543D01*
X10190219Y-12899067D01*
X10199743Y-12918114D01*
X10199743Y-13022876D01*
X10199743Y-12918114D02*
X10209267Y-12899067D01*
X10228314Y-12889543D01*
X10256886Y-12889543D01*
X10275933Y-12899067D01*
X10285457Y-12918114D01*
X10285457Y-13022876D01*
X10675933Y-12813352D02*
X10504505Y-13070495D01*
X10933076Y-12822876D02*
X10952124Y-12822876D01*
X10971171Y-12832400D01*
X10980695Y-12841924D01*
X10990219Y-12860971D01*
X10999743Y-12899067D01*
X10999743Y-12946686D01*
X10990219Y-12984781D01*
X10980695Y-13003828D01*
X10971171Y-13013352D01*
X10952124Y-13022876D01*
X10933076Y-13022876D01*
X10914029Y-13013352D01*
X10904505Y-13003828D01*
X10894981Y-12984781D01*
X10885457Y-12946686D01*
X10885457Y-12899067D01*
X10894981Y-12860971D01*
X10904505Y-12841924D01*
X10914029Y-12832400D01*
X10933076Y-12822876D01*
X11085457Y-13003828D02*
X11094981Y-13013352D01*
X11085457Y-13022876D01*
X11075933Y-13013352D01*
X11085457Y-13003828D01*
X11085457Y-13022876D01*
X11285457Y-13022876D02*
X11171171Y-13022876D01*
X11228314Y-13022876D02*
X11228314Y-12822876D01*
X11209267Y-12851448D01*
X11190219Y-12870495D01*
X11171171Y-12880019D01*
X11352124Y-12822876D02*
X11475933Y-12822876D01*
X11409267Y-12899067D01*
X11437838Y-12899067D01*
X11456886Y-12908590D01*
X11466409Y-12918114D01*
X11475933Y-12937162D01*
X11475933Y-12984781D01*
X11466409Y-13003828D01*
X11456886Y-13013352D01*
X11437838Y-13022876D01*
X11380695Y-13022876D01*
X11361648Y-13013352D01*
X11352124Y-13003828D01*
X11542600Y-12822876D02*
X11675933Y-12822876D01*
X11590219Y-13022876D01*
X11780695Y-12908590D02*
X11761648Y-12899067D01*
X11752124Y-12889543D01*
X11742600Y-12870495D01*
X11742600Y-12860971D01*
X11752124Y-12841924D01*
X11761648Y-12832400D01*
X11780695Y-12822876D01*
X11818790Y-12822876D01*
X11837838Y-12832400D01*
X11847362Y-12841924D01*
X11856886Y-12860971D01*
X11856886Y-12870495D01*
X11847362Y-12889543D01*
X11837838Y-12899067D01*
X11818790Y-12908590D01*
X11780695Y-12908590D01*
X11761648Y-12918114D01*
X11752124Y-12927638D01*
X11742600Y-12946686D01*
X11742600Y-12984781D01*
X11752124Y-13003828D01*
X11761648Y-13013352D01*
X11780695Y-13022876D01*
X11818790Y-13022876D01*
X11837838Y-13013352D01*
X11847362Y-13003828D01*
X11856886Y-12984781D01*
X11856886Y-12946686D01*
X11847362Y-12927638D01*
X11837838Y-12918114D01*
X11818790Y-12908590D01*
X11933076Y-12822876D02*
X11933076Y-12860971D01*
X12009267Y-12822876D02*
X12009267Y-12860971D01*
X12304505Y-13099067D02*
X12294981Y-13089543D01*
X12275933Y-13060971D01*
X12266409Y-13041924D01*
X12256886Y-13013352D01*
X12247362Y-12965733D01*
X12247362Y-12927638D01*
X12256886Y-12880019D01*
X12266409Y-12851448D01*
X12275933Y-12832400D01*
X12294981Y-12803828D01*
X12304505Y-12794305D01*
X12371171Y-12841924D02*
X12380695Y-12832400D01*
X12399743Y-12822876D01*
X12447362Y-12822876D01*
X12466409Y-12832400D01*
X12475933Y-12841924D01*
X12485457Y-12860971D01*
X12485457Y-12880019D01*
X12475933Y-12908590D01*
X12361648Y-13022876D01*
X12485457Y-13022876D01*
X12723552Y-13022876D02*
X12723552Y-12822876D01*
X12809267Y-13022876D02*
X12809267Y-12918114D01*
X12799743Y-12899067D01*
X12780695Y-12889543D01*
X12752124Y-12889543D01*
X12733076Y-12899067D01*
X12723552Y-12908590D01*
X12933076Y-13022876D02*
X12914028Y-13013352D01*
X12904505Y-13003828D01*
X12894981Y-12984781D01*
X12894981Y-12927638D01*
X12904505Y-12908590D01*
X12914028Y-12899067D01*
X12933076Y-12889543D01*
X12961648Y-12889543D01*
X12980695Y-12899067D01*
X12990219Y-12908590D01*
X12999743Y-12927638D01*
X12999743Y-12984781D01*
X12990219Y-13003828D01*
X12980695Y-13013352D01*
X12961648Y-13022876D01*
X12933076Y-13022876D01*
X13114028Y-13022876D02*
X13094981Y-13013352D01*
X13085457Y-12994305D01*
X13085457Y-12822876D01*
X13266409Y-13013352D02*
X13247362Y-13022876D01*
X13209267Y-13022876D01*
X13190219Y-13013352D01*
X13180695Y-12994305D01*
X13180695Y-12918114D01*
X13190219Y-12899067D01*
X13209267Y-12889543D01*
X13247362Y-12889543D01*
X13266409Y-12899067D01*
X13275933Y-12918114D01*
X13275933Y-12937162D01*
X13180695Y-12956209D01*
X13352124Y-13013352D02*
X13371171Y-13022876D01*
X13409267Y-13022876D01*
X13428314Y-13013352D01*
X13437838Y-12994305D01*
X13437838Y-12984781D01*
X13428314Y-12965733D01*
X13409267Y-12956209D01*
X13380695Y-12956209D01*
X13361648Y-12946686D01*
X13352124Y-12927638D01*
X13352124Y-12918114D01*
X13361648Y-12899067D01*
X13380695Y-12889543D01*
X13409267Y-12889543D01*
X13428314Y-12899067D01*
X13504505Y-13099067D02*
X13514028Y-13089543D01*
X13533076Y-13060971D01*
X13542600Y-13041924D01*
X13552124Y-13013352D01*
X13561648Y-12965733D01*
X13561648Y-12927638D01*
X13552124Y-12880019D01*
X13542600Y-12851448D01*
X13533076Y-12832400D01*
X13514028Y-12803828D01*
X13504505Y-12794305D01*
X13866409Y-13099067D02*
X13856886Y-13089543D01*
X13837838Y-13060971D01*
X13828314Y-13041924D01*
X13818790Y-13013352D01*
X13809267Y-12965733D01*
X13809267Y-12927638D01*
X13818790Y-12880019D01*
X13828314Y-12851448D01*
X13837838Y-12832400D01*
X13856886Y-12803828D01*
X13866409Y-12794305D01*
X13942600Y-12889543D02*
X13942600Y-13022876D01*
X13942600Y-12908590D02*
X13952124Y-12899067D01*
X13971171Y-12889543D01*
X13999743Y-12889543D01*
X14018790Y-12899067D01*
X14028314Y-12918114D01*
X14028314Y-13022876D01*
X14152124Y-13022876D02*
X14133076Y-13013352D01*
X14123552Y-13003828D01*
X14114028Y-12984781D01*
X14114028Y-12927638D01*
X14123552Y-12908590D01*
X14133076Y-12899067D01*
X14152124Y-12889543D01*
X14180695Y-12889543D01*
X14199743Y-12899067D01*
X14209267Y-12908590D01*
X14218790Y-12927638D01*
X14218790Y-12984781D01*
X14209267Y-13003828D01*
X14199743Y-13013352D01*
X14180695Y-13022876D01*
X14152124Y-13022876D01*
X14275933Y-12889543D02*
X14352124Y-12889543D01*
X14304505Y-12822876D02*
X14304505Y-12994305D01*
X14314028Y-13013352D01*
X14333076Y-13022876D01*
X14352124Y-13022876D01*
X14571171Y-12889543D02*
X14571171Y-13089543D01*
X14571171Y-12899067D02*
X14590219Y-12889543D01*
X14628314Y-12889543D01*
X14647362Y-12899067D01*
X14656886Y-12908590D01*
X14666409Y-12927638D01*
X14666409Y-12984781D01*
X14656886Y-13003828D01*
X14647362Y-13013352D01*
X14628314Y-13022876D01*
X14590219Y-13022876D01*
X14571171Y-13013352D01*
X14780695Y-13022876D02*
X14761648Y-13013352D01*
X14752124Y-12994305D01*
X14752124Y-12822876D01*
X14942600Y-13022876D02*
X14942600Y-12918114D01*
X14933076Y-12899067D01*
X14914028Y-12889543D01*
X14875933Y-12889543D01*
X14856886Y-12899067D01*
X14942600Y-13013352D02*
X14923552Y-13022876D01*
X14875933Y-13022876D01*
X14856886Y-13013352D01*
X14847362Y-12994305D01*
X14847362Y-12975257D01*
X14856886Y-12956209D01*
X14875933Y-12946686D01*
X14923552Y-12946686D01*
X14942600Y-12937162D01*
X15009267Y-12889543D02*
X15085457Y-12889543D01*
X15037838Y-12822876D02*
X15037838Y-12994305D01*
X15047362Y-13013352D01*
X15066409Y-13022876D01*
X15085457Y-13022876D01*
X15228314Y-13013352D02*
X15209267Y-13022876D01*
X15171171Y-13022876D01*
X15152124Y-13013352D01*
X15142600Y-12994305D01*
X15142600Y-12918114D01*
X15152124Y-12899067D01*
X15171171Y-12889543D01*
X15209267Y-12889543D01*
X15228314Y-12899067D01*
X15237838Y-12918114D01*
X15237838Y-12937162D01*
X15142600Y-12956209D01*
X15409267Y-13022876D02*
X15409267Y-12822876D01*
X15409267Y-13013352D02*
X15390219Y-13022876D01*
X15352124Y-13022876D01*
X15333076Y-13013352D01*
X15323552Y-13003828D01*
X15314028Y-12984781D01*
X15314028Y-12927638D01*
X15323552Y-12908590D01*
X15333076Y-12899067D01*
X15352124Y-12889543D01*
X15390219Y-12889543D01*
X15409267Y-12899067D01*
X15485457Y-13099067D02*
X15494981Y-13089543D01*
X15514028Y-13060971D01*
X15523552Y-13041924D01*
X15533076Y-13013352D01*
X15542600Y-12965733D01*
X15542600Y-12927638D01*
X15533076Y-12880019D01*
X15523552Y-12851448D01*
X15514028Y-12832400D01*
X15494981Y-12803828D01*
X15485457Y-12794305D01*
M02*
