M48
; DRILL file {KiCad (6.0.8)} date Thu Nov  3 15:19:02 2022
; FORMAT={-:-/ absolute / metric / decimal}
; #@! TF.CreationDate,2022-11-03T15:19:02-07:00
; #@! TF.GenerationSoftware,Kicad,Pcbnew,(6.0.8)
; #@! TF.FileFunction,MixedPlating,1,2
FMAT,2
METRIC
; #@! TA.AperFunction,Plated,PTH,ViaDrill
T1C0.400
; #@! TA.AperFunction,Plated,PTH,ComponentDrill
T2C0.700
; #@! TA.AperFunction,Plated,PTH,ComponentDrill
T3C0.800
; #@! TA.AperFunction,Plated,PTH,ComponentDrill
T4C0.900
; #@! TA.AperFunction,Plated,PTH,ComponentDrill
T5C1.000
; #@! TA.AperFunction,Plated,PTH,ComponentDrill
T6C1.100
; #@! TA.AperFunction,Plated,PTH,ComponentDrill
T7C1.400
; #@! TA.AperFunction,NonPlated,NPTH,ComponentDrill
T8C3.500
%
G90
G05
T1
X90.529Y-60.812
X96.52Y-96.774
X98.289Y-69.833
X100.093Y-100.826
X102.362Y-84.074
X102.362Y-89.408
X103.378Y-76.962
X104.902Y-58.674
X108.458Y-69.85
X111.506Y-81.534
X112.014Y-100.838
X116.332Y-94.234
X120.142Y-76.708
X122.428Y-64.77
X122.682Y-100.838
X125.984Y-93.218
X126.238Y-80.264
X132.588Y-60.198
X134.112Y-66.548
X134.366Y-100.838
X136.398Y-80.01
X136.652Y-73.66
X138.43Y-87.122
X142.494Y-68.072
X143.51Y-100.838
X145.796Y-85.598
T2
X129.032Y-74.422
X130.302Y-73.152
X130.302Y-75.692
T3
X97.155Y-61.087
X97.155Y-65.913
X108.966Y-80.01
X108.966Y-95.25
X112.395Y-61.087
X112.395Y-65.913
X114.046Y-80.01
X114.046Y-95.25
X118.73Y-59.827
X118.73Y-67.447
X118.872Y-80.01
X118.872Y-95.25
X121.27Y-59.827
X121.27Y-67.447
X123.444Y-80.01
X123.444Y-95.25
X123.81Y-59.827
X123.81Y-67.447
X128.778Y-80.01
X128.778Y-95.25
X133.858Y-80.01
X133.858Y-95.25
T4
X138.425Y-94.234
X140.965Y-94.234
T5
X97.282Y-75.184
X97.282Y-77.724
X97.282Y-80.264
X97.282Y-82.804
X97.282Y-85.344
X97.282Y-87.884
X97.282Y-90.424
X97.282Y-92.964
T6
X141.478Y-73.406
X141.478Y-75.946
X141.478Y-78.486
T7
X104.394Y-73.66
X117.094Y-73.66
T8
X91.44Y-100.33
X143.002Y-61.468
T0
M30
