%TF.GenerationSoftware,KiCad,Pcbnew,(6.0.8)*%
%TF.CreationDate,2022-11-03T15:18:16-07:00*%
%TF.ProjectId,TipBlaster_V2,54697042-6c61-4737-9465-725f56322e6b,rev?*%
%TF.SameCoordinates,Original*%
%TF.FileFunction,Legend,Top*%
%TF.FilePolarity,Positive*%
%FSLAX46Y46*%
G04 Gerber Fmt 4.6, Leading zero omitted, Abs format (unit mm)*
G04 Created by KiCad (PCBNEW (6.0.8)) date 2022-11-03 15:18:16*
%MOMM*%
%LPD*%
G01*
G04 APERTURE LIST*
%ADD10C,0.150000*%
%ADD11C,0.120000*%
%ADD12C,3.500000*%
%ADD13R,1.600000X1.600000*%
%ADD14O,1.600000X1.600000*%
%ADD15C,1.600000*%
%ADD16R,2.000000X1.905000*%
%ADD17O,2.000000X1.905000*%
%ADD18O,1.200000X1.600000*%
%ADD19O,1.200000X1.200000*%
%ADD20R,1.700000X1.700000*%
%ADD21O,1.700000X1.700000*%
%ADD22R,1.800000X1.800000*%
%ADD23C,1.800000*%
%ADD24R,2.800000X2.800000*%
%ADD25O,2.800000X2.800000*%
G04 APERTURE END LIST*
D10*
X97752952Y-102306380D02*
X97752952Y-101306380D01*
X98133904Y-101306380D01*
X98229142Y-101354000D01*
X98276761Y-101401619D01*
X98324380Y-101496857D01*
X98324380Y-101639714D01*
X98276761Y-101734952D01*
X98229142Y-101782571D01*
X98133904Y-101830190D01*
X97752952Y-101830190D01*
X98752952Y-102306380D02*
X98752952Y-101306380D01*
X99229142Y-102306380D02*
X99229142Y-101306380D01*
X99800571Y-102306380D01*
X99800571Y-101306380D01*
X100800571Y-101354000D02*
X100705333Y-101306380D01*
X100562476Y-101306380D01*
X100419619Y-101354000D01*
X100324380Y-101449238D01*
X100276761Y-101544476D01*
X100229142Y-101734952D01*
X100229142Y-101877809D01*
X100276761Y-102068285D01*
X100324380Y-102163523D01*
X100419619Y-102258761D01*
X100562476Y-102306380D01*
X100657714Y-102306380D01*
X100800571Y-102258761D01*
X100848190Y-102211142D01*
X100848190Y-101877809D01*
X100657714Y-101877809D01*
X101895809Y-101306380D02*
X102467238Y-101306380D01*
X102181523Y-102306380D02*
X102181523Y-101306380D01*
X102800571Y-102306380D02*
X102800571Y-101306380D01*
X103276761Y-102306380D02*
X103276761Y-101306380D01*
X103657714Y-101306380D01*
X103752952Y-101354000D01*
X103800571Y-101401619D01*
X103848190Y-101496857D01*
X103848190Y-101639714D01*
X103800571Y-101734952D01*
X103752952Y-101782571D01*
X103657714Y-101830190D01*
X103276761Y-101830190D01*
X105372000Y-101782571D02*
X105514857Y-101830190D01*
X105562476Y-101877809D01*
X105610095Y-101973047D01*
X105610095Y-102115904D01*
X105562476Y-102211142D01*
X105514857Y-102258761D01*
X105419619Y-102306380D01*
X105038666Y-102306380D01*
X105038666Y-101306380D01*
X105372000Y-101306380D01*
X105467238Y-101354000D01*
X105514857Y-101401619D01*
X105562476Y-101496857D01*
X105562476Y-101592095D01*
X105514857Y-101687333D01*
X105467238Y-101734952D01*
X105372000Y-101782571D01*
X105038666Y-101782571D01*
X106514857Y-102306380D02*
X106038666Y-102306380D01*
X106038666Y-101306380D01*
X106800571Y-102020666D02*
X107276761Y-102020666D01*
X106705333Y-102306380D02*
X107038666Y-101306380D01*
X107372000Y-102306380D01*
X107657714Y-102258761D02*
X107800571Y-102306380D01*
X108038666Y-102306380D01*
X108133904Y-102258761D01*
X108181523Y-102211142D01*
X108229142Y-102115904D01*
X108229142Y-102020666D01*
X108181523Y-101925428D01*
X108133904Y-101877809D01*
X108038666Y-101830190D01*
X107848190Y-101782571D01*
X107752952Y-101734952D01*
X107705333Y-101687333D01*
X107657714Y-101592095D01*
X107657714Y-101496857D01*
X107705333Y-101401619D01*
X107752952Y-101354000D01*
X107848190Y-101306380D01*
X108086285Y-101306380D01*
X108229142Y-101354000D01*
X108514857Y-101306380D02*
X109086285Y-101306380D01*
X108800571Y-102306380D02*
X108800571Y-101306380D01*
X109419619Y-101782571D02*
X109752952Y-101782571D01*
X109895809Y-102306380D02*
X109419619Y-102306380D01*
X109419619Y-101306380D01*
X109895809Y-101306380D01*
X110895809Y-102306380D02*
X110562476Y-101830190D01*
X110324380Y-102306380D02*
X110324380Y-101306380D01*
X110705333Y-101306380D01*
X110800571Y-101354000D01*
X110848190Y-101401619D01*
X110895809Y-101496857D01*
X110895809Y-101639714D01*
X110848190Y-101734952D01*
X110800571Y-101782571D01*
X110705333Y-101830190D01*
X110324380Y-101830190D01*
X112086285Y-102306380D02*
X112086285Y-101306380D01*
X112086285Y-101782571D02*
X112657714Y-101782571D01*
X112657714Y-102306380D02*
X112657714Y-101306380D01*
X113133904Y-102306380D02*
X113133904Y-101306380D01*
X114133904Y-101354000D02*
X114038666Y-101306380D01*
X113895809Y-101306380D01*
X113752952Y-101354000D01*
X113657714Y-101449238D01*
X113610095Y-101544476D01*
X113562476Y-101734952D01*
X113562476Y-101877809D01*
X113610095Y-102068285D01*
X113657714Y-102163523D01*
X113752952Y-102258761D01*
X113895809Y-102306380D01*
X113991047Y-102306380D01*
X114133904Y-102258761D01*
X114181523Y-102211142D01*
X114181523Y-101877809D01*
X113991047Y-101877809D01*
X114610095Y-102306380D02*
X114610095Y-101306380D01*
X114610095Y-101782571D02*
X115181523Y-101782571D01*
X115181523Y-102306380D02*
X115181523Y-101306380D01*
X115657714Y-101925428D02*
X116419619Y-101925428D01*
X116848190Y-102258761D02*
X116991047Y-102306380D01*
X117229142Y-102306380D01*
X117324380Y-102258761D01*
X117372000Y-102211142D01*
X117419619Y-102115904D01*
X117419619Y-102020666D01*
X117372000Y-101925428D01*
X117324380Y-101877809D01*
X117229142Y-101830190D01*
X117038666Y-101782571D01*
X116943428Y-101734952D01*
X116895809Y-101687333D01*
X116848190Y-101592095D01*
X116848190Y-101496857D01*
X116895809Y-101401619D01*
X116943428Y-101354000D01*
X117038666Y-101306380D01*
X117276761Y-101306380D01*
X117419619Y-101354000D01*
X117848190Y-102306380D02*
X117848190Y-101306380D01*
X118324380Y-102306380D02*
X118324380Y-101306380D01*
X118562476Y-101306380D01*
X118705333Y-101354000D01*
X118800571Y-101449238D01*
X118848190Y-101544476D01*
X118895809Y-101734952D01*
X118895809Y-101877809D01*
X118848190Y-102068285D01*
X118800571Y-102163523D01*
X118705333Y-102258761D01*
X118562476Y-102306380D01*
X118324380Y-102306380D01*
X119324380Y-101782571D02*
X119657714Y-101782571D01*
X119800571Y-102306380D02*
X119324380Y-102306380D01*
X119324380Y-101306380D01*
X119800571Y-101306380D01*
X121562476Y-102211142D02*
X121514857Y-102258761D01*
X121372000Y-102306380D01*
X121276761Y-102306380D01*
X121133904Y-102258761D01*
X121038666Y-102163523D01*
X120991047Y-102068285D01*
X120943428Y-101877809D01*
X120943428Y-101734952D01*
X120991047Y-101544476D01*
X121038666Y-101449238D01*
X121133904Y-101354000D01*
X121276761Y-101306380D01*
X121372000Y-101306380D01*
X121514857Y-101354000D01*
X121562476Y-101401619D01*
X122181523Y-101306380D02*
X122372000Y-101306380D01*
X122467238Y-101354000D01*
X122562476Y-101449238D01*
X122610095Y-101639714D01*
X122610095Y-101973047D01*
X122562476Y-102163523D01*
X122467238Y-102258761D01*
X122372000Y-102306380D01*
X122181523Y-102306380D01*
X122086285Y-102258761D01*
X121991047Y-102163523D01*
X121943428Y-101973047D01*
X121943428Y-101639714D01*
X121991047Y-101449238D01*
X122086285Y-101354000D01*
X122181523Y-101306380D01*
X123038666Y-102306380D02*
X123038666Y-101306380D01*
X123610095Y-102306380D01*
X123610095Y-101306380D01*
X123943428Y-101306380D02*
X124514857Y-101306380D01*
X124229142Y-102306380D02*
X124229142Y-101306380D01*
X125419619Y-102306380D02*
X125086285Y-101830190D01*
X124848190Y-102306380D02*
X124848190Y-101306380D01*
X125229142Y-101306380D01*
X125324380Y-101354000D01*
X125372000Y-101401619D01*
X125419619Y-101496857D01*
X125419619Y-101639714D01*
X125372000Y-101734952D01*
X125324380Y-101782571D01*
X125229142Y-101830190D01*
X124848190Y-101830190D01*
X126038666Y-101306380D02*
X126229142Y-101306380D01*
X126324380Y-101354000D01*
X126419619Y-101449238D01*
X126467238Y-101639714D01*
X126467238Y-101973047D01*
X126419619Y-102163523D01*
X126324380Y-102258761D01*
X126229142Y-102306380D01*
X126038666Y-102306380D01*
X125943428Y-102258761D01*
X125848190Y-102163523D01*
X125800571Y-101973047D01*
X125800571Y-101639714D01*
X125848190Y-101449238D01*
X125943428Y-101354000D01*
X126038666Y-101306380D01*
X127372000Y-102306380D02*
X126895809Y-102306380D01*
X126895809Y-101306380D01*
X128800571Y-101782571D02*
X128943428Y-101830190D01*
X128991047Y-101877809D01*
X129038666Y-101973047D01*
X129038666Y-102115904D01*
X128991047Y-102211142D01*
X128943428Y-102258761D01*
X128848190Y-102306380D01*
X128467238Y-102306380D01*
X128467238Y-101306380D01*
X128800571Y-101306380D01*
X128895809Y-101354000D01*
X128943428Y-101401619D01*
X128991047Y-101496857D01*
X128991047Y-101592095D01*
X128943428Y-101687333D01*
X128895809Y-101734952D01*
X128800571Y-101782571D01*
X128467238Y-101782571D01*
X129657714Y-101306380D02*
X129848190Y-101306380D01*
X129943428Y-101354000D01*
X130038666Y-101449238D01*
X130086285Y-101639714D01*
X130086285Y-101973047D01*
X130038666Y-102163523D01*
X129943428Y-102258761D01*
X129848190Y-102306380D01*
X129657714Y-102306380D01*
X129562476Y-102258761D01*
X129467238Y-102163523D01*
X129419619Y-101973047D01*
X129419619Y-101639714D01*
X129467238Y-101449238D01*
X129562476Y-101354000D01*
X129657714Y-101306380D01*
X130467238Y-102020666D02*
X130943428Y-102020666D01*
X130372000Y-102306380D02*
X130705333Y-101306380D01*
X131038666Y-102306380D01*
X131943428Y-102306380D02*
X131610095Y-101830190D01*
X131372000Y-102306380D02*
X131372000Y-101306380D01*
X131752952Y-101306380D01*
X131848190Y-101354000D01*
X131895809Y-101401619D01*
X131943428Y-101496857D01*
X131943428Y-101639714D01*
X131895809Y-101734952D01*
X131848190Y-101782571D01*
X131752952Y-101830190D01*
X131372000Y-101830190D01*
X132372000Y-102306380D02*
X132372000Y-101306380D01*
X132610095Y-101306380D01*
X132752952Y-101354000D01*
X132848190Y-101449238D01*
X132895809Y-101544476D01*
X132943428Y-101734952D01*
X132943428Y-101877809D01*
X132895809Y-102068285D01*
X132848190Y-102163523D01*
X132752952Y-102258761D01*
X132610095Y-102306380D01*
X132372000Y-102306380D01*
X133991047Y-101306380D02*
X134324380Y-102306380D01*
X134657714Y-101306380D01*
X134943428Y-101401619D02*
X134991047Y-101354000D01*
X135086285Y-101306380D01*
X135324380Y-101306380D01*
X135419619Y-101354000D01*
X135467238Y-101401619D01*
X135514857Y-101496857D01*
X135514857Y-101592095D01*
X135467238Y-101734952D01*
X134895809Y-102306380D01*
X135514857Y-102306380D01*
X136705333Y-101925428D02*
X137467238Y-101925428D01*
X139181523Y-102306380D02*
X138705333Y-102306380D01*
X138705333Y-101306380D01*
X139467238Y-102258761D02*
X139610095Y-102306380D01*
X139848190Y-102306380D01*
X139943428Y-102258761D01*
X139991047Y-102211142D01*
X140038666Y-102115904D01*
X140038666Y-102020666D01*
X139991047Y-101925428D01*
X139943428Y-101877809D01*
X139848190Y-101830190D01*
X139657714Y-101782571D01*
X139562476Y-101734952D01*
X139514857Y-101687333D01*
X139467238Y-101592095D01*
X139467238Y-101496857D01*
X139514857Y-101401619D01*
X139562476Y-101354000D01*
X139657714Y-101306380D01*
X139895809Y-101306380D01*
X140038666Y-101354000D01*
X131771142Y-98909142D02*
X131723523Y-98956761D01*
X131580666Y-99004380D01*
X131485428Y-99004380D01*
X131342571Y-98956761D01*
X131247333Y-98861523D01*
X131199714Y-98766285D01*
X131152095Y-98575809D01*
X131152095Y-98432952D01*
X131199714Y-98242476D01*
X131247333Y-98147238D01*
X131342571Y-98052000D01*
X131485428Y-98004380D01*
X131580666Y-98004380D01*
X131723523Y-98052000D01*
X131771142Y-98099619D01*
X132390190Y-98004380D02*
X132580666Y-98004380D01*
X132675904Y-98052000D01*
X132771142Y-98147238D01*
X132818761Y-98337714D01*
X132818761Y-98671047D01*
X132771142Y-98861523D01*
X132675904Y-98956761D01*
X132580666Y-99004380D01*
X132390190Y-99004380D01*
X132294952Y-98956761D01*
X132199714Y-98861523D01*
X132152095Y-98671047D01*
X132152095Y-98337714D01*
X132199714Y-98147238D01*
X132294952Y-98052000D01*
X132390190Y-98004380D01*
X133247333Y-99004380D02*
X133247333Y-98004380D01*
X134199714Y-99004380D02*
X133723523Y-99004380D01*
X133723523Y-98004380D01*
X135247333Y-98956761D02*
X135390190Y-99004380D01*
X135628285Y-99004380D01*
X135723523Y-98956761D01*
X135771142Y-98909142D01*
X135818761Y-98813904D01*
X135818761Y-98718666D01*
X135771142Y-98623428D01*
X135723523Y-98575809D01*
X135628285Y-98528190D01*
X135437809Y-98480571D01*
X135342571Y-98432952D01*
X135294952Y-98385333D01*
X135247333Y-98290095D01*
X135247333Y-98194857D01*
X135294952Y-98099619D01*
X135342571Y-98052000D01*
X135437809Y-98004380D01*
X135675904Y-98004380D01*
X135818761Y-98052000D01*
X136104476Y-98004380D02*
X136675904Y-98004380D01*
X136390190Y-99004380D02*
X136390190Y-98004380D01*
X136961619Y-98718666D02*
X137437809Y-98718666D01*
X136866380Y-99004380D02*
X137199714Y-98004380D01*
X137533047Y-99004380D01*
X137723523Y-98004380D02*
X138294952Y-98004380D01*
X138009238Y-99004380D02*
X138009238Y-98004380D01*
X138628285Y-98004380D02*
X138628285Y-98813904D01*
X138675904Y-98909142D01*
X138723523Y-98956761D01*
X138818761Y-99004380D01*
X139009238Y-99004380D01*
X139104476Y-98956761D01*
X139152095Y-98909142D01*
X139199714Y-98813904D01*
X139199714Y-98004380D01*
X139628285Y-98956761D02*
X139771142Y-99004380D01*
X140009238Y-99004380D01*
X140104476Y-98956761D01*
X140152095Y-98909142D01*
X140199714Y-98813904D01*
X140199714Y-98718666D01*
X140152095Y-98623428D01*
X140104476Y-98575809D01*
X140009238Y-98528190D01*
X139818761Y-98480571D01*
X139723523Y-98432952D01*
X139675904Y-98385333D01*
X139628285Y-98290095D01*
X139628285Y-98194857D01*
X139675904Y-98099619D01*
X139723523Y-98052000D01*
X139818761Y-98004380D01*
X140056857Y-98004380D01*
X140199714Y-98052000D01*
X141866380Y-99004380D02*
X141390190Y-99004380D01*
X141390190Y-98004380D01*
X142199714Y-98480571D02*
X142533047Y-98480571D01*
X142675904Y-99004380D02*
X142199714Y-99004380D01*
X142199714Y-98004380D01*
X142675904Y-98004380D01*
X143104476Y-99004380D02*
X143104476Y-98004380D01*
X143342571Y-98004380D01*
X143485428Y-98052000D01*
X143580666Y-98147238D01*
X143628285Y-98242476D01*
X143675904Y-98432952D01*
X143675904Y-98575809D01*
X143628285Y-98766285D01*
X143580666Y-98861523D01*
X143485428Y-98956761D01*
X143342571Y-99004380D01*
X143104476Y-99004380D01*
X99790380Y-75763333D02*
X99742761Y-75715714D01*
X99647523Y-75572857D01*
X99599904Y-75477619D01*
X99552285Y-75334761D01*
X99504666Y-75096666D01*
X99504666Y-74906190D01*
X99552285Y-74668095D01*
X99599904Y-74525238D01*
X99647523Y-74430000D01*
X99742761Y-74287142D01*
X99790380Y-74239523D01*
X100647523Y-74382380D02*
X100171333Y-74382380D01*
X100123714Y-74858571D01*
X100171333Y-74810952D01*
X100266571Y-74763333D01*
X100504666Y-74763333D01*
X100599904Y-74810952D01*
X100647523Y-74858571D01*
X100695142Y-74953809D01*
X100695142Y-75191904D01*
X100647523Y-75287142D01*
X100599904Y-75334761D01*
X100504666Y-75382380D01*
X100266571Y-75382380D01*
X100171333Y-75334761D01*
X100123714Y-75287142D01*
X100980857Y-74382380D02*
X101314190Y-75382380D01*
X101647523Y-74382380D01*
X101885619Y-75763333D02*
X101933238Y-75715714D01*
X102028476Y-75572857D01*
X102076095Y-75477619D01*
X102123714Y-75334761D01*
X102171333Y-75096666D01*
X102171333Y-74906190D01*
X102123714Y-74668095D01*
X102076095Y-74525238D01*
X102028476Y-74430000D01*
X101933238Y-74287142D01*
X101885619Y-74239523D01*
X99822190Y-78557333D02*
X99774571Y-78509714D01*
X99679333Y-78366857D01*
X99631714Y-78271619D01*
X99584095Y-78128761D01*
X99536476Y-77890666D01*
X99536476Y-77700190D01*
X99584095Y-77462095D01*
X99631714Y-77319238D01*
X99679333Y-77224000D01*
X99774571Y-77081142D01*
X99822190Y-77033523D01*
X100155523Y-77271619D02*
X100203142Y-77224000D01*
X100298380Y-77176380D01*
X100536476Y-77176380D01*
X100631714Y-77224000D01*
X100679333Y-77271619D01*
X100726952Y-77366857D01*
X100726952Y-77462095D01*
X100679333Y-77604952D01*
X100107904Y-78176380D01*
X100726952Y-78176380D01*
X101584095Y-77509714D02*
X101584095Y-78176380D01*
X101346000Y-77128761D02*
X101107904Y-77843047D01*
X101726952Y-77843047D01*
X101965047Y-77176380D02*
X102298380Y-78176380D01*
X102631714Y-77176380D01*
X102869809Y-78557333D02*
X102917428Y-78509714D01*
X103012666Y-78366857D01*
X103060285Y-78271619D01*
X103107904Y-78128761D01*
X103155523Y-77890666D01*
X103155523Y-77700190D01*
X103107904Y-77462095D01*
X103060285Y-77319238D01*
X103012666Y-77224000D01*
X102917428Y-77081142D01*
X102869809Y-77033523D01*
X99822190Y-91257333D02*
X99774571Y-91209714D01*
X99679333Y-91066857D01*
X99631714Y-90971619D01*
X99584095Y-90828761D01*
X99536476Y-90590666D01*
X99536476Y-90400190D01*
X99584095Y-90162095D01*
X99631714Y-90019238D01*
X99679333Y-89924000D01*
X99774571Y-89781142D01*
X99822190Y-89733523D01*
X100155523Y-89971619D02*
X100203142Y-89924000D01*
X100298380Y-89876380D01*
X100536476Y-89876380D01*
X100631714Y-89924000D01*
X100679333Y-89971619D01*
X100726952Y-90066857D01*
X100726952Y-90162095D01*
X100679333Y-90304952D01*
X100107904Y-90876380D01*
X100726952Y-90876380D01*
X101584095Y-90209714D02*
X101584095Y-90876380D01*
X101346000Y-89828761D02*
X101107904Y-90543047D01*
X101726952Y-90543047D01*
X101965047Y-89876380D02*
X102298380Y-90876380D01*
X102631714Y-89876380D01*
X102869809Y-91257333D02*
X102917428Y-91209714D01*
X103012666Y-91066857D01*
X103060285Y-90971619D01*
X103107904Y-90828761D01*
X103155523Y-90590666D01*
X103155523Y-90400190D01*
X103107904Y-90162095D01*
X103060285Y-90019238D01*
X103012666Y-89924000D01*
X102917428Y-89781142D01*
X102869809Y-89733523D01*
X99790380Y-81097333D02*
X99742761Y-81049714D01*
X99647523Y-80906857D01*
X99599904Y-80811619D01*
X99552285Y-80668761D01*
X99504666Y-80430666D01*
X99504666Y-80240190D01*
X99552285Y-80002095D01*
X99599904Y-79859238D01*
X99647523Y-79764000D01*
X99742761Y-79621142D01*
X99790380Y-79573523D01*
X100647523Y-79716380D02*
X100171333Y-79716380D01*
X100123714Y-80192571D01*
X100171333Y-80144952D01*
X100266571Y-80097333D01*
X100504666Y-80097333D01*
X100599904Y-80144952D01*
X100647523Y-80192571D01*
X100695142Y-80287809D01*
X100695142Y-80525904D01*
X100647523Y-80621142D01*
X100599904Y-80668761D01*
X100504666Y-80716380D01*
X100266571Y-80716380D01*
X100171333Y-80668761D01*
X100123714Y-80621142D01*
X100980857Y-79716380D02*
X101314190Y-80716380D01*
X101647523Y-79716380D01*
X101885619Y-81097333D02*
X101933238Y-81049714D01*
X102028476Y-80906857D01*
X102076095Y-80811619D01*
X102123714Y-80668761D01*
X102171333Y-80430666D01*
X102171333Y-80240190D01*
X102123714Y-80002095D01*
X102076095Y-79859238D01*
X102028476Y-79764000D01*
X101933238Y-79621142D01*
X101885619Y-79573523D01*
X88360666Y-92765619D02*
X88408285Y-92718000D01*
X88503523Y-92670380D01*
X88741619Y-92670380D01*
X88836857Y-92718000D01*
X88884476Y-92765619D01*
X88932095Y-92860857D01*
X88932095Y-92956095D01*
X88884476Y-93098952D01*
X88313047Y-93670380D01*
X88932095Y-93670380D01*
X89789238Y-93003714D02*
X89789238Y-93670380D01*
X89551142Y-92622761D02*
X89313047Y-93337047D01*
X89932095Y-93337047D01*
X90170190Y-92670380D02*
X90503523Y-93670380D01*
X90836857Y-92670380D01*
X91170190Y-93670380D02*
X91170190Y-92670380D01*
X91408285Y-92670380D01*
X91551142Y-92718000D01*
X91646380Y-92813238D01*
X91694000Y-92908476D01*
X91741619Y-93098952D01*
X91741619Y-93241809D01*
X91694000Y-93432285D01*
X91646380Y-93527523D01*
X91551142Y-93622761D01*
X91408285Y-93670380D01*
X91170190Y-93670380D01*
X92741619Y-93575142D02*
X92694000Y-93622761D01*
X92551142Y-93670380D01*
X92455904Y-93670380D01*
X92313047Y-93622761D01*
X92217809Y-93527523D01*
X92170190Y-93432285D01*
X92122571Y-93241809D01*
X92122571Y-93098952D01*
X92170190Y-92908476D01*
X92217809Y-92813238D01*
X92313047Y-92718000D01*
X92455904Y-92670380D01*
X92551142Y-92670380D01*
X92694000Y-92718000D01*
X92741619Y-92765619D01*
X93932095Y-93670380D02*
X93932095Y-92670380D01*
X94408285Y-93670380D02*
X94408285Y-92670380D01*
X94979714Y-93670380D01*
X94979714Y-92670380D01*
X89186095Y-90828761D02*
X89328952Y-90876380D01*
X89567047Y-90876380D01*
X89662285Y-90828761D01*
X89709904Y-90781142D01*
X89757523Y-90685904D01*
X89757523Y-90590666D01*
X89709904Y-90495428D01*
X89662285Y-90447809D01*
X89567047Y-90400190D01*
X89376571Y-90352571D01*
X89281333Y-90304952D01*
X89233714Y-90257333D01*
X89186095Y-90162095D01*
X89186095Y-90066857D01*
X89233714Y-89971619D01*
X89281333Y-89924000D01*
X89376571Y-89876380D01*
X89614666Y-89876380D01*
X89757523Y-89924000D01*
X90186095Y-90876380D02*
X90186095Y-89876380D01*
X90186095Y-90352571D02*
X90757523Y-90352571D01*
X90757523Y-90876380D02*
X90757523Y-89876380D01*
X91567047Y-90352571D02*
X91233714Y-90352571D01*
X91233714Y-90876380D02*
X91233714Y-89876380D01*
X91709904Y-89876380D01*
X91948000Y-89876380D02*
X92519428Y-89876380D01*
X92233714Y-90876380D02*
X92233714Y-89876380D01*
X93614666Y-90876380D02*
X93614666Y-89876380D01*
X94090857Y-90876380D02*
X94090857Y-89876380D01*
X94662285Y-90876380D01*
X94662285Y-89876380D01*
X89614666Y-87336380D02*
X89138476Y-87336380D01*
X89090857Y-87812571D01*
X89138476Y-87764952D01*
X89233714Y-87717333D01*
X89471809Y-87717333D01*
X89567047Y-87764952D01*
X89614666Y-87812571D01*
X89662285Y-87907809D01*
X89662285Y-88145904D01*
X89614666Y-88241142D01*
X89567047Y-88288761D01*
X89471809Y-88336380D01*
X89233714Y-88336380D01*
X89138476Y-88288761D01*
X89090857Y-88241142D01*
X89948000Y-87336380D02*
X90281333Y-88336380D01*
X90614666Y-87336380D01*
X90948000Y-88336380D02*
X90948000Y-87336380D01*
X91186095Y-87336380D01*
X91328952Y-87384000D01*
X91424190Y-87479238D01*
X91471809Y-87574476D01*
X91519428Y-87764952D01*
X91519428Y-87907809D01*
X91471809Y-88098285D01*
X91424190Y-88193523D01*
X91328952Y-88288761D01*
X91186095Y-88336380D01*
X90948000Y-88336380D01*
X92519428Y-88241142D02*
X92471809Y-88288761D01*
X92328952Y-88336380D01*
X92233714Y-88336380D01*
X92090857Y-88288761D01*
X91995619Y-88193523D01*
X91948000Y-88098285D01*
X91900380Y-87907809D01*
X91900380Y-87764952D01*
X91948000Y-87574476D01*
X91995619Y-87479238D01*
X92090857Y-87384000D01*
X92233714Y-87336380D01*
X92328952Y-87336380D01*
X92471809Y-87384000D01*
X92519428Y-87431619D01*
X93709904Y-88336380D02*
X93709904Y-87336380D01*
X94186095Y-88336380D02*
X94186095Y-87336380D01*
X94757523Y-88336380D01*
X94757523Y-87336380D01*
X91162285Y-85796380D02*
X91162285Y-84796380D01*
X91733714Y-85796380D01*
X91733714Y-84796380D01*
X92781333Y-85701142D02*
X92733714Y-85748761D01*
X92590857Y-85796380D01*
X92495619Y-85796380D01*
X92352761Y-85748761D01*
X92257523Y-85653523D01*
X92209904Y-85558285D01*
X92162285Y-85367809D01*
X92162285Y-85224952D01*
X92209904Y-85034476D01*
X92257523Y-84939238D01*
X92352761Y-84844000D01*
X92495619Y-84796380D01*
X92590857Y-84796380D01*
X92733714Y-84844000D01*
X92781333Y-84891619D01*
X91186095Y-82304000D02*
X91090857Y-82256380D01*
X90948000Y-82256380D01*
X90805142Y-82304000D01*
X90709904Y-82399238D01*
X90662285Y-82494476D01*
X90614666Y-82684952D01*
X90614666Y-82827809D01*
X90662285Y-83018285D01*
X90709904Y-83113523D01*
X90805142Y-83208761D01*
X90948000Y-83256380D01*
X91043238Y-83256380D01*
X91186095Y-83208761D01*
X91233714Y-83161142D01*
X91233714Y-82827809D01*
X91043238Y-82827809D01*
X91662285Y-83256380D02*
X91662285Y-82256380D01*
X92233714Y-83256380D01*
X92233714Y-82256380D01*
X92709904Y-83256380D02*
X92709904Y-82256380D01*
X92948000Y-82256380D01*
X93090857Y-82304000D01*
X93186095Y-82399238D01*
X93233714Y-82494476D01*
X93281333Y-82684952D01*
X93281333Y-82827809D01*
X93233714Y-83018285D01*
X93186095Y-83113523D01*
X93090857Y-83208761D01*
X92948000Y-83256380D01*
X92709904Y-83256380D01*
X88265428Y-80922761D02*
X88408285Y-80970380D01*
X88646380Y-80970380D01*
X88741619Y-80922761D01*
X88789238Y-80875142D01*
X88836857Y-80779904D01*
X88836857Y-80684666D01*
X88789238Y-80589428D01*
X88741619Y-80541809D01*
X88646380Y-80494190D01*
X88455904Y-80446571D01*
X88360666Y-80398952D01*
X88313047Y-80351333D01*
X88265428Y-80256095D01*
X88265428Y-80160857D01*
X88313047Y-80065619D01*
X88360666Y-80018000D01*
X88455904Y-79970380D01*
X88694000Y-79970380D01*
X88836857Y-80018000D01*
X89265428Y-80970380D02*
X89265428Y-79970380D01*
X89265428Y-80446571D02*
X89836857Y-80446571D01*
X89836857Y-80970380D02*
X89836857Y-79970380D01*
X90646380Y-80446571D02*
X90313047Y-80446571D01*
X90313047Y-80970380D02*
X90313047Y-79970380D01*
X90789238Y-79970380D01*
X91027333Y-79970380D02*
X91598761Y-79970380D01*
X91313047Y-80970380D02*
X91313047Y-79970380D01*
X92884476Y-79970380D02*
X93074952Y-79970380D01*
X93170190Y-80018000D01*
X93265428Y-80113238D01*
X93313047Y-80303714D01*
X93313047Y-80637047D01*
X93265428Y-80827523D01*
X93170190Y-80922761D01*
X93074952Y-80970380D01*
X92884476Y-80970380D01*
X92789238Y-80922761D01*
X92694000Y-80827523D01*
X92646380Y-80637047D01*
X92646380Y-80303714D01*
X92694000Y-80113238D01*
X92789238Y-80018000D01*
X92884476Y-79970380D01*
X93741619Y-79970380D02*
X93741619Y-80779904D01*
X93789238Y-80875142D01*
X93836857Y-80922761D01*
X93932095Y-80970380D01*
X94122571Y-80970380D01*
X94217809Y-80922761D01*
X94265428Y-80875142D01*
X94313047Y-80779904D01*
X94313047Y-79970380D01*
X94646380Y-79970380D02*
X95217809Y-79970380D01*
X94932095Y-80970380D02*
X94932095Y-79970380D01*
X89582857Y-78081142D02*
X89535238Y-78128761D01*
X89392380Y-78176380D01*
X89297142Y-78176380D01*
X89154285Y-78128761D01*
X89059047Y-78033523D01*
X89011428Y-77938285D01*
X88963809Y-77747809D01*
X88963809Y-77604952D01*
X89011428Y-77414476D01*
X89059047Y-77319238D01*
X89154285Y-77224000D01*
X89297142Y-77176380D01*
X89392380Y-77176380D01*
X89535238Y-77224000D01*
X89582857Y-77271619D01*
X90201904Y-77176380D02*
X90392380Y-77176380D01*
X90487619Y-77224000D01*
X90582857Y-77319238D01*
X90630476Y-77509714D01*
X90630476Y-77843047D01*
X90582857Y-78033523D01*
X90487619Y-78128761D01*
X90392380Y-78176380D01*
X90201904Y-78176380D01*
X90106666Y-78128761D01*
X90011428Y-78033523D01*
X89963809Y-77843047D01*
X89963809Y-77509714D01*
X90011428Y-77319238D01*
X90106666Y-77224000D01*
X90201904Y-77176380D01*
X91059047Y-78176380D02*
X91059047Y-77176380D01*
X92011428Y-78176380D02*
X91535238Y-78176380D01*
X91535238Y-77176380D01*
X93106666Y-77795428D02*
X93868571Y-77795428D01*
X93487619Y-78176380D02*
X93487619Y-77414476D01*
X89003523Y-75636380D02*
X88670190Y-75160190D01*
X88432095Y-75636380D02*
X88432095Y-74636380D01*
X88813047Y-74636380D01*
X88908285Y-74684000D01*
X88955904Y-74731619D01*
X89003523Y-74826857D01*
X89003523Y-74969714D01*
X88955904Y-75064952D01*
X88908285Y-75112571D01*
X88813047Y-75160190D01*
X88432095Y-75160190D01*
X89908285Y-75636380D02*
X89432095Y-75636380D01*
X89432095Y-74636380D01*
X90432095Y-75160190D02*
X90432095Y-75636380D01*
X90098761Y-74636380D02*
X90432095Y-75160190D01*
X90765428Y-74636380D01*
X92432095Y-75541142D02*
X92384476Y-75588761D01*
X92241619Y-75636380D01*
X92146380Y-75636380D01*
X92003523Y-75588761D01*
X91908285Y-75493523D01*
X91860666Y-75398285D01*
X91813047Y-75207809D01*
X91813047Y-75064952D01*
X91860666Y-74874476D01*
X91908285Y-74779238D01*
X92003523Y-74684000D01*
X92146380Y-74636380D01*
X92241619Y-74636380D01*
X92384476Y-74684000D01*
X92432095Y-74731619D01*
X92717809Y-74636380D02*
X93289238Y-74636380D01*
X93003523Y-75636380D02*
X93003523Y-74636380D01*
X94194000Y-75636380D02*
X93860666Y-75160190D01*
X93622571Y-75636380D02*
X93622571Y-74636380D01*
X94003523Y-74636380D01*
X94098761Y-74684000D01*
X94146380Y-74731619D01*
X94194000Y-74826857D01*
X94194000Y-74969714D01*
X94146380Y-75064952D01*
X94098761Y-75112571D01*
X94003523Y-75160190D01*
X93622571Y-75160190D01*
X95098761Y-75636380D02*
X94622571Y-75636380D01*
X94622571Y-74636380D01*
X133310380Y-89082380D02*
X133310380Y-88415714D01*
X134310380Y-88844285D01*
X134215142Y-88034761D02*
X134262761Y-87987142D01*
X134310380Y-88034761D01*
X134262761Y-88082380D01*
X134215142Y-88034761D01*
X134310380Y-88034761D01*
X133310380Y-87082380D02*
X133310380Y-87558571D01*
X133786571Y-87606190D01*
X133738952Y-87558571D01*
X133691333Y-87463333D01*
X133691333Y-87225238D01*
X133738952Y-87130000D01*
X133786571Y-87082380D01*
X133881809Y-87034761D01*
X134119904Y-87034761D01*
X134215142Y-87082380D01*
X134262761Y-87130000D01*
X134310380Y-87225238D01*
X134310380Y-87463333D01*
X134262761Y-87558571D01*
X134215142Y-87606190D01*
X134310380Y-86606190D02*
X133310380Y-86606190D01*
X133929428Y-86510952D02*
X134310380Y-86225238D01*
X133643714Y-86225238D02*
X134024666Y-86606190D01*
X129230380Y-88717333D02*
X129230380Y-89288761D01*
X129230380Y-89003047D02*
X128230380Y-89003047D01*
X128373238Y-89098285D01*
X128468476Y-89193523D01*
X128516095Y-89288761D01*
X129135142Y-88288761D02*
X129182761Y-88241142D01*
X129230380Y-88288761D01*
X129182761Y-88336380D01*
X129135142Y-88288761D01*
X129230380Y-88288761D01*
X128230380Y-87336380D02*
X128230380Y-87812571D01*
X128706571Y-87860190D01*
X128658952Y-87812571D01*
X128611333Y-87717333D01*
X128611333Y-87479238D01*
X128658952Y-87384000D01*
X128706571Y-87336380D01*
X128801809Y-87288761D01*
X129039904Y-87288761D01*
X129135142Y-87336380D01*
X129182761Y-87384000D01*
X129230380Y-87479238D01*
X129230380Y-87717333D01*
X129182761Y-87812571D01*
X129135142Y-87860190D01*
X129230380Y-86860190D02*
X128230380Y-86860190D01*
X128849428Y-86764952D02*
X129230380Y-86479238D01*
X128563714Y-86479238D02*
X128944666Y-86860190D01*
X123896380Y-88868095D02*
X123896380Y-89439523D01*
X123896380Y-89153809D02*
X122896380Y-89153809D01*
X123039238Y-89249047D01*
X123134476Y-89344285D01*
X123182095Y-89439523D01*
X123896380Y-88439523D02*
X122896380Y-88439523D01*
X123610666Y-88106190D01*
X122896380Y-87772857D01*
X123896380Y-87772857D01*
X123372571Y-87296666D02*
X123372571Y-86963333D01*
X123896380Y-86820476D02*
X123896380Y-87296666D01*
X122896380Y-87296666D01*
X122896380Y-86820476D01*
X122944000Y-85868095D02*
X122896380Y-85963333D01*
X122896380Y-86106190D01*
X122944000Y-86249047D01*
X123039238Y-86344285D01*
X123134476Y-86391904D01*
X123324952Y-86439523D01*
X123467809Y-86439523D01*
X123658285Y-86391904D01*
X123753523Y-86344285D01*
X123848761Y-86249047D01*
X123896380Y-86106190D01*
X123896380Y-86010952D01*
X123848761Y-85868095D01*
X123801142Y-85820476D01*
X123467809Y-85820476D01*
X123467809Y-86010952D01*
X118419619Y-88780761D02*
X118372000Y-88733142D01*
X118324380Y-88637904D01*
X118324380Y-88399809D01*
X118372000Y-88304571D01*
X118419619Y-88256952D01*
X118514857Y-88209333D01*
X118610095Y-88209333D01*
X118752952Y-88256952D01*
X119324380Y-88828380D01*
X119324380Y-88209333D01*
X119229142Y-87780761D02*
X119276761Y-87733142D01*
X119324380Y-87780761D01*
X119276761Y-87828380D01*
X119229142Y-87780761D01*
X119324380Y-87780761D01*
X118419619Y-87352190D02*
X118372000Y-87304571D01*
X118324380Y-87209333D01*
X118324380Y-86971238D01*
X118372000Y-86876000D01*
X118419619Y-86828380D01*
X118514857Y-86780761D01*
X118610095Y-86780761D01*
X118752952Y-86828380D01*
X119324380Y-87399809D01*
X119324380Y-86780761D01*
X119324380Y-86352190D02*
X118324380Y-86352190D01*
X118943428Y-86256952D02*
X119324380Y-85971238D01*
X118657714Y-85971238D02*
X119038666Y-86352190D01*
X113752380Y-88828380D02*
X113752380Y-88209333D01*
X114133333Y-88542666D01*
X114133333Y-88399809D01*
X114180952Y-88304571D01*
X114228571Y-88256952D01*
X114323809Y-88209333D01*
X114561904Y-88209333D01*
X114657142Y-88256952D01*
X114704761Y-88304571D01*
X114752380Y-88399809D01*
X114752380Y-88685523D01*
X114704761Y-88780761D01*
X114657142Y-88828380D01*
X114657142Y-87780761D02*
X114704761Y-87733142D01*
X114752380Y-87780761D01*
X114704761Y-87828380D01*
X114657142Y-87780761D01*
X114752380Y-87780761D01*
X114752380Y-87256952D02*
X114752380Y-87066476D01*
X114704761Y-86971238D01*
X114657142Y-86923619D01*
X114514285Y-86828380D01*
X114323809Y-86780761D01*
X113942857Y-86780761D01*
X113847619Y-86828380D01*
X113800000Y-86876000D01*
X113752380Y-86971238D01*
X113752380Y-87161714D01*
X113800000Y-87256952D01*
X113847619Y-87304571D01*
X113942857Y-87352190D01*
X114180952Y-87352190D01*
X114276190Y-87304571D01*
X114323809Y-87256952D01*
X114371428Y-87161714D01*
X114371428Y-86971238D01*
X114323809Y-86876000D01*
X114276190Y-86828380D01*
X114180952Y-86780761D01*
X114752380Y-86352190D02*
X113752380Y-86352190D01*
X114371428Y-86256952D02*
X114752380Y-85971238D01*
X114085714Y-85971238D02*
X114466666Y-86352190D01*
X109418380Y-87971238D02*
X109418380Y-88542666D01*
X109418380Y-88256952D02*
X108418380Y-88256952D01*
X108561238Y-88352190D01*
X108656476Y-88447428D01*
X108704095Y-88542666D01*
X108418380Y-87352190D02*
X108418380Y-87256952D01*
X108466000Y-87161714D01*
X108513619Y-87114095D01*
X108608857Y-87066476D01*
X108799333Y-87018857D01*
X109037428Y-87018857D01*
X109227904Y-87066476D01*
X109323142Y-87114095D01*
X109370761Y-87161714D01*
X109418380Y-87256952D01*
X109418380Y-87352190D01*
X109370761Y-87447428D01*
X109323142Y-87495047D01*
X109227904Y-87542666D01*
X109037428Y-87590285D01*
X108799333Y-87590285D01*
X108608857Y-87542666D01*
X108513619Y-87495047D01*
X108466000Y-87447428D01*
X108418380Y-87352190D01*
X109418380Y-86590285D02*
X108418380Y-86590285D01*
X109037428Y-86495047D02*
X109418380Y-86209333D01*
X108751714Y-86209333D02*
X109132666Y-86590285D01*
X103497238Y-65587619D02*
X103544857Y-65540000D01*
X103640095Y-65492380D01*
X103878190Y-65492380D01*
X103973428Y-65540000D01*
X104021047Y-65587619D01*
X104068666Y-65682857D01*
X104068666Y-65778095D01*
X104021047Y-65920952D01*
X103449619Y-66492380D01*
X104068666Y-66492380D01*
X104497238Y-66397142D02*
X104544857Y-66444761D01*
X104497238Y-66492380D01*
X104449619Y-66444761D01*
X104497238Y-66397142D01*
X104497238Y-66492380D01*
X104925809Y-65587619D02*
X104973428Y-65540000D01*
X105068666Y-65492380D01*
X105306761Y-65492380D01*
X105402000Y-65540000D01*
X105449619Y-65587619D01*
X105497238Y-65682857D01*
X105497238Y-65778095D01*
X105449619Y-65920952D01*
X104878190Y-66492380D01*
X105497238Y-66492380D01*
X105925809Y-66492380D02*
X105925809Y-65492380D01*
X106021047Y-66111428D02*
X106306761Y-66492380D01*
X106306761Y-65825714D02*
X105925809Y-66206666D01*
X103973428Y-60999714D02*
X103973428Y-61666380D01*
X103735333Y-60618761D02*
X103497238Y-61333047D01*
X104116285Y-61333047D01*
X104497238Y-61571142D02*
X104544857Y-61618761D01*
X104497238Y-61666380D01*
X104449619Y-61618761D01*
X104497238Y-61571142D01*
X104497238Y-61666380D01*
X104878190Y-60666380D02*
X105544857Y-60666380D01*
X105116285Y-61666380D01*
X105925809Y-61666380D02*
X105925809Y-60666380D01*
X106021047Y-61285428D02*
X106306761Y-61666380D01*
X106306761Y-60999714D02*
X105925809Y-61380666D01*
X125592380Y-64398904D02*
X126401904Y-64398904D01*
X126497142Y-64351285D01*
X126544761Y-64303666D01*
X126592380Y-64208428D01*
X126592380Y-64017952D01*
X126544761Y-63922714D01*
X126497142Y-63875095D01*
X126401904Y-63827476D01*
X125592380Y-63827476D01*
X126592380Y-62827476D02*
X126592380Y-63398904D01*
X126592380Y-63113190D02*
X125592380Y-63113190D01*
X125735238Y-63208428D01*
X125830476Y-63303666D01*
X125878095Y-63398904D01*
X131770380Y-88050666D02*
X131294190Y-88384000D01*
X131770380Y-88622095D02*
X130770380Y-88622095D01*
X130770380Y-88241142D01*
X130818000Y-88145904D01*
X130865619Y-88098285D01*
X130960857Y-88050666D01*
X131103714Y-88050666D01*
X131198952Y-88098285D01*
X131246571Y-88145904D01*
X131294190Y-88241142D01*
X131294190Y-88622095D01*
X131198952Y-87479238D02*
X131151333Y-87574476D01*
X131103714Y-87622095D01*
X131008476Y-87669714D01*
X130960857Y-87669714D01*
X130865619Y-87622095D01*
X130818000Y-87574476D01*
X130770380Y-87479238D01*
X130770380Y-87288761D01*
X130818000Y-87193523D01*
X130865619Y-87145904D01*
X130960857Y-87098285D01*
X131008476Y-87098285D01*
X131103714Y-87145904D01*
X131151333Y-87193523D01*
X131198952Y-87288761D01*
X131198952Y-87479238D01*
X131246571Y-87574476D01*
X131294190Y-87622095D01*
X131389428Y-87669714D01*
X131579904Y-87669714D01*
X131675142Y-87622095D01*
X131722761Y-87574476D01*
X131770380Y-87479238D01*
X131770380Y-87288761D01*
X131722761Y-87193523D01*
X131675142Y-87145904D01*
X131579904Y-87098285D01*
X131389428Y-87098285D01*
X131294190Y-87145904D01*
X131246571Y-87193523D01*
X131198952Y-87288761D01*
X126690380Y-87796666D02*
X126214190Y-88130000D01*
X126690380Y-88368095D02*
X125690380Y-88368095D01*
X125690380Y-87987142D01*
X125738000Y-87891904D01*
X125785619Y-87844285D01*
X125880857Y-87796666D01*
X126023714Y-87796666D01*
X126118952Y-87844285D01*
X126166571Y-87891904D01*
X126214190Y-87987142D01*
X126214190Y-88368095D01*
X125690380Y-87463333D02*
X125690380Y-86796666D01*
X126690380Y-87225238D01*
X121526380Y-87796666D02*
X121050190Y-88130000D01*
X121526380Y-88368095D02*
X120526380Y-88368095D01*
X120526380Y-87987142D01*
X120574000Y-87891904D01*
X120621619Y-87844285D01*
X120716857Y-87796666D01*
X120859714Y-87796666D01*
X120954952Y-87844285D01*
X121002571Y-87891904D01*
X121050190Y-87987142D01*
X121050190Y-88368095D01*
X120526380Y-86939523D02*
X120526380Y-87130000D01*
X120574000Y-87225238D01*
X120621619Y-87272857D01*
X120764476Y-87368095D01*
X120954952Y-87415714D01*
X121335904Y-87415714D01*
X121431142Y-87368095D01*
X121478761Y-87320476D01*
X121526380Y-87225238D01*
X121526380Y-87034761D01*
X121478761Y-86939523D01*
X121431142Y-86891904D01*
X121335904Y-86844285D01*
X121097809Y-86844285D01*
X121002571Y-86891904D01*
X120954952Y-86939523D01*
X120907333Y-87034761D01*
X120907333Y-87225238D01*
X120954952Y-87320476D01*
X121002571Y-87368095D01*
X121097809Y-87415714D01*
X116954380Y-87796666D02*
X116478190Y-88130000D01*
X116954380Y-88368095D02*
X115954380Y-88368095D01*
X115954380Y-87987142D01*
X116002000Y-87891904D01*
X116049619Y-87844285D01*
X116144857Y-87796666D01*
X116287714Y-87796666D01*
X116382952Y-87844285D01*
X116430571Y-87891904D01*
X116478190Y-87987142D01*
X116478190Y-88368095D01*
X115954380Y-86891904D02*
X115954380Y-87368095D01*
X116430571Y-87415714D01*
X116382952Y-87368095D01*
X116335333Y-87272857D01*
X116335333Y-87034761D01*
X116382952Y-86939523D01*
X116430571Y-86891904D01*
X116525809Y-86844285D01*
X116763904Y-86844285D01*
X116859142Y-86891904D01*
X116906761Y-86939523D01*
X116954380Y-87034761D01*
X116954380Y-87272857D01*
X116906761Y-87368095D01*
X116859142Y-87415714D01*
X111958380Y-87796666D02*
X111482190Y-88130000D01*
X111958380Y-88368095D02*
X110958380Y-88368095D01*
X110958380Y-87987142D01*
X111006000Y-87891904D01*
X111053619Y-87844285D01*
X111148857Y-87796666D01*
X111291714Y-87796666D01*
X111386952Y-87844285D01*
X111434571Y-87891904D01*
X111482190Y-87987142D01*
X111482190Y-88368095D01*
X111291714Y-86939523D02*
X111958380Y-86939523D01*
X110910761Y-87177619D02*
X111625047Y-87415714D01*
X111625047Y-86796666D01*
X107048380Y-87796666D02*
X106572190Y-88130000D01*
X107048380Y-88368095D02*
X106048380Y-88368095D01*
X106048380Y-87987142D01*
X106096000Y-87891904D01*
X106143619Y-87844285D01*
X106238857Y-87796666D01*
X106381714Y-87796666D01*
X106476952Y-87844285D01*
X106524571Y-87891904D01*
X106572190Y-87987142D01*
X106572190Y-88368095D01*
X106048380Y-87463333D02*
X106048380Y-86844285D01*
X106429333Y-87177619D01*
X106429333Y-87034761D01*
X106476952Y-86939523D01*
X106524571Y-86891904D01*
X106619809Y-86844285D01*
X106857904Y-86844285D01*
X106953142Y-86891904D01*
X107000761Y-86939523D01*
X107048380Y-87034761D01*
X107048380Y-87320476D01*
X107000761Y-87415714D01*
X106953142Y-87463333D01*
X104608333Y-68905380D02*
X104275000Y-68429190D01*
X104036904Y-68905380D02*
X104036904Y-67905380D01*
X104417857Y-67905380D01*
X104513095Y-67953000D01*
X104560714Y-68000619D01*
X104608333Y-68095857D01*
X104608333Y-68238714D01*
X104560714Y-68333952D01*
X104513095Y-68381571D01*
X104417857Y-68429190D01*
X104036904Y-68429190D01*
X104989285Y-68000619D02*
X105036904Y-67953000D01*
X105132142Y-67905380D01*
X105370238Y-67905380D01*
X105465476Y-67953000D01*
X105513095Y-68000619D01*
X105560714Y-68095857D01*
X105560714Y-68191095D01*
X105513095Y-68333952D01*
X104941666Y-68905380D01*
X105560714Y-68905380D01*
X104608333Y-63909380D02*
X104275000Y-63433190D01*
X104036904Y-63909380D02*
X104036904Y-62909380D01*
X104417857Y-62909380D01*
X104513095Y-62957000D01*
X104560714Y-63004619D01*
X104608333Y-63099857D01*
X104608333Y-63242714D01*
X104560714Y-63337952D01*
X104513095Y-63385571D01*
X104417857Y-63433190D01*
X104036904Y-63433190D01*
X105560714Y-63909380D02*
X104989285Y-63909380D01*
X105275000Y-63909380D02*
X105275000Y-62909380D01*
X105179761Y-63052238D01*
X105084523Y-63147476D01*
X104989285Y-63195095D01*
X146295619Y-76041238D02*
X146248000Y-76136476D01*
X146152761Y-76231714D01*
X146009904Y-76374571D01*
X145962285Y-76469809D01*
X145962285Y-76565047D01*
X146200380Y-76517428D02*
X146152761Y-76612666D01*
X146057523Y-76707904D01*
X145867047Y-76755523D01*
X145533714Y-76755523D01*
X145343238Y-76707904D01*
X145248000Y-76612666D01*
X145200380Y-76517428D01*
X145200380Y-76326952D01*
X145248000Y-76231714D01*
X145343238Y-76136476D01*
X145533714Y-76088857D01*
X145867047Y-76088857D01*
X146057523Y-76136476D01*
X146152761Y-76231714D01*
X146200380Y-76326952D01*
X146200380Y-76517428D01*
X145295619Y-75707904D02*
X145248000Y-75660285D01*
X145200380Y-75565047D01*
X145200380Y-75326952D01*
X145248000Y-75231714D01*
X145295619Y-75184095D01*
X145390857Y-75136476D01*
X145486095Y-75136476D01*
X145628952Y-75184095D01*
X146200380Y-75755523D01*
X146200380Y-75136476D01*
X134869619Y-74517238D02*
X134822000Y-74612476D01*
X134726761Y-74707714D01*
X134583904Y-74850571D01*
X134536285Y-74945809D01*
X134536285Y-75041047D01*
X134774380Y-74993428D02*
X134726761Y-75088666D01*
X134631523Y-75183904D01*
X134441047Y-75231523D01*
X134107714Y-75231523D01*
X133917238Y-75183904D01*
X133822000Y-75088666D01*
X133774380Y-74993428D01*
X133774380Y-74802952D01*
X133822000Y-74707714D01*
X133917238Y-74612476D01*
X134107714Y-74564857D01*
X134441047Y-74564857D01*
X134631523Y-74612476D01*
X134726761Y-74707714D01*
X134774380Y-74802952D01*
X134774380Y-74993428D01*
X134774380Y-73612476D02*
X134774380Y-74183904D01*
X134774380Y-73898190D02*
X133774380Y-73898190D01*
X133917238Y-73993428D01*
X134012476Y-74088666D01*
X134060095Y-74183904D01*
X96948666Y-72306380D02*
X96948666Y-73020666D01*
X96901047Y-73163523D01*
X96805809Y-73258761D01*
X96662952Y-73306380D01*
X96567714Y-73306380D01*
X97948666Y-73306380D02*
X97377238Y-73306380D01*
X97662952Y-73306380D02*
X97662952Y-72306380D01*
X97567714Y-72449238D01*
X97472476Y-72544476D01*
X97377238Y-72592095D01*
X138956904Y-91726380D02*
X138956904Y-90726380D01*
X139195000Y-90726380D01*
X139337857Y-90774000D01*
X139433095Y-90869238D01*
X139480714Y-90964476D01*
X139528333Y-91154952D01*
X139528333Y-91297809D01*
X139480714Y-91488285D01*
X139433095Y-91583523D01*
X139337857Y-91678761D01*
X139195000Y-91726380D01*
X138956904Y-91726380D01*
X139909285Y-90821619D02*
X139956904Y-90774000D01*
X140052142Y-90726380D01*
X140290238Y-90726380D01*
X140385476Y-90774000D01*
X140433095Y-90821619D01*
X140480714Y-90916857D01*
X140480714Y-91012095D01*
X140433095Y-91154952D01*
X139861666Y-91726380D01*
X140480714Y-91726380D01*
X110005904Y-77082380D02*
X110005904Y-76082380D01*
X110244000Y-76082380D01*
X110386857Y-76130000D01*
X110482095Y-76225238D01*
X110529714Y-76320476D01*
X110577333Y-76510952D01*
X110577333Y-76653809D01*
X110529714Y-76844285D01*
X110482095Y-76939523D01*
X110386857Y-77034761D01*
X110244000Y-77082380D01*
X110005904Y-77082380D01*
X111529714Y-77082380D02*
X110958285Y-77082380D01*
X111244000Y-77082380D02*
X111244000Y-76082380D01*
X111148761Y-76225238D01*
X111053523Y-76320476D01*
X110958285Y-76368095D01*
D11*
X125140000Y-66287000D02*
X125140000Y-64637000D01*
X117400000Y-66287000D02*
X125140000Y-66287000D01*
X125140000Y-60987000D02*
X117400000Y-60987000D01*
X117400000Y-60987000D02*
X117400000Y-66287000D01*
X125140000Y-62637000D02*
X125140000Y-60987000D01*
X125140000Y-62637000D02*
G75*
G03*
X125140000Y-64637000I0J-1000000D01*
G01*
X132488000Y-90900000D02*
X135228000Y-90900000D01*
X133858000Y-94210000D02*
X133858000Y-90900000D01*
X135228000Y-90900000D02*
X135228000Y-84360000D01*
X132488000Y-84360000D02*
X132488000Y-90900000D01*
X135228000Y-84360000D02*
X132488000Y-84360000D01*
X133858000Y-81050000D02*
X133858000Y-84360000D01*
X127408000Y-90900000D02*
X130148000Y-90900000D01*
X128778000Y-94210000D02*
X128778000Y-90900000D01*
X130148000Y-90900000D02*
X130148000Y-84360000D01*
X127408000Y-84360000D02*
X127408000Y-90900000D01*
X130148000Y-84360000D02*
X127408000Y-84360000D01*
X128778000Y-81050000D02*
X128778000Y-84360000D01*
X123444000Y-94210000D02*
X123444000Y-90900000D01*
X122074000Y-90900000D02*
X124814000Y-90900000D01*
X124814000Y-90900000D02*
X124814000Y-84360000D01*
X122074000Y-84360000D02*
X122074000Y-90900000D01*
X123444000Y-81050000D02*
X123444000Y-84360000D01*
X124814000Y-84360000D02*
X122074000Y-84360000D01*
X120242000Y-84360000D02*
X117502000Y-84360000D01*
X118872000Y-81050000D02*
X118872000Y-84360000D01*
X117502000Y-84360000D02*
X117502000Y-90900000D01*
X120242000Y-90900000D02*
X120242000Y-84360000D01*
X117502000Y-90900000D02*
X120242000Y-90900000D01*
X118872000Y-94210000D02*
X118872000Y-90900000D01*
X112676000Y-90900000D02*
X115416000Y-90900000D01*
X114046000Y-94210000D02*
X114046000Y-90900000D01*
X115416000Y-90900000D02*
X115416000Y-84360000D01*
X112676000Y-84360000D02*
X112676000Y-90900000D01*
X115416000Y-84360000D02*
X112676000Y-84360000D01*
X114046000Y-81050000D02*
X114046000Y-84360000D01*
X110336000Y-84360000D02*
X107596000Y-84360000D01*
X108966000Y-81050000D02*
X108966000Y-84360000D01*
X107596000Y-84360000D02*
X107596000Y-90900000D01*
X110336000Y-90900000D02*
X110336000Y-84360000D01*
X107596000Y-90900000D02*
X110336000Y-90900000D01*
X108966000Y-94210000D02*
X108966000Y-90900000D01*
X108045000Y-67283000D02*
X108045000Y-64543000D01*
X111355000Y-65913000D02*
X108045000Y-65913000D01*
X108045000Y-64543000D02*
X101505000Y-64543000D01*
X101505000Y-67283000D02*
X108045000Y-67283000D01*
X101505000Y-64543000D02*
X101505000Y-67283000D01*
X98195000Y-65913000D02*
X101505000Y-65913000D01*
X101505000Y-59717000D02*
X101505000Y-62457000D01*
X98195000Y-61087000D02*
X101505000Y-61087000D01*
X101505000Y-62457000D02*
X108045000Y-62457000D01*
X108045000Y-59717000D02*
X101505000Y-59717000D01*
X108045000Y-62457000D02*
X108045000Y-59717000D01*
X111355000Y-61087000D02*
X108045000Y-61087000D01*
X144748000Y-70826000D02*
X144748000Y-81066000D01*
X144748000Y-74096000D02*
X143238000Y-74096000D01*
X144748000Y-77797000D02*
X143238000Y-77797000D01*
X144748000Y-70826000D02*
X140107000Y-70826000D01*
X140107000Y-70826000D02*
X140107000Y-81066000D01*
X144748000Y-81066000D02*
X140107000Y-81066000D01*
X143238000Y-70826000D02*
X143238000Y-81066000D01*
X132874281Y-72839669D02*
X133786448Y-71927501D01*
X133786448Y-71927501D02*
X132796499Y-70937552D01*
X132796499Y-70937552D02*
X131884331Y-71849719D01*
X131884544Y-71849850D02*
G75*
G03*
X132874281Y-72839669I-1582544J-2572150D01*
G01*
X95952000Y-76454000D02*
X98612000Y-76454000D01*
X95952000Y-94294000D02*
X98612000Y-94294000D01*
X95952000Y-76454000D02*
X95952000Y-94294000D01*
X95952000Y-75184000D02*
X95952000Y-73854000D01*
X98612000Y-76454000D02*
X98612000Y-94294000D01*
X95952000Y-73854000D02*
X97282000Y-73854000D01*
X138135000Y-92998000D02*
X138135000Y-93154000D01*
X138135000Y-95314000D02*
X138135000Y-95470000D01*
X140736130Y-93154163D02*
G75*
G03*
X138654039Y-93154000I-1041130J-1079837D01*
G01*
X138135000Y-95469516D02*
G75*
G03*
X141367335Y-95312608I1560000J1235516D01*
G01*
X138654039Y-95314000D02*
G75*
G03*
X140736130Y-95313837I1040961J1080000D01*
G01*
X141367335Y-93155392D02*
G75*
G03*
X138135000Y-92998484I-1672335J-1078608D01*
G01*
X106034000Y-73660000D02*
X106174000Y-73660000D01*
X115454000Y-73660000D02*
X115314000Y-73660000D01*
X113859000Y-75630000D02*
X113859000Y-71690000D01*
X113979000Y-75630000D02*
X113979000Y-71690000D01*
X106174000Y-75630000D02*
X115314000Y-75630000D01*
X106174000Y-71690000D02*
X106174000Y-75630000D01*
X115314000Y-75630000D02*
X115314000Y-71690000D01*
X115314000Y-71690000D02*
X106174000Y-71690000D01*
X113739000Y-75630000D02*
X113739000Y-71690000D01*
%LPC*%
D12*
X91440000Y-100330000D03*
X143002000Y-61468000D03*
D13*
X123810000Y-59827000D03*
D14*
X121270000Y-59827000D03*
X118730000Y-59827000D03*
X118730000Y-67447000D03*
X121270000Y-67447000D03*
X123810000Y-67447000D03*
D15*
X133858000Y-80010000D03*
D14*
X133858000Y-95250000D03*
D15*
X128778000Y-80010000D03*
D14*
X128778000Y-95250000D03*
X123444000Y-80010000D03*
D15*
X123444000Y-95250000D03*
X118872000Y-95250000D03*
D14*
X118872000Y-80010000D03*
D15*
X114046000Y-80010000D03*
D14*
X114046000Y-95250000D03*
D15*
X108966000Y-95250000D03*
D14*
X108966000Y-80010000D03*
D15*
X97155000Y-65913000D03*
D14*
X112395000Y-65913000D03*
D15*
X112395000Y-61087000D03*
D14*
X97155000Y-61087000D03*
D16*
X141478000Y-73406000D03*
D17*
X141478000Y-75946000D03*
X141478000Y-78486000D03*
D18*
X130302000Y-73152000D03*
D19*
X129032000Y-74422000D03*
X130302000Y-75692000D03*
D20*
X97282000Y-75184000D03*
D21*
X97282000Y-77724000D03*
X97282000Y-80264000D03*
X97282000Y-82804000D03*
X97282000Y-85344000D03*
X97282000Y-87884000D03*
X97282000Y-90424000D03*
X97282000Y-92964000D03*
D22*
X138425000Y-94234000D03*
D23*
X140965000Y-94234000D03*
D24*
X117094000Y-73660000D03*
D25*
X104394000Y-73660000D03*
M02*
