%TF.GenerationSoftware,KiCad,Pcbnew,(6.0.8)*%
%TF.CreationDate,2022-11-03T15:18:16-07:00*%
%TF.ProjectId,TipBlaster_V2,54697042-6c61-4737-9465-725f56322e6b,rev?*%
%TF.SameCoordinates,Original*%
%TF.FileFunction,Copper,L2,Bot*%
%TF.FilePolarity,Positive*%
%FSLAX46Y46*%
G04 Gerber Fmt 4.6, Leading zero omitted, Abs format (unit mm)*
G04 Created by KiCad (PCBNEW (6.0.8)) date 2022-11-03 15:18:16*
%MOMM*%
%LPD*%
G01*
G04 APERTURE LIST*
%TA.AperFunction,ComponentPad*%
%ADD10R,1.600000X1.600000*%
%TD*%
%TA.AperFunction,ComponentPad*%
%ADD11O,1.600000X1.600000*%
%TD*%
%TA.AperFunction,ComponentPad*%
%ADD12C,1.600000*%
%TD*%
%TA.AperFunction,ComponentPad*%
%ADD13R,2.000000X1.905000*%
%TD*%
%TA.AperFunction,ComponentPad*%
%ADD14O,2.000000X1.905000*%
%TD*%
%TA.AperFunction,ComponentPad*%
%ADD15O,1.200000X1.600000*%
%TD*%
%TA.AperFunction,ComponentPad*%
%ADD16O,1.200000X1.200000*%
%TD*%
%TA.AperFunction,ComponentPad*%
%ADD17R,1.700000X1.700000*%
%TD*%
%TA.AperFunction,ComponentPad*%
%ADD18O,1.700000X1.700000*%
%TD*%
%TA.AperFunction,ComponentPad*%
%ADD19R,1.800000X1.800000*%
%TD*%
%TA.AperFunction,ComponentPad*%
%ADD20C,1.800000*%
%TD*%
%TA.AperFunction,ComponentPad*%
%ADD21R,2.800000X2.800000*%
%TD*%
%TA.AperFunction,ComponentPad*%
%ADD22O,2.800000X2.800000*%
%TD*%
%TA.AperFunction,ViaPad*%
%ADD23C,0.800000*%
%TD*%
%TA.AperFunction,Conductor*%
%ADD24C,0.500000*%
%TD*%
%TA.AperFunction,Conductor*%
%ADD25C,1.000000*%
%TD*%
G04 APERTURE END LIST*
D10*
X123810000Y-59827000D03*
D11*
X121270000Y-59827000D03*
X118730000Y-59827000D03*
X118730000Y-67447000D03*
X121270000Y-67447000D03*
X123810000Y-67447000D03*
D12*
X133858000Y-80010000D03*
D11*
X133858000Y-95250000D03*
D12*
X128778000Y-80010000D03*
D11*
X128778000Y-95250000D03*
X123444000Y-80010000D03*
D12*
X123444000Y-95250000D03*
X118872000Y-95250000D03*
D11*
X118872000Y-80010000D03*
D12*
X114046000Y-80010000D03*
D11*
X114046000Y-95250000D03*
D12*
X108966000Y-95250000D03*
D11*
X108966000Y-80010000D03*
D12*
X97155000Y-65913000D03*
D11*
X112395000Y-65913000D03*
D12*
X112395000Y-61087000D03*
D11*
X97155000Y-61087000D03*
D13*
X141478000Y-73406000D03*
D14*
X141478000Y-75946000D03*
X141478000Y-78486000D03*
D15*
X130302000Y-73152000D03*
D16*
X129032000Y-74422000D03*
X130302000Y-75692000D03*
D17*
X97282000Y-75184000D03*
D18*
X97282000Y-77724000D03*
X97282000Y-80264000D03*
X97282000Y-82804000D03*
X97282000Y-85344000D03*
X97282000Y-87884000D03*
X97282000Y-90424000D03*
X97282000Y-92964000D03*
D19*
X138425000Y-94234000D03*
D20*
X140965000Y-94234000D03*
D21*
X117094000Y-73660000D03*
D22*
X104394000Y-73660000D03*
D23*
X125984000Y-93218000D03*
X145796000Y-85598000D03*
X116332000Y-94234000D03*
X111506000Y-81534000D03*
X136398000Y-80010000D03*
X126238000Y-80264000D03*
X120142000Y-76708000D03*
X136652000Y-73660000D03*
X104902000Y-58674000D03*
X122428000Y-64770000D03*
X90529372Y-60812184D03*
X96520000Y-96774000D03*
X103378000Y-76962000D03*
X102362000Y-84074000D03*
X102362000Y-89408000D03*
X138430000Y-87122000D03*
X143510000Y-100838000D03*
X134366000Y-100838000D03*
X122682000Y-100838000D03*
X112014000Y-100838000D03*
X100092583Y-100825726D03*
X108458000Y-69850000D03*
X98288671Y-69833468D03*
X142494000Y-68072000D03*
X134112000Y-66548000D03*
X132588000Y-60198000D03*
D24*
X112395000Y-71247000D02*
X112395000Y-65913000D01*
X103378000Y-80264000D02*
X112395000Y-71247000D01*
X97282000Y-80264000D02*
X103378000Y-80264000D01*
X93980000Y-67310000D02*
X95377000Y-65913000D01*
X95377000Y-65913000D02*
X97155000Y-65913000D01*
X93980000Y-87122000D02*
X93980000Y-67310000D01*
X94742000Y-87884000D02*
X93980000Y-87122000D01*
X97282000Y-87884000D02*
X94742000Y-87884000D01*
D25*
X92202000Y-63500000D02*
X94615000Y-61087000D01*
X92202000Y-88138000D02*
X92202000Y-63500000D01*
X94615000Y-61087000D02*
X97155000Y-61087000D01*
X97282000Y-90424000D02*
X94488000Y-90424000D01*
X94488000Y-90424000D02*
X92202000Y-88138000D01*
D24*
X110490000Y-80010000D02*
X116840000Y-73660000D01*
X108966000Y-80010000D02*
X110490000Y-80010000D01*
X116840000Y-73660000D02*
X117094000Y-73660000D01*
D25*
X118872000Y-87122000D02*
X123444000Y-82550000D01*
X118872000Y-95250000D02*
X118872000Y-87122000D01*
X123444000Y-82550000D02*
X123444000Y-80010000D01*
X119888000Y-80010000D02*
X118872000Y-80010000D01*
X123952000Y-75946000D02*
X119888000Y-80010000D01*
X137668000Y-70612000D02*
X124206000Y-70612000D01*
X124206000Y-70612000D02*
X123952000Y-70866000D01*
X140462000Y-73406000D02*
X137668000Y-70612000D01*
X123952000Y-70866000D02*
X123952000Y-75946000D01*
X141478000Y-73406000D02*
X140462000Y-73406000D01*
D24*
X131318000Y-80264000D02*
X131318000Y-95250000D01*
X131826000Y-79756000D02*
X131318000Y-80264000D01*
X131318000Y-95250000D02*
X128778000Y-95250000D01*
X131572000Y-73152000D02*
X131826000Y-73406000D01*
X131826000Y-73406000D02*
X131826000Y-79756000D01*
X130302000Y-73152000D02*
X131572000Y-73152000D01*
%TA.AperFunction,Conductor*%
G36*
X146753621Y-57678502D02*
G01*
X146800114Y-57732158D01*
X146811500Y-57784500D01*
X146811500Y-103759500D01*
X146791498Y-103827621D01*
X146737842Y-103874114D01*
X146685500Y-103885500D01*
X88010500Y-103885500D01*
X87942379Y-103865498D01*
X87895886Y-103811842D01*
X87884500Y-103759500D01*
X87884500Y-100377404D01*
X89176941Y-100377404D01*
X89203091Y-100676292D01*
X89204001Y-100680364D01*
X89204002Y-100680369D01*
X89267628Y-100965016D01*
X89268540Y-100969095D01*
X89372140Y-101250671D01*
X89374084Y-101254359D01*
X89374088Y-101254367D01*
X89470805Y-101437807D01*
X89512069Y-101516071D01*
X89685871Y-101760633D01*
X89890490Y-101980061D01*
X90122333Y-102170498D01*
X90377325Y-102328600D01*
X90650988Y-102451589D01*
X90825368Y-102503574D01*
X90934514Y-102536112D01*
X90934516Y-102536112D01*
X90938513Y-102537304D01*
X90942633Y-102537957D01*
X90942635Y-102537957D01*
X91061509Y-102556785D01*
X91234848Y-102584239D01*
X91277577Y-102586179D01*
X91327262Y-102588436D01*
X91327281Y-102588436D01*
X91328681Y-102588500D01*
X91516107Y-102588500D01*
X91739370Y-102573671D01*
X91743464Y-102572846D01*
X91743468Y-102572845D01*
X91884513Y-102544405D01*
X92033480Y-102514368D01*
X92317163Y-102416688D01*
X92320896Y-102414819D01*
X92320900Y-102414817D01*
X92581691Y-102284222D01*
X92581693Y-102284221D01*
X92585435Y-102282347D01*
X92833584Y-102113706D01*
X93057248Y-101913726D01*
X93059966Y-101910555D01*
X93249779Y-101689097D01*
X93249782Y-101689093D01*
X93252499Y-101685923D01*
X93254773Y-101682421D01*
X93254777Y-101682416D01*
X93413628Y-101437807D01*
X93413631Y-101437802D01*
X93415907Y-101434297D01*
X93544600Y-101163270D01*
X93636318Y-100877604D01*
X93689448Y-100582316D01*
X93703059Y-100282596D01*
X93676909Y-99983708D01*
X93632832Y-99786515D01*
X93612372Y-99694984D01*
X93612371Y-99694981D01*
X93611460Y-99690905D01*
X93507860Y-99409329D01*
X93505916Y-99405641D01*
X93505912Y-99405633D01*
X93369884Y-99147633D01*
X93369883Y-99147632D01*
X93367931Y-99143929D01*
X93194129Y-98899367D01*
X92989510Y-98679939D01*
X92757667Y-98489502D01*
X92502675Y-98331400D01*
X92229012Y-98208411D01*
X92015650Y-98144805D01*
X91945486Y-98123888D01*
X91945484Y-98123888D01*
X91941487Y-98122696D01*
X91937367Y-98122043D01*
X91937365Y-98122043D01*
X91818491Y-98103215D01*
X91645152Y-98075761D01*
X91602423Y-98073821D01*
X91552738Y-98071564D01*
X91552719Y-98071564D01*
X91551319Y-98071500D01*
X91363893Y-98071500D01*
X91140630Y-98086329D01*
X91136536Y-98087154D01*
X91136532Y-98087155D01*
X90995487Y-98115595D01*
X90846520Y-98145632D01*
X90562837Y-98243312D01*
X90559104Y-98245181D01*
X90559100Y-98245183D01*
X90298309Y-98375778D01*
X90294565Y-98377653D01*
X90046416Y-98546294D01*
X89822752Y-98746274D01*
X89820035Y-98749444D01*
X89820034Y-98749445D01*
X89694155Y-98896311D01*
X89627501Y-98974077D01*
X89625227Y-98977579D01*
X89625223Y-98977584D01*
X89514792Y-99147633D01*
X89464093Y-99225703D01*
X89335400Y-99496730D01*
X89243682Y-99782396D01*
X89190552Y-100077684D01*
X89176941Y-100377404D01*
X87884500Y-100377404D01*
X87884500Y-95250000D01*
X107652502Y-95250000D01*
X107672457Y-95478087D01*
X107673881Y-95483400D01*
X107673881Y-95483402D01*
X107726371Y-95679294D01*
X107731716Y-95699243D01*
X107734039Y-95704224D01*
X107734039Y-95704225D01*
X107826151Y-95901762D01*
X107826154Y-95901767D01*
X107828477Y-95906749D01*
X107959802Y-96094300D01*
X108121700Y-96256198D01*
X108126208Y-96259355D01*
X108126211Y-96259357D01*
X108204389Y-96314098D01*
X108309251Y-96387523D01*
X108314233Y-96389846D01*
X108314238Y-96389849D01*
X108511775Y-96481961D01*
X108516757Y-96484284D01*
X108522065Y-96485706D01*
X108522067Y-96485707D01*
X108732598Y-96542119D01*
X108732600Y-96542119D01*
X108737913Y-96543543D01*
X108966000Y-96563498D01*
X109194087Y-96543543D01*
X109199400Y-96542119D01*
X109199402Y-96542119D01*
X109409933Y-96485707D01*
X109409935Y-96485706D01*
X109415243Y-96484284D01*
X109420225Y-96481961D01*
X109617762Y-96389849D01*
X109617767Y-96389846D01*
X109622749Y-96387523D01*
X109727611Y-96314098D01*
X109805789Y-96259357D01*
X109805792Y-96259355D01*
X109810300Y-96256198D01*
X109972198Y-96094300D01*
X110103523Y-95906749D01*
X110105846Y-95901767D01*
X110105849Y-95901762D01*
X110197961Y-95704225D01*
X110197961Y-95704224D01*
X110200284Y-95699243D01*
X110205630Y-95679294D01*
X110258119Y-95483402D01*
X110258119Y-95483400D01*
X110259543Y-95478087D01*
X110279498Y-95250000D01*
X112732502Y-95250000D01*
X112752457Y-95478087D01*
X112753881Y-95483400D01*
X112753881Y-95483402D01*
X112806371Y-95679294D01*
X112811716Y-95699243D01*
X112814039Y-95704224D01*
X112814039Y-95704225D01*
X112906151Y-95901762D01*
X112906154Y-95901767D01*
X112908477Y-95906749D01*
X113039802Y-96094300D01*
X113201700Y-96256198D01*
X113206208Y-96259355D01*
X113206211Y-96259357D01*
X113284389Y-96314098D01*
X113389251Y-96387523D01*
X113394233Y-96389846D01*
X113394238Y-96389849D01*
X113591775Y-96481961D01*
X113596757Y-96484284D01*
X113602065Y-96485706D01*
X113602067Y-96485707D01*
X113812598Y-96542119D01*
X113812600Y-96542119D01*
X113817913Y-96543543D01*
X114046000Y-96563498D01*
X114274087Y-96543543D01*
X114279400Y-96542119D01*
X114279402Y-96542119D01*
X114489933Y-96485707D01*
X114489935Y-96485706D01*
X114495243Y-96484284D01*
X114500225Y-96481961D01*
X114697762Y-96389849D01*
X114697767Y-96389846D01*
X114702749Y-96387523D01*
X114807611Y-96314098D01*
X114885789Y-96259357D01*
X114885792Y-96259355D01*
X114890300Y-96256198D01*
X115052198Y-96094300D01*
X115183523Y-95906749D01*
X115185846Y-95901767D01*
X115185849Y-95901762D01*
X115277961Y-95704225D01*
X115277961Y-95704224D01*
X115280284Y-95699243D01*
X115285630Y-95679294D01*
X115338119Y-95483402D01*
X115338119Y-95483400D01*
X115339543Y-95478087D01*
X115359498Y-95250000D01*
X117558502Y-95250000D01*
X117578457Y-95478087D01*
X117579881Y-95483400D01*
X117579881Y-95483402D01*
X117632371Y-95679294D01*
X117637716Y-95699243D01*
X117640039Y-95704224D01*
X117640039Y-95704225D01*
X117732151Y-95901762D01*
X117732154Y-95901767D01*
X117734477Y-95906749D01*
X117865802Y-96094300D01*
X118027700Y-96256198D01*
X118032208Y-96259355D01*
X118032211Y-96259357D01*
X118110389Y-96314098D01*
X118215251Y-96387523D01*
X118220233Y-96389846D01*
X118220238Y-96389849D01*
X118417775Y-96481961D01*
X118422757Y-96484284D01*
X118428065Y-96485706D01*
X118428067Y-96485707D01*
X118638598Y-96542119D01*
X118638600Y-96542119D01*
X118643913Y-96543543D01*
X118872000Y-96563498D01*
X119100087Y-96543543D01*
X119105400Y-96542119D01*
X119105402Y-96542119D01*
X119315933Y-96485707D01*
X119315935Y-96485706D01*
X119321243Y-96484284D01*
X119326225Y-96481961D01*
X119523762Y-96389849D01*
X119523767Y-96389846D01*
X119528749Y-96387523D01*
X119633611Y-96314098D01*
X119711789Y-96259357D01*
X119711792Y-96259355D01*
X119716300Y-96256198D01*
X119878198Y-96094300D01*
X120009523Y-95906749D01*
X120011846Y-95901767D01*
X120011849Y-95901762D01*
X120103961Y-95704225D01*
X120103961Y-95704224D01*
X120106284Y-95699243D01*
X120111630Y-95679294D01*
X120164119Y-95483402D01*
X120164119Y-95483400D01*
X120165543Y-95478087D01*
X120185498Y-95250000D01*
X122130502Y-95250000D01*
X122150457Y-95478087D01*
X122151881Y-95483400D01*
X122151881Y-95483402D01*
X122204371Y-95679294D01*
X122209716Y-95699243D01*
X122212039Y-95704224D01*
X122212039Y-95704225D01*
X122304151Y-95901762D01*
X122304154Y-95901767D01*
X122306477Y-95906749D01*
X122437802Y-96094300D01*
X122599700Y-96256198D01*
X122604208Y-96259355D01*
X122604211Y-96259357D01*
X122682389Y-96314098D01*
X122787251Y-96387523D01*
X122792233Y-96389846D01*
X122792238Y-96389849D01*
X122989775Y-96481961D01*
X122994757Y-96484284D01*
X123000065Y-96485706D01*
X123000067Y-96485707D01*
X123210598Y-96542119D01*
X123210600Y-96542119D01*
X123215913Y-96543543D01*
X123444000Y-96563498D01*
X123672087Y-96543543D01*
X123677400Y-96542119D01*
X123677402Y-96542119D01*
X123887933Y-96485707D01*
X123887935Y-96485706D01*
X123893243Y-96484284D01*
X123898225Y-96481961D01*
X124095762Y-96389849D01*
X124095767Y-96389846D01*
X124100749Y-96387523D01*
X124205611Y-96314098D01*
X124283789Y-96259357D01*
X124283792Y-96259355D01*
X124288300Y-96256198D01*
X124450198Y-96094300D01*
X124581523Y-95906749D01*
X124583846Y-95901767D01*
X124583849Y-95901762D01*
X124675961Y-95704225D01*
X124675961Y-95704224D01*
X124678284Y-95699243D01*
X124683630Y-95679294D01*
X124736119Y-95483402D01*
X124736119Y-95483400D01*
X124737543Y-95478087D01*
X124757498Y-95250000D01*
X124737543Y-95021913D01*
X124678284Y-94800757D01*
X124654303Y-94749329D01*
X124583849Y-94598238D01*
X124583846Y-94598233D01*
X124581523Y-94593251D01*
X124450198Y-94405700D01*
X124288300Y-94243802D01*
X124283792Y-94240645D01*
X124283789Y-94240643D01*
X124136018Y-94137173D01*
X124100749Y-94112477D01*
X124095767Y-94110154D01*
X124095762Y-94110151D01*
X123898225Y-94018039D01*
X123898224Y-94018039D01*
X123893243Y-94015716D01*
X123887935Y-94014294D01*
X123887933Y-94014293D01*
X123677402Y-93957881D01*
X123677400Y-93957881D01*
X123672087Y-93956457D01*
X123444000Y-93936502D01*
X123215913Y-93956457D01*
X123210600Y-93957881D01*
X123210598Y-93957881D01*
X123000067Y-94014293D01*
X123000065Y-94014294D01*
X122994757Y-94015716D01*
X122989776Y-94018039D01*
X122989775Y-94018039D01*
X122792238Y-94110151D01*
X122792233Y-94110154D01*
X122787251Y-94112477D01*
X122751982Y-94137173D01*
X122604211Y-94240643D01*
X122604208Y-94240645D01*
X122599700Y-94243802D01*
X122437802Y-94405700D01*
X122306477Y-94593251D01*
X122304154Y-94598233D01*
X122304151Y-94598238D01*
X122233697Y-94749329D01*
X122209716Y-94800757D01*
X122150457Y-95021913D01*
X122130502Y-95250000D01*
X120185498Y-95250000D01*
X120165543Y-95021913D01*
X120106284Y-94800757D01*
X120082303Y-94749329D01*
X120011849Y-94598238D01*
X120011846Y-94598233D01*
X120009523Y-94593251D01*
X119903287Y-94441531D01*
X119880500Y-94369260D01*
X119880500Y-87591925D01*
X119900502Y-87523804D01*
X119917405Y-87502830D01*
X124113379Y-83306855D01*
X124123522Y-83297753D01*
X124148218Y-83277897D01*
X124153025Y-83274032D01*
X124185320Y-83235544D01*
X124188478Y-83231925D01*
X124190124Y-83230110D01*
X124192309Y-83227925D01*
X124194264Y-83225545D01*
X124194273Y-83225535D01*
X124219549Y-83194764D01*
X124220391Y-83193749D01*
X124276194Y-83127245D01*
X124280154Y-83122526D01*
X124282723Y-83117852D01*
X124286102Y-83113739D01*
X124329975Y-83031915D01*
X124330584Y-83030793D01*
X124372464Y-82954614D01*
X124372465Y-82954612D01*
X124375433Y-82949213D01*
X124377045Y-82944131D01*
X124379562Y-82939437D01*
X124406762Y-82850469D01*
X124407108Y-82849358D01*
X124433373Y-82766563D01*
X124435235Y-82760694D01*
X124435829Y-82755398D01*
X124437387Y-82750302D01*
X124446790Y-82657743D01*
X124446911Y-82656607D01*
X124452500Y-82606773D01*
X124452500Y-82603246D01*
X124452555Y-82602261D01*
X124453002Y-82596581D01*
X124457374Y-82553538D01*
X124453059Y-82507891D01*
X124452500Y-82496033D01*
X124452500Y-81096062D01*
X128056493Y-81096062D01*
X128065789Y-81108077D01*
X128116994Y-81143931D01*
X128126489Y-81149414D01*
X128323947Y-81241490D01*
X128334239Y-81245236D01*
X128544688Y-81301625D01*
X128555481Y-81303528D01*
X128772525Y-81322517D01*
X128783475Y-81322517D01*
X129000519Y-81303528D01*
X129011312Y-81301625D01*
X129221761Y-81245236D01*
X129232053Y-81241490D01*
X129429511Y-81149414D01*
X129439006Y-81143931D01*
X129491048Y-81107491D01*
X129499424Y-81097012D01*
X129492356Y-81083566D01*
X128790812Y-80382022D01*
X128776868Y-80374408D01*
X128775035Y-80374539D01*
X128768420Y-80378790D01*
X128062923Y-81084287D01*
X128056493Y-81096062D01*
X124452500Y-81096062D01*
X124452500Y-80890740D01*
X124475287Y-80818469D01*
X124491513Y-80795296D01*
X124581523Y-80666749D01*
X124583846Y-80661767D01*
X124583849Y-80661762D01*
X124675961Y-80464225D01*
X124675961Y-80464224D01*
X124678284Y-80459243D01*
X124698976Y-80382022D01*
X124736119Y-80243402D01*
X124736119Y-80243400D01*
X124737543Y-80238087D01*
X124757019Y-80015475D01*
X127465483Y-80015475D01*
X127484472Y-80232519D01*
X127486375Y-80243312D01*
X127542764Y-80453761D01*
X127546510Y-80464053D01*
X127638586Y-80661511D01*
X127644069Y-80671006D01*
X127680509Y-80723048D01*
X127690988Y-80731424D01*
X127704434Y-80724356D01*
X128405978Y-80022812D01*
X128412356Y-80011132D01*
X129142408Y-80011132D01*
X129142539Y-80012965D01*
X129146790Y-80019580D01*
X129852287Y-80725077D01*
X129864062Y-80731507D01*
X129876077Y-80722211D01*
X129911931Y-80671006D01*
X129917414Y-80661511D01*
X130009490Y-80464053D01*
X130013236Y-80453761D01*
X130069625Y-80243312D01*
X130071528Y-80232519D01*
X130090517Y-80015475D01*
X130090517Y-80004525D01*
X130071528Y-79787481D01*
X130069625Y-79776688D01*
X130013236Y-79566239D01*
X130009490Y-79555947D01*
X129917414Y-79358489D01*
X129911931Y-79348994D01*
X129875491Y-79296952D01*
X129865012Y-79288576D01*
X129851566Y-79295644D01*
X129150022Y-79997188D01*
X129142408Y-80011132D01*
X128412356Y-80011132D01*
X128413592Y-80008868D01*
X128413461Y-80007035D01*
X128409210Y-80000420D01*
X127703713Y-79294923D01*
X127691938Y-79288493D01*
X127679923Y-79297789D01*
X127644069Y-79348994D01*
X127638586Y-79358489D01*
X127546510Y-79555947D01*
X127542764Y-79566239D01*
X127486375Y-79776688D01*
X127484472Y-79787481D01*
X127465483Y-80004525D01*
X127465483Y-80015475D01*
X124757019Y-80015475D01*
X124757498Y-80010000D01*
X124737543Y-79781913D01*
X124727858Y-79745768D01*
X124679707Y-79566067D01*
X124679706Y-79566065D01*
X124678284Y-79560757D01*
X124675961Y-79555775D01*
X124583849Y-79358238D01*
X124583846Y-79358233D01*
X124581523Y-79353251D01*
X124472654Y-79197770D01*
X124453357Y-79170211D01*
X124453355Y-79170208D01*
X124450198Y-79165700D01*
X124288300Y-79003802D01*
X124283792Y-79000645D01*
X124283789Y-79000643D01*
X124172886Y-78922988D01*
X128056576Y-78922988D01*
X128063644Y-78936434D01*
X128765188Y-79637978D01*
X128779132Y-79645592D01*
X128780965Y-79645461D01*
X128787580Y-79641210D01*
X129493077Y-78935713D01*
X129499507Y-78923938D01*
X129490211Y-78911923D01*
X129439006Y-78876069D01*
X129429511Y-78870586D01*
X129232053Y-78778510D01*
X129221761Y-78774764D01*
X129011312Y-78718375D01*
X129000519Y-78716472D01*
X128783475Y-78697483D01*
X128772525Y-78697483D01*
X128555481Y-78716472D01*
X128544688Y-78718375D01*
X128334239Y-78774764D01*
X128323947Y-78778510D01*
X128126489Y-78870586D01*
X128116994Y-78876069D01*
X128064952Y-78912509D01*
X128056576Y-78922988D01*
X124172886Y-78922988D01*
X124157920Y-78912509D01*
X124100749Y-78872477D01*
X124095767Y-78870154D01*
X124095762Y-78870151D01*
X123898225Y-78778039D01*
X123898224Y-78778039D01*
X123893243Y-78775716D01*
X123887935Y-78774294D01*
X123887933Y-78774293D01*
X123677402Y-78717881D01*
X123677400Y-78717881D01*
X123672087Y-78716457D01*
X123444000Y-78696502D01*
X123215913Y-78716457D01*
X123210600Y-78717881D01*
X123210598Y-78717881D01*
X123000067Y-78774293D01*
X123000065Y-78774294D01*
X122994757Y-78775716D01*
X122989775Y-78778039D01*
X122989770Y-78778041D01*
X122806252Y-78863616D01*
X122736061Y-78874277D01*
X122671248Y-78845297D01*
X122632392Y-78785877D01*
X122631829Y-78714882D01*
X122663908Y-78660326D01*
X124621379Y-76702855D01*
X124631522Y-76693753D01*
X124656218Y-76673897D01*
X124661025Y-76670032D01*
X124693292Y-76631578D01*
X124696472Y-76627931D01*
X124698115Y-76626119D01*
X124700309Y-76623925D01*
X124727642Y-76590651D01*
X124728348Y-76589800D01*
X124743976Y-76571176D01*
X124788154Y-76518526D01*
X124790722Y-76513856D01*
X124794103Y-76509739D01*
X124837977Y-76427914D01*
X124838606Y-76426755D01*
X124880462Y-76350619D01*
X124880465Y-76350611D01*
X124883433Y-76345213D01*
X124885045Y-76340131D01*
X124887562Y-76335437D01*
X124914747Y-76246523D01*
X124915139Y-76245265D01*
X124941372Y-76162567D01*
X124943235Y-76156694D01*
X124943829Y-76151403D01*
X124945388Y-76146302D01*
X124954790Y-76053737D01*
X124954925Y-76052470D01*
X124960108Y-76006270D01*
X124960108Y-76006265D01*
X124960500Y-76002773D01*
X124960500Y-75999248D01*
X124960555Y-75998263D01*
X124961004Y-75992559D01*
X124964752Y-75955666D01*
X124964752Y-75955661D01*
X124965374Y-75949538D01*
X124961059Y-75903891D01*
X124960500Y-75892033D01*
X124960500Y-71746500D01*
X124980502Y-71678379D01*
X125034158Y-71631886D01*
X125086500Y-71620500D01*
X130034974Y-71620500D01*
X130103095Y-71640502D01*
X130149588Y-71694158D01*
X130159692Y-71764432D01*
X130130198Y-71829012D01*
X130064495Y-71868993D01*
X129945299Y-71897719D01*
X129945297Y-71897720D01*
X129939466Y-71899125D01*
X129934008Y-71901607D01*
X129934004Y-71901608D01*
X129838570Y-71945000D01*
X129746913Y-71986674D01*
X129574389Y-72109054D01*
X129428119Y-72261850D01*
X129313380Y-72439548D01*
X129311137Y-72445114D01*
X129238061Y-72626440D01*
X129234314Y-72635737D01*
X129193772Y-72843337D01*
X129193500Y-72848899D01*
X129193500Y-73187780D01*
X129173498Y-73255901D01*
X129119842Y-73302394D01*
X129065851Y-73313769D01*
X129036535Y-73313385D01*
X128944655Y-73312183D01*
X128938958Y-73313162D01*
X128938957Y-73313162D01*
X128834942Y-73331035D01*
X128743870Y-73346684D01*
X128552734Y-73417198D01*
X128547773Y-73420150D01*
X128547772Y-73420150D01*
X128458824Y-73473069D01*
X128377649Y-73521363D01*
X128224478Y-73655690D01*
X128220911Y-73660215D01*
X128220906Y-73660220D01*
X128134331Y-73770040D01*
X128098351Y-73815681D01*
X128095662Y-73820792D01*
X128095660Y-73820795D01*
X128069792Y-73869963D01*
X128003492Y-73995978D01*
X127972527Y-74095703D01*
X127945742Y-74181965D01*
X127943078Y-74190543D01*
X127919132Y-74392859D01*
X127932457Y-74596151D01*
X127982605Y-74793610D01*
X128067898Y-74978624D01*
X128185479Y-75144997D01*
X128219065Y-75177715D01*
X128268043Y-75225427D01*
X128331410Y-75287157D01*
X128336206Y-75290362D01*
X128336209Y-75290364D01*
X128411282Y-75340526D01*
X128500803Y-75400342D01*
X128506106Y-75402620D01*
X128506109Y-75402622D01*
X128663438Y-75470216D01*
X128687987Y-75480763D01*
X128760817Y-75497243D01*
X128881055Y-75524450D01*
X128881060Y-75524451D01*
X128886692Y-75525725D01*
X128892463Y-75525952D01*
X128892465Y-75525952D01*
X129068671Y-75532875D01*
X129135954Y-75555536D01*
X129180304Y-75610976D01*
X129189404Y-75660561D01*
X129189132Y-75662859D01*
X129202457Y-75866151D01*
X129252605Y-76063610D01*
X129337898Y-76248624D01*
X129455479Y-76414997D01*
X129601410Y-76557157D01*
X129606206Y-76560362D01*
X129606209Y-76560364D01*
X129712790Y-76631579D01*
X129770803Y-76670342D01*
X129776106Y-76672620D01*
X129776109Y-76672622D01*
X129952680Y-76748483D01*
X129957987Y-76750763D01*
X129986771Y-76757276D01*
X130151055Y-76794450D01*
X130151060Y-76794451D01*
X130156692Y-76795725D01*
X130162463Y-76795952D01*
X130162465Y-76795952D01*
X130225470Y-76798427D01*
X130360263Y-76803723D01*
X130561883Y-76774490D01*
X130567347Y-76772635D01*
X130567352Y-76772634D01*
X130749327Y-76710862D01*
X130749332Y-76710860D01*
X130754799Y-76709004D01*
X130762601Y-76704635D01*
X130879934Y-76638925D01*
X130949142Y-76623091D01*
X131015924Y-76647188D01*
X131059077Y-76703565D01*
X131067500Y-76748859D01*
X131067500Y-79389629D01*
X131047498Y-79457750D01*
X131030595Y-79478724D01*
X130829089Y-79680230D01*
X130814677Y-79692616D01*
X130803082Y-79701149D01*
X130803077Y-79701154D01*
X130797182Y-79705492D01*
X130792443Y-79711070D01*
X130792440Y-79711073D01*
X130762965Y-79745768D01*
X130756035Y-79753284D01*
X130750340Y-79758979D01*
X130748060Y-79761861D01*
X130732719Y-79781251D01*
X130729928Y-79784655D01*
X130687409Y-79834703D01*
X130682667Y-79840285D01*
X130679339Y-79846801D01*
X130675972Y-79851850D01*
X130672805Y-79856979D01*
X130668266Y-79862716D01*
X130637345Y-79928875D01*
X130635442Y-79932769D01*
X130602231Y-79997808D01*
X130600492Y-80004916D01*
X130598393Y-80010559D01*
X130596476Y-80016322D01*
X130593378Y-80022950D01*
X130591888Y-80030112D01*
X130591888Y-80030113D01*
X130578514Y-80094412D01*
X130577544Y-80098696D01*
X130560192Y-80169610D01*
X130559500Y-80180764D01*
X130559464Y-80180762D01*
X130559225Y-80184755D01*
X130558851Y-80188947D01*
X130557360Y-80196115D01*
X130558345Y-80232519D01*
X130559454Y-80273521D01*
X130559500Y-80276928D01*
X130559500Y-94365500D01*
X130539498Y-94433621D01*
X130485842Y-94480114D01*
X130433500Y-94491500D01*
X129909867Y-94491500D01*
X129841746Y-94471498D01*
X129806655Y-94437772D01*
X129784198Y-94405700D01*
X129622300Y-94243802D01*
X129617792Y-94240645D01*
X129617789Y-94240643D01*
X129470018Y-94137173D01*
X129434749Y-94112477D01*
X129429767Y-94110154D01*
X129429762Y-94110151D01*
X129232225Y-94018039D01*
X129232224Y-94018039D01*
X129227243Y-94015716D01*
X129221935Y-94014294D01*
X129221933Y-94014293D01*
X129011402Y-93957881D01*
X129011400Y-93957881D01*
X129006087Y-93956457D01*
X128778000Y-93936502D01*
X128549913Y-93956457D01*
X128544600Y-93957881D01*
X128544598Y-93957881D01*
X128334067Y-94014293D01*
X128334065Y-94014294D01*
X128328757Y-94015716D01*
X128323776Y-94018039D01*
X128323775Y-94018039D01*
X128126238Y-94110151D01*
X128126233Y-94110154D01*
X128121251Y-94112477D01*
X128085982Y-94137173D01*
X127938211Y-94240643D01*
X127938208Y-94240645D01*
X127933700Y-94243802D01*
X127771802Y-94405700D01*
X127640477Y-94593251D01*
X127638154Y-94598233D01*
X127638151Y-94598238D01*
X127567697Y-94749329D01*
X127543716Y-94800757D01*
X127484457Y-95021913D01*
X127464502Y-95250000D01*
X127484457Y-95478087D01*
X127485881Y-95483400D01*
X127485881Y-95483402D01*
X127538371Y-95679294D01*
X127543716Y-95699243D01*
X127546039Y-95704224D01*
X127546039Y-95704225D01*
X127638151Y-95901762D01*
X127638154Y-95901767D01*
X127640477Y-95906749D01*
X127771802Y-96094300D01*
X127933700Y-96256198D01*
X127938208Y-96259355D01*
X127938211Y-96259357D01*
X128016389Y-96314098D01*
X128121251Y-96387523D01*
X128126233Y-96389846D01*
X128126238Y-96389849D01*
X128323775Y-96481961D01*
X128328757Y-96484284D01*
X128334065Y-96485706D01*
X128334067Y-96485707D01*
X128544598Y-96542119D01*
X128544600Y-96542119D01*
X128549913Y-96543543D01*
X128778000Y-96563498D01*
X129006087Y-96543543D01*
X129011400Y-96542119D01*
X129011402Y-96542119D01*
X129221933Y-96485707D01*
X129221935Y-96485706D01*
X129227243Y-96484284D01*
X129232225Y-96481961D01*
X129429762Y-96389849D01*
X129429767Y-96389846D01*
X129434749Y-96387523D01*
X129539611Y-96314098D01*
X129617789Y-96259357D01*
X129617792Y-96259355D01*
X129622300Y-96256198D01*
X129784198Y-96094300D01*
X129806655Y-96062229D01*
X129862110Y-96017901D01*
X129909867Y-96008500D01*
X131290165Y-96008500D01*
X131297966Y-96008742D01*
X131359298Y-96012547D01*
X131422889Y-96001620D01*
X131429610Y-96000652D01*
X131450535Y-95998212D01*
X131486411Y-95994030D01*
X131486414Y-95994029D01*
X131493681Y-95993182D01*
X131502607Y-95989942D01*
X131524258Y-95984201D01*
X131533614Y-95982594D01*
X131592996Y-95957327D01*
X131599289Y-95954848D01*
X131659937Y-95932833D01*
X131666739Y-95928374D01*
X131667878Y-95927627D01*
X131687615Y-95917067D01*
X131689623Y-95916213D01*
X131689635Y-95916206D01*
X131696364Y-95913343D01*
X131702256Y-95909007D01*
X131702261Y-95909004D01*
X131748332Y-95875100D01*
X131753928Y-95871210D01*
X131758986Y-95867894D01*
X131807852Y-95835856D01*
X131814384Y-95828961D01*
X131831166Y-95814139D01*
X131838818Y-95808508D01*
X131843553Y-95802935D01*
X131843560Y-95802928D01*
X131880581Y-95759351D01*
X131885133Y-95754277D01*
X131924457Y-95712766D01*
X131924458Y-95712765D01*
X131929490Y-95707453D01*
X131933165Y-95701126D01*
X131933172Y-95701117D01*
X131934267Y-95699232D01*
X131947185Y-95680953D01*
X131948594Y-95679294D01*
X131948596Y-95679291D01*
X131953333Y-95673715D01*
X131956659Y-95667201D01*
X131956662Y-95667197D01*
X131982670Y-95616264D01*
X131985932Y-95610281D01*
X132014649Y-95560841D01*
X132014650Y-95560839D01*
X132018326Y-95554510D01*
X132020447Y-95547506D01*
X132020449Y-95547502D01*
X132021078Y-95545425D01*
X132029451Y-95524649D01*
X132033769Y-95516192D01*
X132049108Y-95453505D01*
X132050891Y-95446988D01*
X132069595Y-95385233D01*
X132070183Y-95375754D01*
X132073551Y-95353617D01*
X132074474Y-95349846D01*
X132074476Y-95349834D01*
X132075808Y-95344390D01*
X132076500Y-95333236D01*
X132076500Y-95277835D01*
X132076742Y-95270033D01*
X132077985Y-95250000D01*
X132544502Y-95250000D01*
X132564457Y-95478087D01*
X132565881Y-95483400D01*
X132565881Y-95483402D01*
X132618371Y-95679294D01*
X132623716Y-95699243D01*
X132626039Y-95704224D01*
X132626039Y-95704225D01*
X132718151Y-95901762D01*
X132718154Y-95901767D01*
X132720477Y-95906749D01*
X132851802Y-96094300D01*
X133013700Y-96256198D01*
X133018208Y-96259355D01*
X133018211Y-96259357D01*
X133096389Y-96314098D01*
X133201251Y-96387523D01*
X133206233Y-96389846D01*
X133206238Y-96389849D01*
X133403775Y-96481961D01*
X133408757Y-96484284D01*
X133414065Y-96485706D01*
X133414067Y-96485707D01*
X133624598Y-96542119D01*
X133624600Y-96542119D01*
X133629913Y-96543543D01*
X133858000Y-96563498D01*
X134086087Y-96543543D01*
X134091400Y-96542119D01*
X134091402Y-96542119D01*
X134301933Y-96485707D01*
X134301935Y-96485706D01*
X134307243Y-96484284D01*
X134312225Y-96481961D01*
X134509762Y-96389849D01*
X134509767Y-96389846D01*
X134514749Y-96387523D01*
X134619611Y-96314098D01*
X134697789Y-96259357D01*
X134697792Y-96259355D01*
X134702300Y-96256198D01*
X134864198Y-96094300D01*
X134995523Y-95906749D01*
X134997846Y-95901767D01*
X134997849Y-95901762D01*
X135089961Y-95704225D01*
X135089961Y-95704224D01*
X135092284Y-95699243D01*
X135097630Y-95679294D01*
X135150119Y-95483402D01*
X135150119Y-95483400D01*
X135151543Y-95478087D01*
X135171498Y-95250000D01*
X135165561Y-95182134D01*
X137016500Y-95182134D01*
X137023255Y-95244316D01*
X137074385Y-95380705D01*
X137161739Y-95497261D01*
X137278295Y-95584615D01*
X137414684Y-95635745D01*
X137476866Y-95642500D01*
X139373134Y-95642500D01*
X139435316Y-95635745D01*
X139571705Y-95584615D01*
X139688261Y-95497261D01*
X139775615Y-95380705D01*
X139800180Y-95315178D01*
X139842822Y-95258414D01*
X139909383Y-95233714D01*
X139978732Y-95248921D01*
X139998647Y-95262464D01*
X140121589Y-95364532D01*
X140154349Y-95391730D01*
X140354322Y-95508584D01*
X140570694Y-95591209D01*
X140575760Y-95592240D01*
X140575761Y-95592240D01*
X140628846Y-95603040D01*
X140797656Y-95637385D01*
X140927089Y-95642131D01*
X141023949Y-95645683D01*
X141023953Y-95645683D01*
X141029113Y-95645872D01*
X141034233Y-95645216D01*
X141034235Y-95645216D01*
X141108166Y-95635745D01*
X141258847Y-95616442D01*
X141263795Y-95614957D01*
X141263802Y-95614956D01*
X141475747Y-95551369D01*
X141480690Y-95549886D01*
X141485324Y-95547616D01*
X141684049Y-95450262D01*
X141684052Y-95450260D01*
X141688684Y-95447991D01*
X141877243Y-95313494D01*
X142041303Y-95150005D01*
X142176458Y-94961917D01*
X142253484Y-94806067D01*
X142276784Y-94758922D01*
X142276785Y-94758920D01*
X142279078Y-94754280D01*
X142346408Y-94532671D01*
X142376640Y-94303041D01*
X142377373Y-94273030D01*
X142378245Y-94237365D01*
X142378245Y-94237361D01*
X142378327Y-94234000D01*
X142368145Y-94110151D01*
X142359773Y-94008318D01*
X142359772Y-94008312D01*
X142359349Y-94003167D01*
X142302925Y-93778533D01*
X142298818Y-93769088D01*
X142212630Y-93570868D01*
X142212628Y-93570865D01*
X142210570Y-93566131D01*
X142084764Y-93371665D01*
X141928887Y-93200358D01*
X141924836Y-93197159D01*
X141924832Y-93197155D01*
X141751177Y-93060011D01*
X141751172Y-93060008D01*
X141747123Y-93056810D01*
X141742607Y-93054317D01*
X141742604Y-93054315D01*
X141548879Y-92947373D01*
X141548875Y-92947371D01*
X141544355Y-92944876D01*
X141539486Y-92943152D01*
X141539482Y-92943150D01*
X141330903Y-92869288D01*
X141330899Y-92869287D01*
X141326028Y-92867562D01*
X141320935Y-92866655D01*
X141320932Y-92866654D01*
X141103095Y-92827851D01*
X141103089Y-92827850D01*
X141098006Y-92826945D01*
X141025096Y-92826054D01*
X140871581Y-92824179D01*
X140871579Y-92824179D01*
X140866411Y-92824116D01*
X140637464Y-92859150D01*
X140417314Y-92931106D01*
X140412726Y-92933494D01*
X140412722Y-92933496D01*
X140216461Y-93035663D01*
X140211872Y-93038052D01*
X140207739Y-93041155D01*
X140207736Y-93041157D01*
X140030790Y-93174012D01*
X140026655Y-93177117D01*
X140009170Y-93195414D01*
X139947646Y-93230844D01*
X139876733Y-93227387D01*
X139818947Y-93186141D01*
X139800094Y-93152592D01*
X139778768Y-93095705D01*
X139778767Y-93095703D01*
X139775615Y-93087295D01*
X139688261Y-92970739D01*
X139571705Y-92883385D01*
X139435316Y-92832255D01*
X139373134Y-92825500D01*
X137476866Y-92825500D01*
X137414684Y-92832255D01*
X137278295Y-92883385D01*
X137161739Y-92970739D01*
X137074385Y-93087295D01*
X137023255Y-93223684D01*
X137016500Y-93285866D01*
X137016500Y-95182134D01*
X135165561Y-95182134D01*
X135151543Y-95021913D01*
X135092284Y-94800757D01*
X135068303Y-94749329D01*
X134997849Y-94598238D01*
X134997846Y-94598233D01*
X134995523Y-94593251D01*
X134864198Y-94405700D01*
X134702300Y-94243802D01*
X134697792Y-94240645D01*
X134697789Y-94240643D01*
X134550018Y-94137173D01*
X134514749Y-94112477D01*
X134509767Y-94110154D01*
X134509762Y-94110151D01*
X134312225Y-94018039D01*
X134312224Y-94018039D01*
X134307243Y-94015716D01*
X134301935Y-94014294D01*
X134301933Y-94014293D01*
X134091402Y-93957881D01*
X134091400Y-93957881D01*
X134086087Y-93956457D01*
X133858000Y-93936502D01*
X133629913Y-93956457D01*
X133624600Y-93957881D01*
X133624598Y-93957881D01*
X133414067Y-94014293D01*
X133414065Y-94014294D01*
X133408757Y-94015716D01*
X133403776Y-94018039D01*
X133403775Y-94018039D01*
X133206238Y-94110151D01*
X133206233Y-94110154D01*
X133201251Y-94112477D01*
X133165982Y-94137173D01*
X133018211Y-94240643D01*
X133018208Y-94240645D01*
X133013700Y-94243802D01*
X132851802Y-94405700D01*
X132720477Y-94593251D01*
X132718154Y-94598233D01*
X132718151Y-94598238D01*
X132647697Y-94749329D01*
X132623716Y-94800757D01*
X132564457Y-95021913D01*
X132544502Y-95250000D01*
X132077985Y-95250000D01*
X132078052Y-95248921D01*
X132080547Y-95208702D01*
X132078320Y-95195740D01*
X132076500Y-95174404D01*
X132076500Y-81096062D01*
X133136493Y-81096062D01*
X133145789Y-81108077D01*
X133196994Y-81143931D01*
X133206489Y-81149414D01*
X133403947Y-81241490D01*
X133414239Y-81245236D01*
X133624688Y-81301625D01*
X133635481Y-81303528D01*
X133852525Y-81322517D01*
X133863475Y-81322517D01*
X134080519Y-81303528D01*
X134091312Y-81301625D01*
X134301761Y-81245236D01*
X134312053Y-81241490D01*
X134509511Y-81149414D01*
X134519006Y-81143931D01*
X134571048Y-81107491D01*
X134579424Y-81097012D01*
X134572356Y-81083566D01*
X133870812Y-80382022D01*
X133856868Y-80374408D01*
X133855035Y-80374539D01*
X133848420Y-80378790D01*
X133142923Y-81084287D01*
X133136493Y-81096062D01*
X132076500Y-81096062D01*
X132076500Y-80630371D01*
X132096502Y-80562250D01*
X132113405Y-80541276D01*
X132314911Y-80339770D01*
X132329323Y-80327384D01*
X132340918Y-80318851D01*
X132340923Y-80318846D01*
X132346818Y-80314508D01*
X132351557Y-80308930D01*
X132351560Y-80308927D01*
X132372683Y-80284063D01*
X132432032Y-80245098D01*
X132503025Y-80244405D01*
X132563123Y-80282204D01*
X132590415Y-80333031D01*
X132622764Y-80453761D01*
X132626510Y-80464053D01*
X132718586Y-80661511D01*
X132724069Y-80671006D01*
X132760509Y-80723048D01*
X132770988Y-80731424D01*
X132784434Y-80724356D01*
X133485978Y-80022812D01*
X133492356Y-80011132D01*
X134222408Y-80011132D01*
X134222539Y-80012965D01*
X134226790Y-80019580D01*
X134932287Y-80725077D01*
X134944062Y-80731507D01*
X134956077Y-80722211D01*
X134991931Y-80671006D01*
X134997414Y-80661511D01*
X135089490Y-80464053D01*
X135093236Y-80453761D01*
X135149625Y-80243312D01*
X135151528Y-80232519D01*
X135170517Y-80015475D01*
X135170517Y-80004525D01*
X135151528Y-79787481D01*
X135149625Y-79776688D01*
X135093236Y-79566239D01*
X135089490Y-79555947D01*
X134997414Y-79358489D01*
X134991931Y-79348994D01*
X134955491Y-79296952D01*
X134945012Y-79288576D01*
X134931566Y-79295644D01*
X134230022Y-79997188D01*
X134222408Y-80011132D01*
X133492356Y-80011132D01*
X133493592Y-80008868D01*
X133493461Y-80007035D01*
X133489210Y-80000420D01*
X132783713Y-79294923D01*
X132769769Y-79287309D01*
X132757387Y-79288194D01*
X132721482Y-79302239D01*
X132651877Y-79288251D01*
X132600885Y-79238852D01*
X132584500Y-79176719D01*
X132584500Y-78922988D01*
X133136576Y-78922988D01*
X133143644Y-78936434D01*
X133845188Y-79637978D01*
X133859132Y-79645592D01*
X133860965Y-79645461D01*
X133867580Y-79641210D01*
X134573077Y-78935713D01*
X134579507Y-78923938D01*
X134570211Y-78911923D01*
X134519006Y-78876069D01*
X134509511Y-78870586D01*
X134312053Y-78778510D01*
X134301761Y-78774764D01*
X134091312Y-78718375D01*
X134080519Y-78716472D01*
X133863475Y-78697483D01*
X133852525Y-78697483D01*
X133635481Y-78716472D01*
X133624688Y-78718375D01*
X133414239Y-78774764D01*
X133403947Y-78778510D01*
X133206489Y-78870586D01*
X133196994Y-78876069D01*
X133144952Y-78912509D01*
X133136576Y-78922988D01*
X132584500Y-78922988D01*
X132584500Y-73473069D01*
X132585933Y-73454118D01*
X132588099Y-73439883D01*
X132588099Y-73439881D01*
X132589199Y-73432651D01*
X132588183Y-73420150D01*
X132584915Y-73379982D01*
X132584500Y-73369767D01*
X132584500Y-73361707D01*
X132581211Y-73333493D01*
X132580778Y-73329118D01*
X132575454Y-73263661D01*
X132575453Y-73263658D01*
X132574860Y-73256363D01*
X132572604Y-73249399D01*
X132571413Y-73243440D01*
X132570029Y-73237585D01*
X132569182Y-73230319D01*
X132544265Y-73161673D01*
X132542848Y-73157545D01*
X132522607Y-73095064D01*
X132522606Y-73095062D01*
X132520351Y-73088101D01*
X132516555Y-73081846D01*
X132514049Y-73076372D01*
X132511330Y-73070942D01*
X132508833Y-73064063D01*
X132468809Y-73003016D01*
X132466472Y-72999312D01*
X132431509Y-72941693D01*
X132431505Y-72941688D01*
X132428595Y-72936892D01*
X132421197Y-72928516D01*
X132421223Y-72928493D01*
X132418574Y-72925503D01*
X132415866Y-72922264D01*
X132411856Y-72916148D01*
X132406549Y-72911121D01*
X132406546Y-72911117D01*
X132355617Y-72862872D01*
X132353175Y-72860494D01*
X132155770Y-72663089D01*
X132143384Y-72648677D01*
X132134851Y-72637082D01*
X132134846Y-72637077D01*
X132130508Y-72631182D01*
X132124930Y-72626443D01*
X132124927Y-72626440D01*
X132090232Y-72596965D01*
X132082716Y-72590035D01*
X132077021Y-72584340D01*
X132070880Y-72579482D01*
X132054749Y-72566719D01*
X132051345Y-72563928D01*
X132001297Y-72521409D01*
X132001295Y-72521408D01*
X131995715Y-72516667D01*
X131989199Y-72513339D01*
X131984150Y-72509972D01*
X131979021Y-72506805D01*
X131973284Y-72502266D01*
X131907125Y-72471345D01*
X131903225Y-72469439D01*
X131838192Y-72436231D01*
X131831084Y-72434492D01*
X131825441Y-72432393D01*
X131819678Y-72430476D01*
X131813050Y-72427378D01*
X131782166Y-72420954D01*
X131741588Y-72412514D01*
X131737299Y-72411543D01*
X131666390Y-72394192D01*
X131660788Y-72393844D01*
X131660785Y-72393844D01*
X131655236Y-72393500D01*
X131655238Y-72393464D01*
X131651245Y-72393225D01*
X131647053Y-72392851D01*
X131639885Y-72391360D01*
X131573675Y-72393151D01*
X131562479Y-72393454D01*
X131559072Y-72393500D01*
X131334148Y-72393500D01*
X131266027Y-72373498D01*
X131235062Y-72345333D01*
X131112102Y-72188798D01*
X131108396Y-72184080D01*
X131103865Y-72180148D01*
X131103862Y-72180145D01*
X130953167Y-72049379D01*
X130948637Y-72045448D01*
X130943451Y-72042448D01*
X130943447Y-72042445D01*
X130770742Y-71942533D01*
X130765546Y-71939527D01*
X130642329Y-71896739D01*
X130571394Y-71872106D01*
X130571392Y-71872105D01*
X130565729Y-71870139D01*
X130559792Y-71869278D01*
X130558306Y-71868916D01*
X130496860Y-71833351D01*
X130464396Y-71770211D01*
X130471222Y-71699543D01*
X130515169Y-71643784D01*
X130588145Y-71620500D01*
X137198075Y-71620500D01*
X137266196Y-71640502D01*
X137287170Y-71657405D01*
X139705145Y-74075379D01*
X139714247Y-74085522D01*
X139737968Y-74115025D01*
X139776421Y-74147291D01*
X139780069Y-74150472D01*
X139781881Y-74152115D01*
X139784075Y-74154309D01*
X139817349Y-74181642D01*
X139818147Y-74182304D01*
X139889474Y-74242154D01*
X139894144Y-74244722D01*
X139898261Y-74248103D01*
X139903691Y-74251014D01*
X139908807Y-74254439D01*
X139908038Y-74255588D01*
X139953624Y-74300484D01*
X139969500Y-74361710D01*
X139969500Y-74406634D01*
X139976255Y-74468816D01*
X140027385Y-74605205D01*
X140114739Y-74721761D01*
X140231295Y-74809115D01*
X140251189Y-74816573D01*
X140307953Y-74859213D01*
X140332654Y-74925774D01*
X140317447Y-74995123D01*
X140305842Y-75012647D01*
X140212633Y-75130670D01*
X140212630Y-75130675D01*
X140209432Y-75134724D01*
X140206939Y-75139240D01*
X140206937Y-75139243D01*
X140107407Y-75319542D01*
X140093326Y-75345050D01*
X140091602Y-75349919D01*
X140091600Y-75349923D01*
X140015441Y-75564988D01*
X140013130Y-75571515D01*
X140012223Y-75576608D01*
X140012222Y-75576611D01*
X139995833Y-75668622D01*
X139970999Y-75808037D01*
X139970936Y-75813201D01*
X139968745Y-75992559D01*
X139968064Y-76048263D01*
X140004404Y-76285744D01*
X140024099Y-76346001D01*
X140077434Y-76509183D01*
X140077437Y-76509189D01*
X140079042Y-76514101D01*
X140081429Y-76518687D01*
X140081431Y-76518691D01*
X140148323Y-76647188D01*
X140189975Y-76727200D01*
X140193085Y-76731342D01*
X140313919Y-76892277D01*
X140334223Y-76919320D01*
X140337961Y-76922892D01*
X140467206Y-77046401D01*
X140507912Y-77085301D01*
X140544903Y-77110535D01*
X140589904Y-77165444D01*
X140598075Y-77235968D01*
X140566821Y-77299716D01*
X140542340Y-77320411D01*
X140540707Y-77321468D01*
X140536023Y-77324498D01*
X140358330Y-77486186D01*
X140334141Y-77516815D01*
X140212633Y-77670670D01*
X140212630Y-77670675D01*
X140209432Y-77674724D01*
X140206939Y-77679240D01*
X140206937Y-77679243D01*
X140143639Y-77793908D01*
X140093326Y-77885050D01*
X140091602Y-77889919D01*
X140091600Y-77889923D01*
X140014856Y-78106640D01*
X140013130Y-78111515D01*
X140012223Y-78116608D01*
X140012222Y-78116611D01*
X139973530Y-78333829D01*
X139970999Y-78348037D01*
X139968064Y-78588263D01*
X140004404Y-78825744D01*
X140032763Y-78912509D01*
X140077434Y-79049183D01*
X140077437Y-79049189D01*
X140079042Y-79054101D01*
X140081429Y-79058687D01*
X140081431Y-79058691D01*
X140117823Y-79128598D01*
X140189975Y-79267200D01*
X140212557Y-79297276D01*
X140313919Y-79432277D01*
X140334223Y-79459320D01*
X140337961Y-79462892D01*
X140467206Y-79586401D01*
X140507912Y-79625301D01*
X140706378Y-79760686D01*
X140711061Y-79762860D01*
X140711065Y-79762862D01*
X140919595Y-79859658D01*
X140919599Y-79859659D01*
X140924290Y-79861837D01*
X141155798Y-79926040D01*
X141160935Y-79926589D01*
X141348593Y-79946644D01*
X141348601Y-79946644D01*
X141351928Y-79947000D01*
X141586402Y-79947000D01*
X141588975Y-79946788D01*
X141588986Y-79946788D01*
X141689946Y-79938487D01*
X141764937Y-79932322D01*
X141997944Y-79873794D01*
X142193855Y-79788610D01*
X142213526Y-79780057D01*
X142213529Y-79780055D01*
X142218263Y-79777997D01*
X142358963Y-79686974D01*
X142415637Y-79650310D01*
X142415640Y-79650308D01*
X142419977Y-79647502D01*
X142597670Y-79485814D01*
X142660594Y-79406138D01*
X142743367Y-79301330D01*
X142743370Y-79301325D01*
X142746568Y-79297276D01*
X142751417Y-79288493D01*
X142860177Y-79091474D01*
X142860179Y-79091470D01*
X142862674Y-79086950D01*
X142868440Y-79070669D01*
X142941144Y-78865360D01*
X142941145Y-78865356D01*
X142942870Y-78860485D01*
X142943778Y-78855389D01*
X142984095Y-78629052D01*
X142984096Y-78629046D01*
X142985001Y-78623963D01*
X142986214Y-78524689D01*
X142987873Y-78388907D01*
X142987873Y-78388905D01*
X142987936Y-78383737D01*
X142951596Y-78146256D01*
X142914906Y-78034003D01*
X142878566Y-77922817D01*
X142878563Y-77922811D01*
X142876958Y-77917899D01*
X142766025Y-77704800D01*
X142621777Y-77512680D01*
X142448088Y-77346699D01*
X142411097Y-77321465D01*
X142366096Y-77266556D01*
X142357925Y-77196032D01*
X142389179Y-77132284D01*
X142413660Y-77111589D01*
X142415635Y-77110311D01*
X142419977Y-77107502D01*
X142597670Y-76945814D01*
X142660594Y-76866138D01*
X142743367Y-76761330D01*
X142743370Y-76761325D01*
X142746568Y-76757276D01*
X142750164Y-76750763D01*
X142860177Y-76551474D01*
X142860179Y-76551470D01*
X142862674Y-76546950D01*
X142864649Y-76541375D01*
X142941144Y-76325360D01*
X142941145Y-76325356D01*
X142942870Y-76320485D01*
X142948676Y-76287891D01*
X142984095Y-76089052D01*
X142984096Y-76089046D01*
X142985001Y-76083963D01*
X142986118Y-75992559D01*
X142987873Y-75848907D01*
X142987873Y-75848905D01*
X142987936Y-75843737D01*
X142951596Y-75606256D01*
X142906564Y-75468480D01*
X142878566Y-75382817D01*
X142878563Y-75382811D01*
X142876958Y-75377899D01*
X142868959Y-75362532D01*
X142768416Y-75169393D01*
X142766025Y-75164800D01*
X142649585Y-75009717D01*
X142624680Y-74943235D01*
X142639672Y-74873839D01*
X142689802Y-74823565D01*
X142706115Y-74816085D01*
X142716293Y-74812269D01*
X142716296Y-74812267D01*
X142724705Y-74809115D01*
X142841261Y-74721761D01*
X142928615Y-74605205D01*
X142979745Y-74468816D01*
X142986500Y-74406634D01*
X142986500Y-72405366D01*
X142979745Y-72343184D01*
X142928615Y-72206795D01*
X142841261Y-72090239D01*
X142724705Y-72002885D01*
X142588316Y-71951755D01*
X142526134Y-71945000D01*
X140479424Y-71945000D01*
X140411303Y-71924998D01*
X140390329Y-71908095D01*
X138424855Y-69942621D01*
X138415753Y-69932478D01*
X138395897Y-69907782D01*
X138392032Y-69902975D01*
X138353578Y-69870708D01*
X138349931Y-69867528D01*
X138348119Y-69865885D01*
X138345925Y-69863691D01*
X138312651Y-69836358D01*
X138311853Y-69835696D01*
X138240526Y-69775846D01*
X138235856Y-69773278D01*
X138231739Y-69769897D01*
X138149914Y-69726023D01*
X138148755Y-69725394D01*
X138072619Y-69683538D01*
X138072611Y-69683535D01*
X138067213Y-69680567D01*
X138062131Y-69678955D01*
X138057437Y-69676438D01*
X137968469Y-69649238D01*
X137967441Y-69648918D01*
X137878694Y-69620765D01*
X137873398Y-69620171D01*
X137868302Y-69618613D01*
X137775743Y-69609210D01*
X137774607Y-69609089D01*
X137740992Y-69605319D01*
X137728270Y-69603892D01*
X137728266Y-69603892D01*
X137724773Y-69603500D01*
X137721246Y-69603500D01*
X137720261Y-69603445D01*
X137714581Y-69602998D01*
X137685175Y-69600011D01*
X137677663Y-69599248D01*
X137677661Y-69599248D01*
X137671538Y-69598626D01*
X137629259Y-69602623D01*
X137625891Y-69602941D01*
X137614033Y-69603500D01*
X124267842Y-69603500D01*
X124254235Y-69602763D01*
X124222737Y-69599341D01*
X124222732Y-69599341D01*
X124216611Y-69598676D01*
X124198611Y-69600251D01*
X124166609Y-69603050D01*
X124161784Y-69603379D01*
X124159313Y-69603500D01*
X124156231Y-69603500D01*
X124133763Y-69605703D01*
X124113489Y-69607691D01*
X124112174Y-69607813D01*
X124079913Y-69610636D01*
X124019587Y-69615913D01*
X124014468Y-69617400D01*
X124009167Y-69617920D01*
X124003262Y-69619703D01*
X124003261Y-69619703D01*
X123983907Y-69625546D01*
X123920194Y-69644782D01*
X123919054Y-69645120D01*
X123829663Y-69671091D01*
X123824929Y-69673545D01*
X123819831Y-69675084D01*
X123814387Y-69677978D01*
X123814386Y-69677979D01*
X123737831Y-69718684D01*
X123736663Y-69719298D01*
X123654074Y-69762108D01*
X123649911Y-69765431D01*
X123645204Y-69767934D01*
X123573082Y-69826755D01*
X123572226Y-69827446D01*
X123533027Y-69858738D01*
X123530523Y-69861242D01*
X123529805Y-69861884D01*
X123525472Y-69865585D01*
X123491938Y-69892935D01*
X123488010Y-69897683D01*
X123488009Y-69897684D01*
X123462716Y-69928258D01*
X123454728Y-69937037D01*
X123282616Y-70109150D01*
X123272473Y-70118252D01*
X123242975Y-70141968D01*
X123239008Y-70146696D01*
X123210709Y-70180421D01*
X123207528Y-70184069D01*
X123205885Y-70185881D01*
X123203691Y-70188075D01*
X123176358Y-70221349D01*
X123175696Y-70222147D01*
X123115846Y-70293474D01*
X123113278Y-70298144D01*
X123109897Y-70302261D01*
X123078860Y-70360145D01*
X123066023Y-70384086D01*
X123065394Y-70385245D01*
X123023538Y-70461381D01*
X123023535Y-70461389D01*
X123020567Y-70466787D01*
X123018955Y-70471869D01*
X123016438Y-70476563D01*
X122989238Y-70565531D01*
X122988918Y-70566559D01*
X122960765Y-70655306D01*
X122960171Y-70660602D01*
X122958613Y-70665698D01*
X122957990Y-70671834D01*
X122949218Y-70758187D01*
X122949089Y-70759393D01*
X122943500Y-70809227D01*
X122943500Y-70812754D01*
X122943445Y-70813739D01*
X122942998Y-70819419D01*
X122938626Y-70862462D01*
X122942623Y-70904741D01*
X122942941Y-70908109D01*
X122943500Y-70919967D01*
X122943500Y-75476075D01*
X122923498Y-75544196D01*
X122906595Y-75565170D01*
X121257169Y-77214597D01*
X119639242Y-78832524D01*
X119576930Y-78866550D01*
X119506115Y-78861485D01*
X119496898Y-78857624D01*
X119326230Y-78778041D01*
X119326225Y-78778039D01*
X119321243Y-78775716D01*
X119315935Y-78774294D01*
X119315933Y-78774293D01*
X119105402Y-78717881D01*
X119105400Y-78717881D01*
X119100087Y-78716457D01*
X118872000Y-78696502D01*
X118643913Y-78716457D01*
X118638600Y-78717881D01*
X118638598Y-78717881D01*
X118428067Y-78774293D01*
X118428065Y-78774294D01*
X118422757Y-78775716D01*
X118417776Y-78778039D01*
X118417775Y-78778039D01*
X118220238Y-78870151D01*
X118220233Y-78870154D01*
X118215251Y-78872477D01*
X118158080Y-78912509D01*
X118032211Y-79000643D01*
X118032208Y-79000645D01*
X118027700Y-79003802D01*
X117865802Y-79165700D01*
X117862645Y-79170208D01*
X117862643Y-79170211D01*
X117843346Y-79197770D01*
X117734477Y-79353251D01*
X117732154Y-79358233D01*
X117732151Y-79358238D01*
X117640039Y-79555775D01*
X117637716Y-79560757D01*
X117636294Y-79566065D01*
X117636293Y-79566067D01*
X117588142Y-79745768D01*
X117578457Y-79781913D01*
X117558502Y-80010000D01*
X117578457Y-80238087D01*
X117579881Y-80243400D01*
X117579881Y-80243402D01*
X117617025Y-80382022D01*
X117637716Y-80459243D01*
X117640039Y-80464224D01*
X117640039Y-80464225D01*
X117732151Y-80661762D01*
X117732154Y-80661767D01*
X117734477Y-80666749D01*
X117803421Y-80765211D01*
X117858971Y-80844544D01*
X117865802Y-80854300D01*
X118027700Y-81016198D01*
X118032208Y-81019355D01*
X118032211Y-81019357D01*
X118108807Y-81072990D01*
X118215251Y-81147523D01*
X118220233Y-81149846D01*
X118220238Y-81149849D01*
X118400769Y-81234031D01*
X118422757Y-81244284D01*
X118428065Y-81245706D01*
X118428067Y-81245707D01*
X118638598Y-81302119D01*
X118638600Y-81302119D01*
X118643913Y-81303543D01*
X118872000Y-81323498D01*
X119100087Y-81303543D01*
X119105400Y-81302119D01*
X119105402Y-81302119D01*
X119315933Y-81245707D01*
X119315935Y-81245706D01*
X119321243Y-81244284D01*
X119343231Y-81234031D01*
X119523762Y-81149849D01*
X119523767Y-81149846D01*
X119528749Y-81147523D01*
X119680469Y-81041287D01*
X119752740Y-81018500D01*
X119826157Y-81018500D01*
X119839764Y-81019237D01*
X119871262Y-81022659D01*
X119871267Y-81022659D01*
X119877388Y-81023324D01*
X119903638Y-81021027D01*
X119927388Y-81018950D01*
X119932214Y-81018621D01*
X119934686Y-81018500D01*
X119937769Y-81018500D01*
X119949738Y-81017326D01*
X119980506Y-81014310D01*
X119981819Y-81014188D01*
X120026084Y-81010315D01*
X120074413Y-81006087D01*
X120079532Y-81004600D01*
X120084833Y-81004080D01*
X120173834Y-80977209D01*
X120174967Y-80976874D01*
X120258414Y-80952630D01*
X120258418Y-80952628D01*
X120264336Y-80950909D01*
X120269068Y-80948456D01*
X120274169Y-80946916D01*
X120281873Y-80942820D01*
X120356260Y-80903269D01*
X120357426Y-80902657D01*
X120434453Y-80862729D01*
X120439926Y-80859892D01*
X120444089Y-80856569D01*
X120448796Y-80854066D01*
X120520918Y-80795245D01*
X120521774Y-80794554D01*
X120560973Y-80763262D01*
X120563477Y-80760758D01*
X120564195Y-80760116D01*
X120568528Y-80756415D01*
X120602062Y-80729065D01*
X120631288Y-80693737D01*
X120639277Y-80684958D01*
X122094326Y-79229909D01*
X122156638Y-79195883D01*
X122227453Y-79200948D01*
X122284289Y-79243495D01*
X122309100Y-79310015D01*
X122297616Y-79372253D01*
X122209716Y-79560757D01*
X122208294Y-79566065D01*
X122208293Y-79566067D01*
X122160142Y-79745768D01*
X122150457Y-79781913D01*
X122130502Y-80010000D01*
X122150457Y-80238087D01*
X122151881Y-80243400D01*
X122151881Y-80243402D01*
X122189025Y-80382022D01*
X122209716Y-80459243D01*
X122212039Y-80464224D01*
X122212039Y-80464225D01*
X122304151Y-80661762D01*
X122304154Y-80661767D01*
X122306477Y-80666749D01*
X122396487Y-80795296D01*
X122412713Y-80818469D01*
X122435500Y-80890740D01*
X122435500Y-82080076D01*
X122415498Y-82148197D01*
X122398595Y-82169171D01*
X118202621Y-86365145D01*
X118192478Y-86374247D01*
X118162975Y-86397968D01*
X118159008Y-86402696D01*
X118130709Y-86436421D01*
X118127528Y-86440069D01*
X118125885Y-86441881D01*
X118123691Y-86444075D01*
X118096358Y-86477349D01*
X118095696Y-86478147D01*
X118035846Y-86549474D01*
X118033278Y-86554144D01*
X118029897Y-86558261D01*
X118021813Y-86573338D01*
X117986023Y-86640086D01*
X117985394Y-86641245D01*
X117943538Y-86717381D01*
X117943535Y-86717389D01*
X117940567Y-86722787D01*
X117938955Y-86727869D01*
X117936438Y-86732563D01*
X117909238Y-86821531D01*
X117908918Y-86822559D01*
X117880765Y-86911306D01*
X117880171Y-86916602D01*
X117878613Y-86921698D01*
X117877990Y-86927834D01*
X117869218Y-87014187D01*
X117869089Y-87015393D01*
X117863500Y-87065227D01*
X117863500Y-87068754D01*
X117863445Y-87069739D01*
X117862998Y-87075419D01*
X117858626Y-87118462D01*
X117861902Y-87153120D01*
X117862941Y-87164109D01*
X117863500Y-87175967D01*
X117863500Y-94369260D01*
X117840713Y-94441531D01*
X117734477Y-94593251D01*
X117732154Y-94598233D01*
X117732151Y-94598238D01*
X117661697Y-94749329D01*
X117637716Y-94800757D01*
X117578457Y-95021913D01*
X117558502Y-95250000D01*
X115359498Y-95250000D01*
X115339543Y-95021913D01*
X115280284Y-94800757D01*
X115256303Y-94749329D01*
X115185849Y-94598238D01*
X115185846Y-94598233D01*
X115183523Y-94593251D01*
X115052198Y-94405700D01*
X114890300Y-94243802D01*
X114885792Y-94240645D01*
X114885789Y-94240643D01*
X114738018Y-94137173D01*
X114702749Y-94112477D01*
X114697767Y-94110154D01*
X114697762Y-94110151D01*
X114500225Y-94018039D01*
X114500224Y-94018039D01*
X114495243Y-94015716D01*
X114489935Y-94014294D01*
X114489933Y-94014293D01*
X114279402Y-93957881D01*
X114279400Y-93957881D01*
X114274087Y-93956457D01*
X114046000Y-93936502D01*
X113817913Y-93956457D01*
X113812600Y-93957881D01*
X113812598Y-93957881D01*
X113602067Y-94014293D01*
X113602065Y-94014294D01*
X113596757Y-94015716D01*
X113591776Y-94018039D01*
X113591775Y-94018039D01*
X113394238Y-94110151D01*
X113394233Y-94110154D01*
X113389251Y-94112477D01*
X113353982Y-94137173D01*
X113206211Y-94240643D01*
X113206208Y-94240645D01*
X113201700Y-94243802D01*
X113039802Y-94405700D01*
X112908477Y-94593251D01*
X112906154Y-94598233D01*
X112906151Y-94598238D01*
X112835697Y-94749329D01*
X112811716Y-94800757D01*
X112752457Y-95021913D01*
X112732502Y-95250000D01*
X110279498Y-95250000D01*
X110259543Y-95021913D01*
X110200284Y-94800757D01*
X110176303Y-94749329D01*
X110105849Y-94598238D01*
X110105846Y-94598233D01*
X110103523Y-94593251D01*
X109972198Y-94405700D01*
X109810300Y-94243802D01*
X109805792Y-94240645D01*
X109805789Y-94240643D01*
X109658018Y-94137173D01*
X109622749Y-94112477D01*
X109617767Y-94110154D01*
X109617762Y-94110151D01*
X109420225Y-94018039D01*
X109420224Y-94018039D01*
X109415243Y-94015716D01*
X109409935Y-94014294D01*
X109409933Y-94014293D01*
X109199402Y-93957881D01*
X109199400Y-93957881D01*
X109194087Y-93956457D01*
X108966000Y-93936502D01*
X108737913Y-93956457D01*
X108732600Y-93957881D01*
X108732598Y-93957881D01*
X108522067Y-94014293D01*
X108522065Y-94014294D01*
X108516757Y-94015716D01*
X108511776Y-94018039D01*
X108511775Y-94018039D01*
X108314238Y-94110151D01*
X108314233Y-94110154D01*
X108309251Y-94112477D01*
X108273982Y-94137173D01*
X108126211Y-94240643D01*
X108126208Y-94240645D01*
X108121700Y-94243802D01*
X107959802Y-94405700D01*
X107828477Y-94593251D01*
X107826154Y-94598233D01*
X107826151Y-94598238D01*
X107755697Y-94749329D01*
X107731716Y-94800757D01*
X107672457Y-95021913D01*
X107652502Y-95250000D01*
X87884500Y-95250000D01*
X87884500Y-63496462D01*
X91188626Y-63496462D01*
X91189206Y-63502593D01*
X91192941Y-63542109D01*
X91193500Y-63553967D01*
X91193500Y-88076157D01*
X91192763Y-88089764D01*
X91188676Y-88127388D01*
X91189213Y-88133523D01*
X91193050Y-88177388D01*
X91193379Y-88182214D01*
X91193500Y-88184686D01*
X91193500Y-88187769D01*
X91193801Y-88190837D01*
X91197690Y-88230506D01*
X91197812Y-88231819D01*
X91205913Y-88324413D01*
X91207400Y-88329532D01*
X91207920Y-88334833D01*
X91234791Y-88423834D01*
X91235126Y-88424967D01*
X91248400Y-88470653D01*
X91261091Y-88514336D01*
X91263544Y-88519068D01*
X91265084Y-88524169D01*
X91267978Y-88529612D01*
X91308731Y-88606260D01*
X91309343Y-88607426D01*
X91349271Y-88684453D01*
X91352108Y-88689926D01*
X91355431Y-88694089D01*
X91357934Y-88698796D01*
X91416755Y-88770918D01*
X91417446Y-88771774D01*
X91448738Y-88810973D01*
X91451242Y-88813477D01*
X91451884Y-88814195D01*
X91455585Y-88818528D01*
X91482935Y-88852062D01*
X91487682Y-88855989D01*
X91487684Y-88855991D01*
X91518262Y-88881287D01*
X91527042Y-88889277D01*
X93731145Y-91093379D01*
X93740247Y-91103522D01*
X93763968Y-91133025D01*
X93768696Y-91136992D01*
X93802421Y-91165291D01*
X93806069Y-91168472D01*
X93807881Y-91170115D01*
X93810075Y-91172309D01*
X93843349Y-91199642D01*
X93844147Y-91200304D01*
X93915474Y-91260154D01*
X93920144Y-91262722D01*
X93924261Y-91266103D01*
X93982145Y-91297140D01*
X94006086Y-91309977D01*
X94007245Y-91310606D01*
X94083381Y-91352462D01*
X94083389Y-91352465D01*
X94088787Y-91355433D01*
X94093869Y-91357045D01*
X94098563Y-91359562D01*
X94187531Y-91386762D01*
X94188559Y-91387082D01*
X94277306Y-91415235D01*
X94282602Y-91415829D01*
X94287698Y-91417387D01*
X94380257Y-91426790D01*
X94381393Y-91426911D01*
X94415008Y-91430681D01*
X94427730Y-91432108D01*
X94427734Y-91432108D01*
X94431227Y-91432500D01*
X94434754Y-91432500D01*
X94435739Y-91432555D01*
X94441419Y-91433002D01*
X94470825Y-91435989D01*
X94478337Y-91436752D01*
X94478339Y-91436752D01*
X94484462Y-91437374D01*
X94530108Y-91433059D01*
X94541967Y-91432500D01*
X96324393Y-91432500D01*
X96392514Y-91452502D01*
X96404877Y-91461555D01*
X96500126Y-91540632D01*
X96570595Y-91581811D01*
X96573445Y-91583476D01*
X96622169Y-91635114D01*
X96635240Y-91704897D01*
X96608509Y-91770669D01*
X96568055Y-91804027D01*
X96555607Y-91810507D01*
X96551474Y-91813610D01*
X96551471Y-91813612D01*
X96527247Y-91831800D01*
X96376965Y-91944635D01*
X96222629Y-92106138D01*
X96096743Y-92290680D01*
X96002688Y-92493305D01*
X95942989Y-92708570D01*
X95919251Y-92930695D01*
X95919548Y-92935848D01*
X95919548Y-92935851D01*
X95926707Y-93060011D01*
X95932110Y-93153715D01*
X95933247Y-93158761D01*
X95933248Y-93158767D01*
X95943483Y-93204181D01*
X95981222Y-93371639D01*
X96065266Y-93578616D01*
X96181987Y-93769088D01*
X96328250Y-93937938D01*
X96500126Y-94080632D01*
X96693000Y-94193338D01*
X96901692Y-94273030D01*
X96906760Y-94274061D01*
X96906763Y-94274062D01*
X97014017Y-94295883D01*
X97120597Y-94317567D01*
X97125772Y-94317757D01*
X97125774Y-94317757D01*
X97338673Y-94325564D01*
X97338677Y-94325564D01*
X97343837Y-94325753D01*
X97348957Y-94325097D01*
X97348959Y-94325097D01*
X97560288Y-94298025D01*
X97560289Y-94298025D01*
X97565416Y-94297368D01*
X97570366Y-94295883D01*
X97774429Y-94234661D01*
X97774434Y-94234659D01*
X97779384Y-94233174D01*
X97979994Y-94134896D01*
X98161860Y-94005173D01*
X98320096Y-93847489D01*
X98379594Y-93764689D01*
X98447435Y-93670277D01*
X98450453Y-93666077D01*
X98549430Y-93465811D01*
X98586268Y-93344564D01*
X98612865Y-93257023D01*
X98612865Y-93257021D01*
X98614370Y-93252069D01*
X98643529Y-93030590D01*
X98644816Y-92977919D01*
X98645074Y-92967365D01*
X98645074Y-92967361D01*
X98645156Y-92964000D01*
X98626852Y-92741361D01*
X98572431Y-92524702D01*
X98483354Y-92319840D01*
X98362014Y-92132277D01*
X98211670Y-91967051D01*
X98207619Y-91963852D01*
X98207615Y-91963848D01*
X98040414Y-91831800D01*
X98040410Y-91831798D01*
X98036359Y-91828598D01*
X97995053Y-91805796D01*
X97945084Y-91755364D01*
X97930312Y-91685921D01*
X97955428Y-91619516D01*
X97982780Y-91592909D01*
X98026603Y-91561650D01*
X98161860Y-91465173D01*
X98174576Y-91452502D01*
X98270219Y-91357192D01*
X98320096Y-91307489D01*
X98354110Y-91260154D01*
X98447435Y-91130277D01*
X98450453Y-91126077D01*
X98461601Y-91103522D01*
X98547136Y-90930453D01*
X98547137Y-90930451D01*
X98549430Y-90925811D01*
X98614370Y-90712069D01*
X98643529Y-90490590D01*
X98645156Y-90424000D01*
X98626852Y-90201361D01*
X98572431Y-89984702D01*
X98483354Y-89779840D01*
X98362014Y-89592277D01*
X98211670Y-89427051D01*
X98207619Y-89423852D01*
X98207615Y-89423848D01*
X98040414Y-89291800D01*
X98040410Y-89291798D01*
X98036359Y-89288598D01*
X97995053Y-89265796D01*
X97945084Y-89215364D01*
X97930312Y-89145921D01*
X97955428Y-89079516D01*
X97982780Y-89052909D01*
X98026603Y-89021650D01*
X98161860Y-88925173D01*
X98202103Y-88885071D01*
X98279226Y-88808216D01*
X98320096Y-88767489D01*
X98323775Y-88762370D01*
X98447435Y-88590277D01*
X98450453Y-88586077D01*
X98460099Y-88566561D01*
X98547136Y-88390453D01*
X98547137Y-88390451D01*
X98549430Y-88385811D01*
X98614370Y-88172069D01*
X98643529Y-87950590D01*
X98645156Y-87884000D01*
X98626852Y-87661361D01*
X98572431Y-87444702D01*
X98483354Y-87239840D01*
X98404831Y-87118462D01*
X98364822Y-87056617D01*
X98364820Y-87056614D01*
X98362014Y-87052277D01*
X98211670Y-86887051D01*
X98207619Y-86883852D01*
X98207615Y-86883848D01*
X98040414Y-86751800D01*
X98040410Y-86751798D01*
X98036359Y-86748598D01*
X97995053Y-86725796D01*
X97945084Y-86675364D01*
X97930312Y-86605921D01*
X97955428Y-86539516D01*
X97982780Y-86512909D01*
X98032862Y-86477186D01*
X98161860Y-86385173D01*
X98320096Y-86227489D01*
X98379594Y-86144689D01*
X98447435Y-86050277D01*
X98450453Y-86046077D01*
X98549430Y-85845811D01*
X98614370Y-85632069D01*
X98643529Y-85410590D01*
X98645156Y-85344000D01*
X98626852Y-85121361D01*
X98572431Y-84904702D01*
X98483354Y-84699840D01*
X98362014Y-84512277D01*
X98211670Y-84347051D01*
X98207619Y-84343852D01*
X98207615Y-84343848D01*
X98040414Y-84211800D01*
X98040410Y-84211798D01*
X98036359Y-84208598D01*
X97994569Y-84185529D01*
X97944598Y-84135097D01*
X97929826Y-84065654D01*
X97954942Y-83999248D01*
X97982294Y-83972641D01*
X98157328Y-83847792D01*
X98165200Y-83841139D01*
X98316052Y-83690812D01*
X98322730Y-83682965D01*
X98447003Y-83510020D01*
X98452313Y-83501183D01*
X98546670Y-83310267D01*
X98550469Y-83300672D01*
X98612377Y-83096910D01*
X98614555Y-83086837D01*
X98615986Y-83075962D01*
X98613775Y-83061778D01*
X98600617Y-83058000D01*
X95965225Y-83058000D01*
X95951694Y-83061973D01*
X95950257Y-83071966D01*
X95980565Y-83206446D01*
X95983645Y-83216275D01*
X96063770Y-83413603D01*
X96068413Y-83422794D01*
X96179694Y-83604388D01*
X96185777Y-83612699D01*
X96325213Y-83773667D01*
X96332580Y-83780883D01*
X96496434Y-83916916D01*
X96504881Y-83922831D01*
X96573969Y-83963203D01*
X96622693Y-84014842D01*
X96635764Y-84084625D01*
X96609033Y-84150396D01*
X96568584Y-84183752D01*
X96555607Y-84190507D01*
X96551474Y-84193610D01*
X96551471Y-84193612D01*
X96527247Y-84211800D01*
X96376965Y-84324635D01*
X96222629Y-84486138D01*
X96096743Y-84670680D01*
X96002688Y-84873305D01*
X95942989Y-85088570D01*
X95919251Y-85310695D01*
X95919548Y-85315848D01*
X95919548Y-85315851D01*
X95925011Y-85410590D01*
X95932110Y-85533715D01*
X95933247Y-85538761D01*
X95933248Y-85538767D01*
X95953119Y-85626939D01*
X95981222Y-85751639D01*
X96065266Y-85958616D01*
X96181987Y-86149088D01*
X96328250Y-86317938D01*
X96500126Y-86460632D01*
X96528455Y-86477186D01*
X96573445Y-86503476D01*
X96622169Y-86555114D01*
X96635240Y-86624897D01*
X96608509Y-86690669D01*
X96568055Y-86724027D01*
X96560675Y-86727869D01*
X96555607Y-86730507D01*
X96551474Y-86733610D01*
X96551471Y-86733612D01*
X96403484Y-86844724D01*
X96376965Y-86864635D01*
X96222629Y-87026138D01*
X96192363Y-87070507D01*
X96137455Y-87115507D01*
X96088277Y-87125500D01*
X95108371Y-87125500D01*
X95040250Y-87105498D01*
X95019276Y-87088595D01*
X94775405Y-86844724D01*
X94741379Y-86782412D01*
X94738500Y-86755629D01*
X94738500Y-80230695D01*
X95919251Y-80230695D01*
X95919548Y-80235848D01*
X95919548Y-80235851D01*
X95925540Y-80339770D01*
X95932110Y-80453715D01*
X95933247Y-80458761D01*
X95933248Y-80458767D01*
X95950919Y-80537175D01*
X95981222Y-80671639D01*
X96030752Y-80793617D01*
X96058876Y-80862878D01*
X96065266Y-80878616D01*
X96109567Y-80950909D01*
X96164951Y-81041287D01*
X96181987Y-81069088D01*
X96328250Y-81237938D01*
X96500126Y-81380632D01*
X96573955Y-81423774D01*
X96622679Y-81475412D01*
X96635750Y-81545195D01*
X96609019Y-81610967D01*
X96568562Y-81644327D01*
X96560457Y-81648546D01*
X96551738Y-81654036D01*
X96381433Y-81781905D01*
X96373726Y-81788748D01*
X96226590Y-81942717D01*
X96220104Y-81950727D01*
X96100098Y-82126649D01*
X96095000Y-82135623D01*
X96005338Y-82328783D01*
X96001775Y-82338470D01*
X95946389Y-82538183D01*
X95947912Y-82546607D01*
X95960292Y-82550000D01*
X98600344Y-82550000D01*
X98613875Y-82546027D01*
X98615180Y-82536947D01*
X98573214Y-82369875D01*
X98569894Y-82360124D01*
X98484972Y-82164814D01*
X98480105Y-82155739D01*
X98364426Y-81976926D01*
X98358136Y-81968757D01*
X98214806Y-81811240D01*
X98207273Y-81804215D01*
X98040139Y-81672222D01*
X98031556Y-81666520D01*
X97994602Y-81646120D01*
X97944631Y-81595687D01*
X97929859Y-81526245D01*
X97954975Y-81459839D01*
X97982327Y-81433232D01*
X98005797Y-81416491D01*
X98161860Y-81305173D01*
X98320096Y-81147489D01*
X98372203Y-81074974D01*
X98428198Y-81031326D01*
X98474526Y-81022500D01*
X103310930Y-81022500D01*
X103329880Y-81023933D01*
X103344115Y-81026099D01*
X103344119Y-81026099D01*
X103351349Y-81027199D01*
X103358641Y-81026606D01*
X103358644Y-81026606D01*
X103404018Y-81022915D01*
X103414233Y-81022500D01*
X103422293Y-81022500D01*
X103435583Y-81020951D01*
X103450507Y-81019211D01*
X103454882Y-81018778D01*
X103520339Y-81013454D01*
X103520342Y-81013453D01*
X103527637Y-81012860D01*
X103534601Y-81010604D01*
X103540560Y-81009413D01*
X103546415Y-81008029D01*
X103553681Y-81007182D01*
X103622327Y-80982265D01*
X103626455Y-80980848D01*
X103688936Y-80960607D01*
X103688938Y-80960606D01*
X103695899Y-80958351D01*
X103702154Y-80954555D01*
X103707628Y-80952049D01*
X103713058Y-80949330D01*
X103719937Y-80946833D01*
X103780976Y-80906814D01*
X103784680Y-80904477D01*
X103847107Y-80866595D01*
X103855484Y-80859197D01*
X103855508Y-80859224D01*
X103858500Y-80856571D01*
X103861733Y-80853868D01*
X103867852Y-80849856D01*
X103921128Y-80793617D01*
X103923506Y-80791175D01*
X104704681Y-80010000D01*
X107652502Y-80010000D01*
X107672457Y-80238087D01*
X107673881Y-80243400D01*
X107673881Y-80243402D01*
X107711025Y-80382022D01*
X107731716Y-80459243D01*
X107734039Y-80464224D01*
X107734039Y-80464225D01*
X107826151Y-80661762D01*
X107826154Y-80661767D01*
X107828477Y-80666749D01*
X107897421Y-80765211D01*
X107952971Y-80844544D01*
X107959802Y-80854300D01*
X108121700Y-81016198D01*
X108126208Y-81019355D01*
X108126211Y-81019357D01*
X108202807Y-81072990D01*
X108309251Y-81147523D01*
X108314233Y-81149846D01*
X108314238Y-81149849D01*
X108494769Y-81234031D01*
X108516757Y-81244284D01*
X108522065Y-81245706D01*
X108522067Y-81245707D01*
X108732598Y-81302119D01*
X108732600Y-81302119D01*
X108737913Y-81303543D01*
X108966000Y-81323498D01*
X109194087Y-81303543D01*
X109199400Y-81302119D01*
X109199402Y-81302119D01*
X109409933Y-81245707D01*
X109409935Y-81245706D01*
X109415243Y-81244284D01*
X109437231Y-81234031D01*
X109617762Y-81149849D01*
X109617767Y-81149846D01*
X109622749Y-81147523D01*
X109729193Y-81072990D01*
X109805789Y-81019357D01*
X109805792Y-81019355D01*
X109810300Y-81016198D01*
X109972198Y-80854300D01*
X109994655Y-80822229D01*
X110050110Y-80777901D01*
X110097867Y-80768500D01*
X110422930Y-80768500D01*
X110441880Y-80769933D01*
X110456115Y-80772099D01*
X110456119Y-80772099D01*
X110463349Y-80773199D01*
X110470641Y-80772606D01*
X110470644Y-80772606D01*
X110516018Y-80768915D01*
X110526233Y-80768500D01*
X110534293Y-80768500D01*
X110547583Y-80766951D01*
X110562507Y-80765211D01*
X110566882Y-80764778D01*
X110632339Y-80759454D01*
X110632342Y-80759453D01*
X110639637Y-80758860D01*
X110646601Y-80756604D01*
X110652560Y-80755413D01*
X110658415Y-80754029D01*
X110665681Y-80753182D01*
X110734327Y-80728265D01*
X110738455Y-80726848D01*
X110800936Y-80706607D01*
X110800938Y-80706606D01*
X110807899Y-80704351D01*
X110814154Y-80700555D01*
X110819628Y-80698049D01*
X110825058Y-80695330D01*
X110831937Y-80692833D01*
X110864846Y-80671257D01*
X110892976Y-80652814D01*
X110896680Y-80650477D01*
X110959107Y-80612595D01*
X110967484Y-80605197D01*
X110967508Y-80605224D01*
X110970500Y-80602571D01*
X110973733Y-80599868D01*
X110979852Y-80595856D01*
X111033128Y-80539617D01*
X111035506Y-80537175D01*
X111562681Y-80010000D01*
X112732502Y-80010000D01*
X112752457Y-80238087D01*
X112753881Y-80243400D01*
X112753881Y-80243402D01*
X112791025Y-80382022D01*
X112811716Y-80459243D01*
X112814039Y-80464224D01*
X112814039Y-80464225D01*
X112906151Y-80661762D01*
X112906154Y-80661767D01*
X112908477Y-80666749D01*
X112977421Y-80765211D01*
X113032971Y-80844544D01*
X113039802Y-80854300D01*
X113201700Y-81016198D01*
X113206208Y-81019355D01*
X113206211Y-81019357D01*
X113282807Y-81072990D01*
X113389251Y-81147523D01*
X113394233Y-81149846D01*
X113394238Y-81149849D01*
X113574769Y-81234031D01*
X113596757Y-81244284D01*
X113602065Y-81245706D01*
X113602067Y-81245707D01*
X113812598Y-81302119D01*
X113812600Y-81302119D01*
X113817913Y-81303543D01*
X114046000Y-81323498D01*
X114274087Y-81303543D01*
X114279400Y-81302119D01*
X114279402Y-81302119D01*
X114489933Y-81245707D01*
X114489935Y-81245706D01*
X114495243Y-81244284D01*
X114517231Y-81234031D01*
X114697762Y-81149849D01*
X114697767Y-81149846D01*
X114702749Y-81147523D01*
X114809193Y-81072990D01*
X114885789Y-81019357D01*
X114885792Y-81019355D01*
X114890300Y-81016198D01*
X115052198Y-80854300D01*
X115059030Y-80844544D01*
X115114579Y-80765211D01*
X115183523Y-80666749D01*
X115185846Y-80661767D01*
X115185849Y-80661762D01*
X115277961Y-80464225D01*
X115277961Y-80464224D01*
X115280284Y-80459243D01*
X115300976Y-80382022D01*
X115338119Y-80243402D01*
X115338119Y-80243400D01*
X115339543Y-80238087D01*
X115359498Y-80010000D01*
X115339543Y-79781913D01*
X115329858Y-79745768D01*
X115281707Y-79566067D01*
X115281706Y-79566065D01*
X115280284Y-79560757D01*
X115277961Y-79555775D01*
X115185849Y-79358238D01*
X115185846Y-79358233D01*
X115183523Y-79353251D01*
X115074654Y-79197770D01*
X115055357Y-79170211D01*
X115055355Y-79170208D01*
X115052198Y-79165700D01*
X114890300Y-79003802D01*
X114885792Y-79000645D01*
X114885789Y-79000643D01*
X114759920Y-78912509D01*
X114702749Y-78872477D01*
X114697767Y-78870154D01*
X114697762Y-78870151D01*
X114500225Y-78778039D01*
X114500224Y-78778039D01*
X114495243Y-78775716D01*
X114489935Y-78774294D01*
X114489933Y-78774293D01*
X114279402Y-78717881D01*
X114279400Y-78717881D01*
X114274087Y-78716457D01*
X114046000Y-78696502D01*
X113817913Y-78716457D01*
X113812600Y-78717881D01*
X113812598Y-78717881D01*
X113602067Y-78774293D01*
X113602065Y-78774294D01*
X113596757Y-78775716D01*
X113591776Y-78778039D01*
X113591775Y-78778039D01*
X113394238Y-78870151D01*
X113394233Y-78870154D01*
X113389251Y-78872477D01*
X113332080Y-78912509D01*
X113206211Y-79000643D01*
X113206208Y-79000645D01*
X113201700Y-79003802D01*
X113039802Y-79165700D01*
X113036645Y-79170208D01*
X113036643Y-79170211D01*
X113017346Y-79197770D01*
X112908477Y-79353251D01*
X112906154Y-79358233D01*
X112906151Y-79358238D01*
X112814039Y-79555775D01*
X112811716Y-79560757D01*
X112810294Y-79566065D01*
X112810293Y-79566067D01*
X112762142Y-79745768D01*
X112752457Y-79781913D01*
X112732502Y-80010000D01*
X111562681Y-80010000D01*
X115967276Y-75605405D01*
X116029588Y-75571379D01*
X116056371Y-75568500D01*
X118542134Y-75568500D01*
X118604316Y-75561745D01*
X118740705Y-75510615D01*
X118857261Y-75423261D01*
X118944615Y-75306705D01*
X118995745Y-75170316D01*
X119002500Y-75108134D01*
X119002500Y-72211866D01*
X118995745Y-72149684D01*
X118944615Y-72013295D01*
X118857261Y-71896739D01*
X118740705Y-71809385D01*
X118604316Y-71758255D01*
X118542134Y-71751500D01*
X115645866Y-71751500D01*
X115583684Y-71758255D01*
X115447295Y-71809385D01*
X115330739Y-71896739D01*
X115243385Y-72013295D01*
X115192255Y-72149684D01*
X115185500Y-72211866D01*
X115185500Y-74189629D01*
X115165498Y-74257750D01*
X115148595Y-74278724D01*
X110212724Y-79214595D01*
X110150412Y-79248621D01*
X110123629Y-79251500D01*
X110097867Y-79251500D01*
X110029746Y-79231498D01*
X109994655Y-79197772D01*
X109972198Y-79165700D01*
X109810300Y-79003802D01*
X109805792Y-79000645D01*
X109805789Y-79000643D01*
X109679920Y-78912509D01*
X109622749Y-78872477D01*
X109617767Y-78870154D01*
X109617762Y-78870151D01*
X109420225Y-78778039D01*
X109420224Y-78778039D01*
X109415243Y-78775716D01*
X109409935Y-78774294D01*
X109409933Y-78774293D01*
X109199402Y-78717881D01*
X109199400Y-78717881D01*
X109194087Y-78716457D01*
X108966000Y-78696502D01*
X108737913Y-78716457D01*
X108732600Y-78717881D01*
X108732598Y-78717881D01*
X108522067Y-78774293D01*
X108522065Y-78774294D01*
X108516757Y-78775716D01*
X108511776Y-78778039D01*
X108511775Y-78778039D01*
X108314238Y-78870151D01*
X108314233Y-78870154D01*
X108309251Y-78872477D01*
X108252080Y-78912509D01*
X108126211Y-79000643D01*
X108126208Y-79000645D01*
X108121700Y-79003802D01*
X107959802Y-79165700D01*
X107956645Y-79170208D01*
X107956643Y-79170211D01*
X107937346Y-79197770D01*
X107828477Y-79353251D01*
X107826154Y-79358233D01*
X107826151Y-79358238D01*
X107734039Y-79555775D01*
X107731716Y-79560757D01*
X107730294Y-79566065D01*
X107730293Y-79566067D01*
X107682142Y-79745768D01*
X107672457Y-79781913D01*
X107652502Y-80010000D01*
X104704681Y-80010000D01*
X112883911Y-71830770D01*
X112898323Y-71818384D01*
X112909918Y-71809851D01*
X112909923Y-71809846D01*
X112915818Y-71805508D01*
X112920557Y-71799930D01*
X112920560Y-71799927D01*
X112950035Y-71765232D01*
X112956965Y-71757716D01*
X112962661Y-71752020D01*
X112964924Y-71749159D01*
X112964929Y-71749154D01*
X112980293Y-71729734D01*
X112983082Y-71726333D01*
X112984743Y-71724378D01*
X113030333Y-71670715D01*
X113033659Y-71664202D01*
X113037020Y-71659163D01*
X113040196Y-71654021D01*
X113044734Y-71648284D01*
X113075655Y-71582125D01*
X113077561Y-71578225D01*
X113110769Y-71513192D01*
X113112508Y-71506083D01*
X113114604Y-71500449D01*
X113116523Y-71494679D01*
X113119622Y-71488050D01*
X113134491Y-71416565D01*
X113135461Y-71412282D01*
X113151473Y-71346844D01*
X113152808Y-71341390D01*
X113153500Y-71330236D01*
X113153535Y-71330238D01*
X113153775Y-71326266D01*
X113154152Y-71322045D01*
X113155641Y-71314885D01*
X113153546Y-71237458D01*
X113153500Y-71234050D01*
X113153500Y-67713522D01*
X117447273Y-67713522D01*
X117494764Y-67890761D01*
X117498510Y-67901053D01*
X117590586Y-68098511D01*
X117596069Y-68108007D01*
X117721028Y-68286467D01*
X117728084Y-68294875D01*
X117882125Y-68448916D01*
X117890533Y-68455972D01*
X118068993Y-68580931D01*
X118078489Y-68586414D01*
X118275947Y-68678490D01*
X118286239Y-68682236D01*
X118458503Y-68728394D01*
X118472599Y-68728058D01*
X118476000Y-68720116D01*
X118476000Y-68714967D01*
X118984000Y-68714967D01*
X118987973Y-68728498D01*
X118996522Y-68729727D01*
X119173761Y-68682236D01*
X119184053Y-68678490D01*
X119381511Y-68586414D01*
X119391007Y-68580931D01*
X119569467Y-68455972D01*
X119577875Y-68448916D01*
X119731916Y-68294875D01*
X119738972Y-68286467D01*
X119863931Y-68108007D01*
X119869414Y-68098511D01*
X119885529Y-68063951D01*
X119932446Y-68010666D01*
X120000723Y-67991205D01*
X120068683Y-68011747D01*
X120113919Y-68063951D01*
X120130151Y-68098762D01*
X120130154Y-68098767D01*
X120132477Y-68103749D01*
X120263802Y-68291300D01*
X120425700Y-68453198D01*
X120430208Y-68456355D01*
X120430211Y-68456357D01*
X120508389Y-68511098D01*
X120613251Y-68584523D01*
X120618233Y-68586846D01*
X120618238Y-68586849D01*
X120814765Y-68678490D01*
X120820757Y-68681284D01*
X120826065Y-68682706D01*
X120826067Y-68682707D01*
X121036598Y-68739119D01*
X121036600Y-68739119D01*
X121041913Y-68740543D01*
X121270000Y-68760498D01*
X121498087Y-68740543D01*
X121503400Y-68739119D01*
X121503402Y-68739119D01*
X121713933Y-68682707D01*
X121713935Y-68682706D01*
X121719243Y-68681284D01*
X121725235Y-68678490D01*
X121921762Y-68586849D01*
X121921767Y-68586846D01*
X121926749Y-68584523D01*
X122031611Y-68511098D01*
X122109789Y-68456357D01*
X122109792Y-68456355D01*
X122114300Y-68453198D01*
X122276198Y-68291300D01*
X122407523Y-68103749D01*
X122409846Y-68098767D01*
X122409849Y-68098762D01*
X122425805Y-68064543D01*
X122472722Y-68011258D01*
X122540999Y-67991797D01*
X122608959Y-68012339D01*
X122654195Y-68064543D01*
X122670151Y-68098762D01*
X122670154Y-68098767D01*
X122672477Y-68103749D01*
X122803802Y-68291300D01*
X122965700Y-68453198D01*
X122970208Y-68456355D01*
X122970211Y-68456357D01*
X123048389Y-68511098D01*
X123153251Y-68584523D01*
X123158233Y-68586846D01*
X123158238Y-68586849D01*
X123354765Y-68678490D01*
X123360757Y-68681284D01*
X123366065Y-68682706D01*
X123366067Y-68682707D01*
X123576598Y-68739119D01*
X123576600Y-68739119D01*
X123581913Y-68740543D01*
X123810000Y-68760498D01*
X124038087Y-68740543D01*
X124043400Y-68739119D01*
X124043402Y-68739119D01*
X124253933Y-68682707D01*
X124253935Y-68682706D01*
X124259243Y-68681284D01*
X124265235Y-68678490D01*
X124461762Y-68586849D01*
X124461767Y-68586846D01*
X124466749Y-68584523D01*
X124571611Y-68511098D01*
X124649789Y-68456357D01*
X124649792Y-68456355D01*
X124654300Y-68453198D01*
X124816198Y-68291300D01*
X124947523Y-68103749D01*
X124949846Y-68098767D01*
X124949849Y-68098762D01*
X125041961Y-67901225D01*
X125041961Y-67901224D01*
X125044284Y-67896243D01*
X125103543Y-67675087D01*
X125123498Y-67447000D01*
X125103543Y-67218913D01*
X125100357Y-67207022D01*
X125045707Y-67003067D01*
X125045706Y-67003065D01*
X125044284Y-66997757D01*
X125034528Y-66976834D01*
X124949849Y-66795238D01*
X124949846Y-66795233D01*
X124947523Y-66790251D01*
X124816198Y-66602700D01*
X124654300Y-66440802D01*
X124649792Y-66437645D01*
X124649789Y-66437643D01*
X124534523Y-66356933D01*
X124466749Y-66309477D01*
X124461767Y-66307154D01*
X124461762Y-66307151D01*
X124264225Y-66215039D01*
X124264224Y-66215039D01*
X124259243Y-66212716D01*
X124253935Y-66211294D01*
X124253933Y-66211293D01*
X124043402Y-66154881D01*
X124043400Y-66154881D01*
X124038087Y-66153457D01*
X123810000Y-66133502D01*
X123581913Y-66153457D01*
X123576600Y-66154881D01*
X123576598Y-66154881D01*
X123366067Y-66211293D01*
X123366065Y-66211294D01*
X123360757Y-66212716D01*
X123355776Y-66215039D01*
X123355775Y-66215039D01*
X123158238Y-66307151D01*
X123158233Y-66307154D01*
X123153251Y-66309477D01*
X123085477Y-66356933D01*
X122970211Y-66437643D01*
X122970208Y-66437645D01*
X122965700Y-66440802D01*
X122803802Y-66602700D01*
X122672477Y-66790251D01*
X122670154Y-66795233D01*
X122670151Y-66795238D01*
X122654195Y-66829457D01*
X122607278Y-66882742D01*
X122539001Y-66902203D01*
X122471041Y-66881661D01*
X122425805Y-66829457D01*
X122409849Y-66795238D01*
X122409846Y-66795233D01*
X122407523Y-66790251D01*
X122276198Y-66602700D01*
X122114300Y-66440802D01*
X122109792Y-66437645D01*
X122109789Y-66437643D01*
X121994523Y-66356933D01*
X121926749Y-66309477D01*
X121921767Y-66307154D01*
X121921762Y-66307151D01*
X121724225Y-66215039D01*
X121724224Y-66215039D01*
X121719243Y-66212716D01*
X121713935Y-66211294D01*
X121713933Y-66211293D01*
X121503402Y-66154881D01*
X121503400Y-66154881D01*
X121498087Y-66153457D01*
X121270000Y-66133502D01*
X121041913Y-66153457D01*
X121036600Y-66154881D01*
X121036598Y-66154881D01*
X120826067Y-66211293D01*
X120826065Y-66211294D01*
X120820757Y-66212716D01*
X120815776Y-66215039D01*
X120815775Y-66215039D01*
X120618238Y-66307151D01*
X120618233Y-66307154D01*
X120613251Y-66309477D01*
X120545477Y-66356933D01*
X120430211Y-66437643D01*
X120430208Y-66437645D01*
X120425700Y-66440802D01*
X120263802Y-66602700D01*
X120132477Y-66790251D01*
X120130154Y-66795233D01*
X120130151Y-66795238D01*
X120113919Y-66830049D01*
X120067002Y-66883334D01*
X119998725Y-66902795D01*
X119930765Y-66882253D01*
X119885529Y-66830049D01*
X119869414Y-66795489D01*
X119863931Y-66785993D01*
X119738972Y-66607533D01*
X119731916Y-66599125D01*
X119577875Y-66445084D01*
X119569467Y-66438028D01*
X119391007Y-66313069D01*
X119381511Y-66307586D01*
X119184053Y-66215510D01*
X119173761Y-66211764D01*
X119001497Y-66165606D01*
X118987401Y-66165942D01*
X118984000Y-66173884D01*
X118984000Y-68714967D01*
X118476000Y-68714967D01*
X118476000Y-67719115D01*
X118471525Y-67703876D01*
X118470135Y-67702671D01*
X118462452Y-67701000D01*
X117462033Y-67701000D01*
X117448502Y-67704973D01*
X117447273Y-67713522D01*
X113153500Y-67713522D01*
X113153500Y-67175503D01*
X117448606Y-67175503D01*
X117448942Y-67189599D01*
X117456884Y-67193000D01*
X118457885Y-67193000D01*
X118473124Y-67188525D01*
X118474329Y-67187135D01*
X118476000Y-67179452D01*
X118476000Y-66179033D01*
X118472027Y-66165502D01*
X118463478Y-66164273D01*
X118286239Y-66211764D01*
X118275947Y-66215510D01*
X118078489Y-66307586D01*
X118068993Y-66313069D01*
X117890533Y-66438028D01*
X117882125Y-66445084D01*
X117728084Y-66599125D01*
X117721028Y-66607533D01*
X117596069Y-66785993D01*
X117590586Y-66795489D01*
X117498510Y-66992947D01*
X117494764Y-67003239D01*
X117448606Y-67175503D01*
X113153500Y-67175503D01*
X113153500Y-67044867D01*
X113173502Y-66976746D01*
X113207228Y-66941655D01*
X113239300Y-66919198D01*
X113401198Y-66757300D01*
X113418232Y-66732974D01*
X113506066Y-66607533D01*
X113532523Y-66569749D01*
X113534846Y-66564767D01*
X113534849Y-66564762D01*
X113626961Y-66367225D01*
X113626961Y-66367224D01*
X113629284Y-66362243D01*
X113643930Y-66307586D01*
X113687119Y-66146402D01*
X113687119Y-66146400D01*
X113688543Y-66141087D01*
X113708498Y-65913000D01*
X113688543Y-65684913D01*
X113629284Y-65463757D01*
X113592372Y-65384598D01*
X113534849Y-65261238D01*
X113534846Y-65261233D01*
X113532523Y-65256251D01*
X113401198Y-65068700D01*
X113239300Y-64906802D01*
X113234792Y-64903645D01*
X113234789Y-64903643D01*
X113156611Y-64848902D01*
X113051749Y-64775477D01*
X113046767Y-64773154D01*
X113046762Y-64773151D01*
X112849225Y-64681039D01*
X112849224Y-64681039D01*
X112844243Y-64678716D01*
X112838935Y-64677294D01*
X112838933Y-64677293D01*
X112628402Y-64620881D01*
X112628400Y-64620881D01*
X112623087Y-64619457D01*
X112395000Y-64599502D01*
X112166913Y-64619457D01*
X112161600Y-64620881D01*
X112161598Y-64620881D01*
X111951067Y-64677293D01*
X111951065Y-64677294D01*
X111945757Y-64678716D01*
X111940776Y-64681039D01*
X111940775Y-64681039D01*
X111743238Y-64773151D01*
X111743233Y-64773154D01*
X111738251Y-64775477D01*
X111633389Y-64848902D01*
X111555211Y-64903643D01*
X111555208Y-64903645D01*
X111550700Y-64906802D01*
X111388802Y-65068700D01*
X111257477Y-65256251D01*
X111255154Y-65261233D01*
X111255151Y-65261238D01*
X111197628Y-65384598D01*
X111160716Y-65463757D01*
X111101457Y-65684913D01*
X111081502Y-65913000D01*
X111101457Y-66141087D01*
X111102881Y-66146400D01*
X111102881Y-66146402D01*
X111146071Y-66307586D01*
X111160716Y-66362243D01*
X111163039Y-66367224D01*
X111163039Y-66367225D01*
X111255151Y-66564762D01*
X111255154Y-66564767D01*
X111257477Y-66569749D01*
X111283934Y-66607533D01*
X111371769Y-66732974D01*
X111388802Y-66757300D01*
X111550700Y-66919198D01*
X111582771Y-66941655D01*
X111627099Y-66997110D01*
X111636500Y-67044867D01*
X111636500Y-70880629D01*
X111616498Y-70948750D01*
X111599595Y-70969724D01*
X103100724Y-79468595D01*
X103038412Y-79502621D01*
X103011629Y-79505500D01*
X98477939Y-79505500D01*
X98409818Y-79485498D01*
X98372147Y-79447941D01*
X98364818Y-79436612D01*
X98362014Y-79432277D01*
X98211670Y-79267051D01*
X98207619Y-79263852D01*
X98207615Y-79263848D01*
X98040414Y-79131800D01*
X98040410Y-79131798D01*
X98036359Y-79128598D01*
X97995053Y-79105796D01*
X97945084Y-79055364D01*
X97930312Y-78985921D01*
X97955428Y-78919516D01*
X97982780Y-78892909D01*
X98035381Y-78855389D01*
X98161860Y-78765173D01*
X98210732Y-78716472D01*
X98267074Y-78660326D01*
X98320096Y-78607489D01*
X98330237Y-78593377D01*
X98447435Y-78430277D01*
X98450453Y-78426077D01*
X98468824Y-78388907D01*
X98547136Y-78230453D01*
X98547137Y-78230451D01*
X98549430Y-78225811D01*
X98614370Y-78012069D01*
X98643529Y-77790590D01*
X98645156Y-77724000D01*
X98626852Y-77501361D01*
X98572431Y-77284702D01*
X98483354Y-77079840D01*
X98396649Y-76945814D01*
X98364822Y-76896617D01*
X98364820Y-76896614D01*
X98362014Y-76892277D01*
X98358532Y-76888450D01*
X98214798Y-76730488D01*
X98183746Y-76666642D01*
X98192141Y-76596143D01*
X98237317Y-76541375D01*
X98263761Y-76527706D01*
X98370297Y-76487767D01*
X98378705Y-76484615D01*
X98495261Y-76397261D01*
X98582615Y-76280705D01*
X98633745Y-76144316D01*
X98640500Y-76082134D01*
X98640500Y-74285866D01*
X98633745Y-74223684D01*
X98582615Y-74087295D01*
X98495261Y-73970739D01*
X98378705Y-73883385D01*
X98242316Y-73832255D01*
X98180134Y-73825500D01*
X96383866Y-73825500D01*
X96321684Y-73832255D01*
X96185295Y-73883385D01*
X96068739Y-73970739D01*
X95981385Y-74087295D01*
X95930255Y-74223684D01*
X95923500Y-74285866D01*
X95923500Y-76082134D01*
X95930255Y-76144316D01*
X95981385Y-76280705D01*
X96068739Y-76397261D01*
X96185295Y-76484615D01*
X96193704Y-76487767D01*
X96193705Y-76487768D01*
X96302451Y-76528535D01*
X96359216Y-76571176D01*
X96383916Y-76637738D01*
X96368709Y-76707087D01*
X96349316Y-76733568D01*
X96222629Y-76866138D01*
X96096743Y-77050680D01*
X96082330Y-77081730D01*
X96010736Y-77235968D01*
X96002688Y-77253305D01*
X95942989Y-77468570D01*
X95919251Y-77690695D01*
X95932110Y-77913715D01*
X95933247Y-77918761D01*
X95933248Y-77918767D01*
X95934161Y-77922817D01*
X95981222Y-78131639D01*
X96065266Y-78338616D01*
X96181987Y-78529088D01*
X96328250Y-78697938D01*
X96500126Y-78840632D01*
X96557703Y-78874277D01*
X96573445Y-78883476D01*
X96622169Y-78935114D01*
X96635240Y-79004897D01*
X96608509Y-79070669D01*
X96568055Y-79104027D01*
X96555607Y-79110507D01*
X96551474Y-79113610D01*
X96551471Y-79113612D01*
X96384667Y-79238852D01*
X96376965Y-79244635D01*
X96222629Y-79406138D01*
X96096743Y-79590680D01*
X96094564Y-79595375D01*
X96007480Y-79782982D01*
X96002688Y-79793305D01*
X95942989Y-80008570D01*
X95919251Y-80230695D01*
X94738500Y-80230695D01*
X94738500Y-73599899D01*
X102481569Y-73599899D01*
X102481744Y-73604351D01*
X102490448Y-73825869D01*
X102492180Y-73869963D01*
X102540737Y-74135837D01*
X102626272Y-74392217D01*
X102668244Y-74476215D01*
X102730972Y-74601753D01*
X102747078Y-74633987D01*
X102749607Y-74637646D01*
X102861026Y-74798856D01*
X102900744Y-74856324D01*
X102981084Y-74943235D01*
X103042542Y-75009719D01*
X103084205Y-75054790D01*
X103087659Y-75057602D01*
X103087660Y-75057603D01*
X103149728Y-75108134D01*
X103293799Y-75225427D01*
X103525346Y-75364830D01*
X103529441Y-75366564D01*
X103529443Y-75366565D01*
X103770124Y-75468480D01*
X103770131Y-75468482D01*
X103774225Y-75470216D01*
X103805404Y-75478483D01*
X104031172Y-75538345D01*
X104031177Y-75538346D01*
X104035469Y-75539484D01*
X104039878Y-75540006D01*
X104039884Y-75540007D01*
X104171092Y-75555536D01*
X104303868Y-75571251D01*
X104574064Y-75564883D01*
X104578459Y-75564151D01*
X104578464Y-75564151D01*
X104836267Y-75521241D01*
X104836271Y-75521240D01*
X104840669Y-75520508D01*
X105008959Y-75467285D01*
X105094114Y-75440354D01*
X105094116Y-75440353D01*
X105098360Y-75439011D01*
X105102371Y-75437085D01*
X105102376Y-75437083D01*
X105337979Y-75323948D01*
X105337980Y-75323947D01*
X105341998Y-75322018D01*
X105557963Y-75177715D01*
X105563013Y-75174341D01*
X105563017Y-75174338D01*
X105566721Y-75171863D01*
X105570038Y-75168892D01*
X105570042Y-75168889D01*
X105764729Y-74994512D01*
X105768045Y-74991542D01*
X105941953Y-74784654D01*
X105957061Y-74760430D01*
X106082614Y-74559111D01*
X106082615Y-74559109D01*
X106084975Y-74555325D01*
X106194258Y-74308133D01*
X106267620Y-74048008D01*
X106290946Y-73874343D01*
X106303172Y-73783324D01*
X106303173Y-73783316D01*
X106303599Y-73780142D01*
X106307375Y-73660000D01*
X106288287Y-73390403D01*
X106231402Y-73126185D01*
X106211801Y-73073053D01*
X106139397Y-72876796D01*
X106137856Y-72872619D01*
X106108510Y-72818231D01*
X106011629Y-72638678D01*
X106011629Y-72638677D01*
X106009516Y-72634762D01*
X105848942Y-72417362D01*
X105843732Y-72412069D01*
X105662469Y-72227937D01*
X105659338Y-72224756D01*
X105507732Y-72109054D01*
X105448028Y-72063489D01*
X105448024Y-72063487D01*
X105444487Y-72060787D01*
X105208675Y-71928727D01*
X104956609Y-71831210D01*
X104952284Y-71830207D01*
X104952279Y-71830206D01*
X104845724Y-71805508D01*
X104693318Y-71770182D01*
X104424054Y-71746861D01*
X104419619Y-71747105D01*
X104419615Y-71747105D01*
X104158634Y-71761468D01*
X104158627Y-71761469D01*
X104154191Y-71761713D01*
X104022622Y-71787883D01*
X103893484Y-71813570D01*
X103893479Y-71813571D01*
X103889112Y-71814440D01*
X103884909Y-71815916D01*
X103638315Y-71902513D01*
X103638312Y-71902514D01*
X103634107Y-71903991D01*
X103630154Y-71906044D01*
X103630148Y-71906047D01*
X103494846Y-71976332D01*
X103394264Y-72028580D01*
X103390649Y-72031163D01*
X103390643Y-72031167D01*
X103177990Y-72183131D01*
X103177986Y-72183134D01*
X103174369Y-72185719D01*
X102978808Y-72372275D01*
X102878772Y-72499171D01*
X102826601Y-72565350D01*
X102811485Y-72584524D01*
X102809253Y-72588366D01*
X102809250Y-72588371D01*
X102677974Y-72814377D01*
X102677971Y-72814384D01*
X102675736Y-72818231D01*
X102674062Y-72822364D01*
X102578644Y-73057942D01*
X102574272Y-73068735D01*
X102573201Y-73073048D01*
X102573199Y-73073053D01*
X102510906Y-73323827D01*
X102509116Y-73331035D01*
X102508662Y-73335463D01*
X102508662Y-73335465D01*
X102489225Y-73525173D01*
X102481569Y-73599899D01*
X94738500Y-73599899D01*
X94738500Y-67676371D01*
X94758502Y-67608250D01*
X94775405Y-67587276D01*
X95654276Y-66708405D01*
X95716588Y-66674379D01*
X95743371Y-66671500D01*
X96023133Y-66671500D01*
X96091254Y-66691502D01*
X96126345Y-66725228D01*
X96148802Y-66757300D01*
X96310700Y-66919198D01*
X96315208Y-66922355D01*
X96315211Y-66922357D01*
X96342769Y-66941653D01*
X96498251Y-67050523D01*
X96503233Y-67052846D01*
X96503238Y-67052849D01*
X96695607Y-67142551D01*
X96705757Y-67147284D01*
X96711065Y-67148706D01*
X96711067Y-67148707D01*
X96921598Y-67205119D01*
X96921600Y-67205119D01*
X96926913Y-67206543D01*
X97155000Y-67226498D01*
X97383087Y-67206543D01*
X97388400Y-67205119D01*
X97388402Y-67205119D01*
X97598933Y-67148707D01*
X97598935Y-67148706D01*
X97604243Y-67147284D01*
X97614393Y-67142551D01*
X97806762Y-67052849D01*
X97806767Y-67052846D01*
X97811749Y-67050523D01*
X97967231Y-66941653D01*
X97994789Y-66922357D01*
X97994792Y-66922355D01*
X97999300Y-66919198D01*
X98161198Y-66757300D01*
X98178232Y-66732974D01*
X98266066Y-66607533D01*
X98292523Y-66569749D01*
X98294846Y-66564767D01*
X98294849Y-66564762D01*
X98386961Y-66367225D01*
X98386961Y-66367224D01*
X98389284Y-66362243D01*
X98403930Y-66307586D01*
X98447119Y-66146402D01*
X98447119Y-66146400D01*
X98448543Y-66141087D01*
X98468498Y-65913000D01*
X98448543Y-65684913D01*
X98389284Y-65463757D01*
X98352372Y-65384598D01*
X98294849Y-65261238D01*
X98294846Y-65261233D01*
X98292523Y-65256251D01*
X98161198Y-65068700D01*
X97999300Y-64906802D01*
X97994792Y-64903645D01*
X97994789Y-64903643D01*
X97916611Y-64848902D01*
X97811749Y-64775477D01*
X97806767Y-64773154D01*
X97806762Y-64773151D01*
X97609225Y-64681039D01*
X97609224Y-64681039D01*
X97604243Y-64678716D01*
X97598935Y-64677294D01*
X97598933Y-64677293D01*
X97388402Y-64620881D01*
X97388400Y-64620881D01*
X97383087Y-64619457D01*
X97155000Y-64599502D01*
X96926913Y-64619457D01*
X96921600Y-64620881D01*
X96921598Y-64620881D01*
X96711067Y-64677293D01*
X96711065Y-64677294D01*
X96705757Y-64678716D01*
X96700776Y-64681039D01*
X96700775Y-64681039D01*
X96503238Y-64773151D01*
X96503233Y-64773154D01*
X96498251Y-64775477D01*
X96393389Y-64848902D01*
X96315211Y-64903643D01*
X96315208Y-64903645D01*
X96310700Y-64906802D01*
X96148802Y-65068700D01*
X96126345Y-65100771D01*
X96070890Y-65145099D01*
X96023133Y-65154500D01*
X95444063Y-65154500D01*
X95425114Y-65153067D01*
X95424907Y-65153036D01*
X95403651Y-65149802D01*
X95396359Y-65150395D01*
X95396356Y-65150395D01*
X95350991Y-65154085D01*
X95340777Y-65154500D01*
X95332707Y-65154500D01*
X95329087Y-65154922D01*
X95329069Y-65154923D01*
X95304461Y-65157792D01*
X95300100Y-65158224D01*
X95274981Y-65160267D01*
X95234661Y-65163546D01*
X95234658Y-65163547D01*
X95227363Y-65164140D01*
X95220399Y-65166396D01*
X95214440Y-65167587D01*
X95208585Y-65168971D01*
X95201319Y-65169818D01*
X95132673Y-65194735D01*
X95128545Y-65196152D01*
X95066064Y-65216393D01*
X95066062Y-65216394D01*
X95059101Y-65218649D01*
X95052846Y-65222445D01*
X95047372Y-65224951D01*
X95041942Y-65227670D01*
X95035063Y-65230167D01*
X94974016Y-65270191D01*
X94970327Y-65272518D01*
X94950135Y-65284771D01*
X94912693Y-65307491D01*
X94912688Y-65307495D01*
X94907892Y-65310405D01*
X94899516Y-65317803D01*
X94899493Y-65317777D01*
X94896503Y-65320426D01*
X94893264Y-65323134D01*
X94887148Y-65327144D01*
X94882121Y-65332451D01*
X94882117Y-65332454D01*
X94833872Y-65383383D01*
X94831494Y-65385825D01*
X93491089Y-66726230D01*
X93476677Y-66738616D01*
X93465082Y-66747149D01*
X93465077Y-66747154D01*
X93459182Y-66751492D01*
X93432524Y-66782871D01*
X93373176Y-66821834D01*
X93302182Y-66822527D01*
X93242085Y-66784727D01*
X93211963Y-66720437D01*
X93210500Y-66701290D01*
X93210500Y-63969925D01*
X93230502Y-63901804D01*
X93247405Y-63880830D01*
X94995829Y-62132405D01*
X95058141Y-62098380D01*
X95084924Y-62095500D01*
X96274260Y-62095500D01*
X96346531Y-62118287D01*
X96498251Y-62224523D01*
X96503233Y-62226846D01*
X96503238Y-62226849D01*
X96670947Y-62305052D01*
X96705757Y-62321284D01*
X96711065Y-62322706D01*
X96711067Y-62322707D01*
X96921598Y-62379119D01*
X96921600Y-62379119D01*
X96926913Y-62380543D01*
X97155000Y-62400498D01*
X97383087Y-62380543D01*
X97388400Y-62379119D01*
X97388402Y-62379119D01*
X97598933Y-62322707D01*
X97598935Y-62322706D01*
X97604243Y-62321284D01*
X97639053Y-62305052D01*
X97806762Y-62226849D01*
X97806767Y-62226846D01*
X97811749Y-62224523D01*
X97943307Y-62132405D01*
X97994789Y-62096357D01*
X97994792Y-62096355D01*
X97999300Y-62093198D01*
X98161198Y-61931300D01*
X98292523Y-61743749D01*
X98294846Y-61738767D01*
X98294849Y-61738762D01*
X98386961Y-61541225D01*
X98386961Y-61541224D01*
X98389284Y-61536243D01*
X98419155Y-61424766D01*
X98447119Y-61320402D01*
X98447119Y-61320400D01*
X98448543Y-61315087D01*
X98468498Y-61087000D01*
X111081502Y-61087000D01*
X111101457Y-61315087D01*
X111102881Y-61320400D01*
X111102881Y-61320402D01*
X111130846Y-61424766D01*
X111160716Y-61536243D01*
X111163039Y-61541224D01*
X111163039Y-61541225D01*
X111255151Y-61738762D01*
X111255154Y-61738767D01*
X111257477Y-61743749D01*
X111388802Y-61931300D01*
X111550700Y-62093198D01*
X111555208Y-62096355D01*
X111555211Y-62096357D01*
X111606693Y-62132405D01*
X111738251Y-62224523D01*
X111743233Y-62226846D01*
X111743238Y-62226849D01*
X111910947Y-62305052D01*
X111945757Y-62321284D01*
X111951065Y-62322706D01*
X111951067Y-62322707D01*
X112161598Y-62379119D01*
X112161600Y-62379119D01*
X112166913Y-62380543D01*
X112395000Y-62400498D01*
X112623087Y-62380543D01*
X112628400Y-62379119D01*
X112628402Y-62379119D01*
X112838933Y-62322707D01*
X112838935Y-62322706D01*
X112844243Y-62321284D01*
X112879053Y-62305052D01*
X113046762Y-62226849D01*
X113046767Y-62226846D01*
X113051749Y-62224523D01*
X113183307Y-62132405D01*
X113234789Y-62096357D01*
X113234792Y-62096355D01*
X113239300Y-62093198D01*
X113401198Y-61931300D01*
X113532523Y-61743749D01*
X113534846Y-61738767D01*
X113534849Y-61738762D01*
X113626961Y-61541225D01*
X113626961Y-61541224D01*
X113629284Y-61536243D01*
X113634868Y-61515404D01*
X140738941Y-61515404D01*
X140739304Y-61519552D01*
X140739304Y-61519556D01*
X140740764Y-61536243D01*
X140765091Y-61814292D01*
X140766001Y-61818364D01*
X140766002Y-61818369D01*
X140827948Y-62095500D01*
X140830540Y-62107095D01*
X140934140Y-62388671D01*
X140936084Y-62392359D01*
X140936088Y-62392367D01*
X141032805Y-62575807D01*
X141074069Y-62654071D01*
X141247871Y-62898633D01*
X141452490Y-63118061D01*
X141684333Y-63308498D01*
X141939325Y-63466600D01*
X142212988Y-63589589D01*
X142387368Y-63641574D01*
X142496514Y-63674112D01*
X142496516Y-63674112D01*
X142500513Y-63675304D01*
X142504633Y-63675957D01*
X142504635Y-63675957D01*
X142623509Y-63694785D01*
X142796848Y-63722239D01*
X142839577Y-63724179D01*
X142889262Y-63726436D01*
X142889281Y-63726436D01*
X142890681Y-63726500D01*
X143078107Y-63726500D01*
X143301370Y-63711671D01*
X143305464Y-63710846D01*
X143305468Y-63710845D01*
X143446513Y-63682405D01*
X143595480Y-63652368D01*
X143879163Y-63554688D01*
X143882896Y-63552819D01*
X143882900Y-63552817D01*
X144143691Y-63422222D01*
X144143693Y-63422221D01*
X144147435Y-63420347D01*
X144332464Y-63294602D01*
X144392125Y-63254057D01*
X144392128Y-63254055D01*
X144395584Y-63251706D01*
X144619248Y-63051726D01*
X144717130Y-62937525D01*
X144811779Y-62827097D01*
X144811782Y-62827093D01*
X144814499Y-62823923D01*
X144816773Y-62820421D01*
X144816777Y-62820416D01*
X144975628Y-62575807D01*
X144975631Y-62575802D01*
X144977907Y-62572297D01*
X145106600Y-62301270D01*
X145198318Y-62015604D01*
X145251448Y-61720316D01*
X145259808Y-61536243D01*
X145264870Y-61424766D01*
X145264870Y-61424760D01*
X145265059Y-61420596D01*
X145255349Y-61309607D01*
X145239273Y-61125870D01*
X145238909Y-61121708D01*
X145235957Y-61108498D01*
X145174372Y-60832984D01*
X145174371Y-60832981D01*
X145173460Y-60828905D01*
X145069860Y-60547329D01*
X145067916Y-60543641D01*
X145067912Y-60543633D01*
X144931884Y-60285633D01*
X144931883Y-60285632D01*
X144929931Y-60281929D01*
X144756129Y-60037367D01*
X144551510Y-59817939D01*
X144319667Y-59627502D01*
X144064675Y-59469400D01*
X143791012Y-59346411D01*
X143508710Y-59262253D01*
X143507486Y-59261888D01*
X143507484Y-59261888D01*
X143503487Y-59260696D01*
X143499367Y-59260043D01*
X143499365Y-59260043D01*
X143380491Y-59241215D01*
X143207152Y-59213761D01*
X143164423Y-59211821D01*
X143114738Y-59209564D01*
X143114719Y-59209564D01*
X143113319Y-59209500D01*
X142925893Y-59209500D01*
X142702630Y-59224329D01*
X142698536Y-59225154D01*
X142698532Y-59225155D01*
X142557487Y-59253595D01*
X142408520Y-59283632D01*
X142124837Y-59381312D01*
X142121104Y-59383181D01*
X142121100Y-59383183D01*
X141860309Y-59513778D01*
X141856565Y-59515653D01*
X141608416Y-59684294D01*
X141384752Y-59884274D01*
X141382035Y-59887444D01*
X141382034Y-59887445D01*
X141205481Y-60093433D01*
X141189501Y-60112077D01*
X141187227Y-60115579D01*
X141187223Y-60115584D01*
X141028372Y-60360193D01*
X141026093Y-60363703D01*
X141024299Y-60367482D01*
X141024298Y-60367483D01*
X141013290Y-60390666D01*
X140897400Y-60634730D01*
X140896121Y-60638713D01*
X140896120Y-60638716D01*
X140833747Y-60832984D01*
X140805682Y-60920396D01*
X140804941Y-60924515D01*
X140767046Y-61135131D01*
X140752552Y-61215684D01*
X140752363Y-61219851D01*
X140752362Y-61219858D01*
X140743435Y-61416444D01*
X140738941Y-61515404D01*
X113634868Y-61515404D01*
X113659155Y-61424766D01*
X113687119Y-61320402D01*
X113687119Y-61320400D01*
X113688543Y-61315087D01*
X113708498Y-61087000D01*
X113688543Y-60858913D01*
X113681595Y-60832984D01*
X113630707Y-60643067D01*
X113630706Y-60643065D01*
X113629284Y-60637757D01*
X113585394Y-60543633D01*
X113534849Y-60435238D01*
X113534846Y-60435233D01*
X113532523Y-60430251D01*
X113428174Y-60281225D01*
X113404357Y-60247211D01*
X113404355Y-60247208D01*
X113401198Y-60242700D01*
X113239300Y-60080802D01*
X113234792Y-60077645D01*
X113234789Y-60077643D01*
X113156611Y-60022902D01*
X113051749Y-59949477D01*
X113046767Y-59947154D01*
X113046762Y-59947151D01*
X112849225Y-59855039D01*
X112849224Y-59855039D01*
X112844243Y-59852716D01*
X112838935Y-59851294D01*
X112838933Y-59851293D01*
X112748271Y-59827000D01*
X117416502Y-59827000D01*
X117436457Y-60055087D01*
X117437881Y-60060400D01*
X117437881Y-60060402D01*
X117486044Y-60240145D01*
X117495716Y-60276243D01*
X117498039Y-60281224D01*
X117498039Y-60281225D01*
X117590151Y-60478762D01*
X117590154Y-60478767D01*
X117592477Y-60483749D01*
X117723802Y-60671300D01*
X117885700Y-60833198D01*
X117890208Y-60836355D01*
X117890211Y-60836357D01*
X117930251Y-60864393D01*
X118073251Y-60964523D01*
X118078233Y-60966846D01*
X118078238Y-60966849D01*
X118274765Y-61058490D01*
X118280757Y-61061284D01*
X118286065Y-61062706D01*
X118286067Y-61062707D01*
X118496598Y-61119119D01*
X118496600Y-61119119D01*
X118501913Y-61120543D01*
X118730000Y-61140498D01*
X118958087Y-61120543D01*
X118963400Y-61119119D01*
X118963402Y-61119119D01*
X119173933Y-61062707D01*
X119173935Y-61062706D01*
X119179243Y-61061284D01*
X119185235Y-61058490D01*
X119381762Y-60966849D01*
X119381767Y-60966846D01*
X119386749Y-60964523D01*
X119529749Y-60864393D01*
X119569789Y-60836357D01*
X119569792Y-60836355D01*
X119574300Y-60833198D01*
X119736198Y-60671300D01*
X119867523Y-60483749D01*
X119869846Y-60478767D01*
X119869849Y-60478762D01*
X119886081Y-60443951D01*
X119932998Y-60390666D01*
X120001275Y-60371205D01*
X120069235Y-60391747D01*
X120114471Y-60443951D01*
X120130586Y-60478511D01*
X120136069Y-60488007D01*
X120261028Y-60666467D01*
X120268084Y-60674875D01*
X120422125Y-60828916D01*
X120430533Y-60835972D01*
X120608993Y-60960931D01*
X120618489Y-60966414D01*
X120815947Y-61058490D01*
X120826239Y-61062236D01*
X120998503Y-61108394D01*
X121012599Y-61108058D01*
X121016000Y-61100116D01*
X121016000Y-61094967D01*
X121524000Y-61094967D01*
X121527973Y-61108498D01*
X121536522Y-61109727D01*
X121713761Y-61062236D01*
X121724053Y-61058490D01*
X121921511Y-60966414D01*
X121931007Y-60960931D01*
X122109467Y-60835972D01*
X122117875Y-60828916D01*
X122271916Y-60674875D01*
X122282507Y-60662254D01*
X122283525Y-60663108D01*
X122333984Y-60622776D01*
X122404603Y-60615468D01*
X122467963Y-60647500D01*
X122503947Y-60708702D01*
X122507000Y-60725762D01*
X122508255Y-60737316D01*
X122559385Y-60873705D01*
X122646739Y-60990261D01*
X122763295Y-61077615D01*
X122899684Y-61128745D01*
X122961866Y-61135500D01*
X124658134Y-61135500D01*
X124720316Y-61128745D01*
X124856705Y-61077615D01*
X124973261Y-60990261D01*
X125060615Y-60873705D01*
X125111745Y-60737316D01*
X125118500Y-60675134D01*
X125118500Y-58978866D01*
X125111745Y-58916684D01*
X125060615Y-58780295D01*
X124973261Y-58663739D01*
X124856705Y-58576385D01*
X124720316Y-58525255D01*
X124658134Y-58518500D01*
X122961866Y-58518500D01*
X122899684Y-58525255D01*
X122763295Y-58576385D01*
X122646739Y-58663739D01*
X122559385Y-58780295D01*
X122508255Y-58916684D01*
X122507001Y-58928229D01*
X122505887Y-58930910D01*
X122505575Y-58932222D01*
X122505363Y-58932172D01*
X122479762Y-58993790D01*
X122421401Y-59034218D01*
X122350447Y-59036677D01*
X122289428Y-59000384D01*
X122280853Y-58989775D01*
X122271916Y-58979125D01*
X122117875Y-58825084D01*
X122109467Y-58818028D01*
X121931007Y-58693069D01*
X121921511Y-58687586D01*
X121724053Y-58595510D01*
X121713761Y-58591764D01*
X121541497Y-58545606D01*
X121527401Y-58545942D01*
X121524000Y-58553884D01*
X121524000Y-61094967D01*
X121016000Y-61094967D01*
X121016000Y-58559033D01*
X121012027Y-58545502D01*
X121003478Y-58544273D01*
X120826239Y-58591764D01*
X120815947Y-58595510D01*
X120618489Y-58687586D01*
X120608993Y-58693069D01*
X120430533Y-58818028D01*
X120422125Y-58825084D01*
X120268084Y-58979125D01*
X120261028Y-58987533D01*
X120136069Y-59165993D01*
X120130586Y-59175489D01*
X120114471Y-59210049D01*
X120067554Y-59263334D01*
X119999277Y-59282795D01*
X119931317Y-59262253D01*
X119886081Y-59210049D01*
X119869849Y-59175238D01*
X119869846Y-59175233D01*
X119867523Y-59170251D01*
X119773993Y-59036677D01*
X119739357Y-58987211D01*
X119739355Y-58987208D01*
X119736198Y-58982700D01*
X119574300Y-58820802D01*
X119569792Y-58817645D01*
X119569789Y-58817643D01*
X119491611Y-58762902D01*
X119386749Y-58689477D01*
X119381767Y-58687154D01*
X119381762Y-58687151D01*
X119184225Y-58595039D01*
X119184224Y-58595039D01*
X119179243Y-58592716D01*
X119173935Y-58591294D01*
X119173933Y-58591293D01*
X118963402Y-58534881D01*
X118963400Y-58534881D01*
X118958087Y-58533457D01*
X118730000Y-58513502D01*
X118501913Y-58533457D01*
X118496600Y-58534881D01*
X118496598Y-58534881D01*
X118286067Y-58591293D01*
X118286065Y-58591294D01*
X118280757Y-58592716D01*
X118275776Y-58595039D01*
X118275775Y-58595039D01*
X118078238Y-58687151D01*
X118078233Y-58687154D01*
X118073251Y-58689477D01*
X117968389Y-58762902D01*
X117890211Y-58817643D01*
X117890208Y-58817645D01*
X117885700Y-58820802D01*
X117723802Y-58982700D01*
X117720645Y-58987208D01*
X117720643Y-58987211D01*
X117686007Y-59036677D01*
X117592477Y-59170251D01*
X117590154Y-59175233D01*
X117590151Y-59175238D01*
X117498039Y-59372775D01*
X117495716Y-59377757D01*
X117494294Y-59383065D01*
X117494293Y-59383067D01*
X117437881Y-59593598D01*
X117436457Y-59598913D01*
X117416502Y-59827000D01*
X112748271Y-59827000D01*
X112628402Y-59794881D01*
X112628400Y-59794881D01*
X112623087Y-59793457D01*
X112395000Y-59773502D01*
X112166913Y-59793457D01*
X112161600Y-59794881D01*
X112161598Y-59794881D01*
X111951067Y-59851293D01*
X111951065Y-59851294D01*
X111945757Y-59852716D01*
X111940776Y-59855039D01*
X111940775Y-59855039D01*
X111743238Y-59947151D01*
X111743233Y-59947154D01*
X111738251Y-59949477D01*
X111633389Y-60022902D01*
X111555211Y-60077643D01*
X111555208Y-60077645D01*
X111550700Y-60080802D01*
X111388802Y-60242700D01*
X111385645Y-60247208D01*
X111385643Y-60247211D01*
X111361826Y-60281225D01*
X111257477Y-60430251D01*
X111255154Y-60435233D01*
X111255151Y-60435238D01*
X111204606Y-60543633D01*
X111160716Y-60637757D01*
X111159294Y-60643065D01*
X111159293Y-60643067D01*
X111108405Y-60832984D01*
X111101457Y-60858913D01*
X111081502Y-61087000D01*
X98468498Y-61087000D01*
X98448543Y-60858913D01*
X98441595Y-60832984D01*
X98390707Y-60643067D01*
X98390706Y-60643065D01*
X98389284Y-60637757D01*
X98345394Y-60543633D01*
X98294849Y-60435238D01*
X98294846Y-60435233D01*
X98292523Y-60430251D01*
X98188174Y-60281225D01*
X98164357Y-60247211D01*
X98164355Y-60247208D01*
X98161198Y-60242700D01*
X97999300Y-60080802D01*
X97994792Y-60077645D01*
X97994789Y-60077643D01*
X97916611Y-60022902D01*
X97811749Y-59949477D01*
X97806767Y-59947154D01*
X97806762Y-59947151D01*
X97609225Y-59855039D01*
X97609224Y-59855039D01*
X97604243Y-59852716D01*
X97598935Y-59851294D01*
X97598933Y-59851293D01*
X97388402Y-59794881D01*
X97388400Y-59794881D01*
X97383087Y-59793457D01*
X97155000Y-59773502D01*
X96926913Y-59793457D01*
X96921600Y-59794881D01*
X96921598Y-59794881D01*
X96711067Y-59851293D01*
X96711065Y-59851294D01*
X96705757Y-59852716D01*
X96700776Y-59855039D01*
X96700775Y-59855039D01*
X96503238Y-59947151D01*
X96503233Y-59947154D01*
X96498251Y-59949477D01*
X96377096Y-60034311D01*
X96346531Y-60055713D01*
X96274260Y-60078500D01*
X94676842Y-60078500D01*
X94663235Y-60077763D01*
X94631737Y-60074341D01*
X94631732Y-60074341D01*
X94625611Y-60073676D01*
X94607611Y-60075251D01*
X94575609Y-60078050D01*
X94570784Y-60078379D01*
X94568313Y-60078500D01*
X94565231Y-60078500D01*
X94542763Y-60080703D01*
X94522489Y-60082691D01*
X94521174Y-60082813D01*
X94488913Y-60085636D01*
X94428587Y-60090913D01*
X94423468Y-60092400D01*
X94418167Y-60092920D01*
X94329194Y-60119782D01*
X94328054Y-60120120D01*
X94238663Y-60146091D01*
X94233929Y-60148545D01*
X94228831Y-60150084D01*
X94223387Y-60152978D01*
X94223386Y-60152979D01*
X94146831Y-60193684D01*
X94145663Y-60194298D01*
X94063074Y-60237108D01*
X94058911Y-60240431D01*
X94054204Y-60242934D01*
X93982082Y-60301755D01*
X93981226Y-60302446D01*
X93942027Y-60333738D01*
X93939523Y-60336242D01*
X93938805Y-60336884D01*
X93934472Y-60340585D01*
X93900938Y-60367935D01*
X93897011Y-60372682D01*
X93897009Y-60372684D01*
X93871713Y-60403262D01*
X93863723Y-60412042D01*
X91532621Y-62743145D01*
X91522478Y-62752247D01*
X91492975Y-62775968D01*
X91489008Y-62780696D01*
X91460709Y-62814421D01*
X91457528Y-62818069D01*
X91455885Y-62819881D01*
X91453691Y-62822075D01*
X91426358Y-62855349D01*
X91425696Y-62856147D01*
X91365846Y-62927474D01*
X91363278Y-62932144D01*
X91359897Y-62936261D01*
X91328860Y-62994145D01*
X91316023Y-63018086D01*
X91315394Y-63019245D01*
X91273538Y-63095381D01*
X91273535Y-63095389D01*
X91270567Y-63100787D01*
X91268955Y-63105869D01*
X91266438Y-63110563D01*
X91239238Y-63199531D01*
X91238918Y-63200559D01*
X91210765Y-63289306D01*
X91210171Y-63294602D01*
X91208613Y-63299698D01*
X91207496Y-63310699D01*
X91199218Y-63392187D01*
X91199089Y-63393393D01*
X91193500Y-63443227D01*
X91193500Y-63446754D01*
X91193445Y-63447739D01*
X91192998Y-63453419D01*
X91188626Y-63496462D01*
X87884500Y-63496462D01*
X87884500Y-57784500D01*
X87904502Y-57716379D01*
X87958158Y-57669886D01*
X88010500Y-57658500D01*
X146685500Y-57658500D01*
X146753621Y-57678502D01*
G37*
%TD.AperFunction*%
M02*
