%TF.GenerationSoftware,KiCad,Pcbnew,(6.0.8)*%
%TF.CreationDate,2022-11-03T15:18:16-07:00*%
%TF.ProjectId,TipBlaster_V2,54697042-6c61-4737-9465-725f56322e6b,rev?*%
%TF.SameCoordinates,Original*%
%TF.FileFunction,Soldermask,Top*%
%TF.FilePolarity,Negative*%
%FSLAX46Y46*%
G04 Gerber Fmt 4.6, Leading zero omitted, Abs format (unit mm)*
G04 Created by KiCad (PCBNEW (6.0.8)) date 2022-11-03 15:18:16*
%MOMM*%
%LPD*%
G01*
G04 APERTURE LIST*
%ADD10C,3.500000*%
%ADD11R,1.600000X1.600000*%
%ADD12O,1.600000X1.600000*%
%ADD13C,1.600000*%
%ADD14R,2.000000X1.905000*%
%ADD15O,2.000000X1.905000*%
%ADD16O,1.200000X1.600000*%
%ADD17O,1.200000X1.200000*%
%ADD18R,1.700000X1.700000*%
%ADD19O,1.700000X1.700000*%
%ADD20R,1.800000X1.800000*%
%ADD21C,1.800000*%
%ADD22R,2.800000X2.800000*%
%ADD23O,2.800000X2.800000*%
G04 APERTURE END LIST*
D10*
X91440000Y-100330000D03*
X143002000Y-61468000D03*
D11*
X123810000Y-59827000D03*
D12*
X121270000Y-59827000D03*
X118730000Y-59827000D03*
X118730000Y-67447000D03*
X121270000Y-67447000D03*
X123810000Y-67447000D03*
D13*
X133858000Y-80010000D03*
D12*
X133858000Y-95250000D03*
D13*
X128778000Y-80010000D03*
D12*
X128778000Y-95250000D03*
X123444000Y-80010000D03*
D13*
X123444000Y-95250000D03*
X118872000Y-95250000D03*
D12*
X118872000Y-80010000D03*
D13*
X114046000Y-80010000D03*
D12*
X114046000Y-95250000D03*
D13*
X108966000Y-95250000D03*
D12*
X108966000Y-80010000D03*
D13*
X97155000Y-65913000D03*
D12*
X112395000Y-65913000D03*
D13*
X112395000Y-61087000D03*
D12*
X97155000Y-61087000D03*
D14*
X141478000Y-73406000D03*
D15*
X141478000Y-75946000D03*
X141478000Y-78486000D03*
D16*
X130302000Y-73152000D03*
D17*
X129032000Y-74422000D03*
X130302000Y-75692000D03*
D18*
X97282000Y-75184000D03*
D19*
X97282000Y-77724000D03*
X97282000Y-80264000D03*
X97282000Y-82804000D03*
X97282000Y-85344000D03*
X97282000Y-87884000D03*
X97282000Y-90424000D03*
X97282000Y-92964000D03*
D20*
X138425000Y-94234000D03*
D21*
X140965000Y-94234000D03*
D22*
X117094000Y-73660000D03*
D23*
X104394000Y-73660000D03*
M02*
